<?plantuml 1.2026.2?><svg xmlns="http://www.w3.org/2000/svg" xmlns:xlink="http://www.w3.org/1999/xlink" contentStyleType="text/css" data-diagram-type="DESCRIPTION" height="773px" preserveAspectRatio="none" style="width:1281px;height:773px;background:#FFFFFF;" version="1.1" viewBox="0 0 1281 773" width="1281px" zoomAndPan="magnify"><title>short-circuit &#8212; WireGuard VPN Setup and Configuration</title><defs/><g><g class="title" data-source-line="11"><text fill="#000000" font-family="Helvetica" font-size="14" font-weight="bold" lengthAdjust="spacing" textLength="388.7332" x="438.1334" y="24.9659">short-circuit &#8212; WireGuard VPN Setup and Configuration</text></g><!--cluster Profile Selection--><g class="cluster" data-qualified-name="Profile Selection" data-source-line="13" id="ent0002"><path d="M16.5,61.5679 L130.3956,61.5679 A3.75,3.75 0 0 1 132.8956,64.0679 L139.8956,86.6358 L348.5,86.6358 A2.5,2.5 0 0 1 351,89.1358 L351,155.0679 A2.5,2.5 0 0 1 348.5,157.5679 L16.5,157.5679 A2.5,2.5 0 0 1 14,155.0679 L14,64.0679 A2.5,2.5 0 0 1 16.5,61.5679" fill="none" style="stroke:#000000;stroke-width:1.5;"/><line style="stroke:#000000;stroke-width:1.5;" x1="14" x2="139.8956" y1="86.6358" y2="86.6358"/><text fill="#000000" font-family="Helvetica" font-size="14" font-weight="bold" lengthAdjust="spacing" textLength="112.8956" x="18" y="78.5339">Profile Selection</text></g><!--cluster Config Templates\n(config/wireguard/)--><g class="cluster" data-qualified-name="Config Templates.n.config.wireguard.." data-source-line="18" id="ent0005"><path d="M361.5,52.0679 L498.31,52.0679 A3.75,3.75 0 0 1 500.81,54.5679 L507.81,96.2038 L1271.5,96.2038 A2.5,2.5 0 0 1 1274,98.7038 L1274,145.5679 A2.5,2.5 0 0 1 1271.5,148.0679 L361.5,148.0679 A2.5,2.5 0 0 1 359,145.5679 L359,54.5679 A2.5,2.5 0 0 1 361.5,52.0679" fill="none" style="stroke:#000000;stroke-width:1.5;"/><line style="stroke:#000000;stroke-width:1.5;" x1="359" x2="507.81" y1="96.2038" y2="96.2038"/><text fill="#000000" font-family="Helvetica" font-size="14" font-weight="bold" lengthAdjust="spacing" textLength="121.7121" x="370.049" y="69.0339">Config Templates</text><text fill="#000000" font-family="Helvetica" font-size="14" font-weight="bold" lengthAdjust="spacing" textLength="135.81" x="363" y="88.1018">(config/wireguard/)</text></g><!--cluster Local Configs (gitignored)--><g class="cluster" data-qualified-name="Local Configs .gitignored." data-source-line="25" id="ent0010"><path d="M541.5,186.0679 L721.2934,186.0679 A3.75,3.75 0 0 1 723.7934,188.5679 L730.7934,211.1358 L1012.5,211.1358 A2.5,2.5 0 0 1 1015,213.6358 L1015,260.5679 A2.5,2.5 0 0 1 1012.5,263.0679 L541.5,263.0679 A2.5,2.5 0 0 1 539,260.5679 L539,188.5679 A2.5,2.5 0 0 1 541.5,186.0679" fill="none" style="stroke:#000000;stroke-width:1.5;"/><line style="stroke:#000000;stroke-width:1.5;" x1="539" x2="730.7934" y1="211.1358" y2="211.1358"/><text fill="#000000" font-family="Helvetica" font-size="14" font-weight="bold" lengthAdjust="spacing" textLength="178.7934" x="543" y="203.0339">Local Configs (gitignored)</text></g><!--cluster scripts/setup_wireguard.sh--><g class="cluster" data-qualified-name="scripts.setup_wireguard.sh" data-source-line="30" id="ent0013"><path d="M229.5,176.5679 L420.3183,176.5679 A3.75,3.75 0 0 1 422.8183,179.0679 L429.8183,201.6358 L517.5,201.6358 A2.5,2.5 0 0 1 520,204.1358 L520,422.0679 A2.5,2.5 0 0 1 517.5,424.5679 L229.5,424.5679 A2.5,2.5 0 0 1 227,422.0679 L227,179.0679 A2.5,2.5 0 0 1 229.5,176.5679" fill="none" style="stroke:#000000;stroke-width:1.5;"/><line style="stroke:#000000;stroke-width:1.5;" x1="227" x2="429.8183" y1="201.6358" y2="201.6358"/><text fill="#000000" font-family="Helvetica" font-size="14" font-weight="bold" lengthAdjust="spacing" textLength="189.8183" x="231" y="193.5339">scripts/setup_wireguard.sh</text></g><!--cluster Host System--><g class="cluster" data-qualified-name="Host System" data-source-line="37" id="ent0018"><path d="M75.5,443.5679 L162.6907,443.5679 A3.75,3.75 0 0 1 165.1907,446.0679 L172.1907,468.6358 L701.5,468.6358 A2.5,2.5 0 0 1 704,471.1358 L704,537.0679 A2.5,2.5 0 0 1 701.5,539.5679 L75.5,539.5679 A2.5,2.5 0 0 1 73,537.0679 L73,446.0679 A2.5,2.5 0 0 1 75.5,443.5679" fill="none" style="stroke:#000000;stroke-width:1.5;"/><line style="stroke:#000000;stroke-width:1.5;" x1="73" x2="172.1907" y1="468.6358" y2="468.6358"/><text fill="#000000" font-family="Helvetica" font-size="14" font-weight="bold" lengthAdjust="spacing" textLength="86.1907" x="77" y="460.5339">Host System</text></g><!--cluster Tunnel Access--><g class="cluster" data-qualified-name="Tunnel Access" data-source-line="44" id="ent0023"><path d="M280.5,596.5679 L379.3316,596.5679 A3.75,3.75 0 0 1 381.8316,599.0679 L388.8316,621.6358 L798.5,621.6358 A2.5,2.5 0 0 1 801,624.1358 L801,690.0679 A2.5,2.5 0 0 1 798.5,692.5679 L280.5,692.5679 A2.5,2.5 0 0 1 278,690.0679 L278,599.0679 A2.5,2.5 0 0 1 280.5,596.5679" fill="none" style="stroke:#000000;stroke-width:1.5;"/><line style="stroke:#000000;stroke-width:1.5;" x1="278" x2="388.8316" y1="621.6358" y2="621.6358"/><text fill="#000000" font-family="Helvetica" font-size="14" font-weight="bold" lengthAdjust="spacing" textLength="97.8316" x="282" y="613.5339">Tunnel Access</text></g><g class="entity" data-qualified-name="GMN47" data-source-line="72" id="ent0048"><path d="M494,721.5679 L494,766.9799 A0,0 0 0 0 494,766.9799 L663.7721,766.9799 A0,0 0 0 0 663.7721,766.9799 L663.7721,731.5679 L653.7721,721.5679 L583,721.5679 L579,684.8913 L575,721.5679 L494,721.5679 A0,0 0 0 0 494,721.5679" fill="#FFFDE7" style="stroke:#F9A825;stroke-width:0.5;"/><path d="M653.7721,721.5679 L653.7721,731.5679 L663.7721,731.5679 L653.7721,721.5679" fill="#FFFDE7" style="stroke:#F9A825;stroke-width:0.5;"/><text fill="#000000" font-family="Helvetica" font-size="13" lengthAdjust="spacing" textLength="143.5981" x="500" y="740.4649">pit-stop will extend SSH</text><text fill="#000000" font-family="Helvetica" font-size="13" lengthAdjust="spacing" textLength="148.7721" x="500" y="758.1709">access patterns in depth</text></g><!--entity PublicVPN--><g class="entity" data-qualified-name="Profile Selection.PublicVPN" data-source-line="14" id="ent0003"><rect fill="#F5F5F5" height="58.1358" rx="2.5" ry="2.5" style="stroke:#555555;stroke-width:0.5;" width="161.0074" x="22.5" y="91.5679"/><text fill="#000000" font-family="Helvetica" font-size="14" lengthAdjust="spacing" textLength="141.0074" x="32.5" y="116.5339">wireguard-public-vpn</text><text fill="#000000" font-family="Helvetica" font-size="14" lengthAdjust="spacing" textLength="69.6637" x="32.5" y="135.6018">(host-only)</text></g><!--entity LanVPN--><g class="entity" data-qualified-name="Profile Selection.LanVPN" data-source-line="15" id="ent0004"><rect fill="#F5F5F5" height="58.1358" rx="2.5" ry="2.5" style="stroke:#555555;stroke-width:0.5;" width="141.3095" x="201.5" y="91.5679"/><text fill="#000000" font-family="Helvetica" font-size="14" lengthAdjust="spacing" textLength="121.3095" x="211.5" y="116.5339">wireguard-lan-vpn</text><text fill="#000000" font-family="Helvetica" font-size="14" lengthAdjust="spacing" textLength="79.4917" x="211.5" y="135.6018">(host + LAN)</text></g><!--entity ServerExample--><g class="entity" data-qualified-name="Config Templates.n.config.wireguard...ServerExample" data-source-line="19" id="ent0006"><rect fill="#F5F5F5" height="39.0679" rx="2.5" ry="2.5" style="stroke:#555555;stroke-width:0.5;" width="185.8293" x="621" y="101.0679"/><text fill="#000000" font-family="Helvetica" font-size="14" lengthAdjust="spacing" textLength="165.8293" x="631" y="126.0339">wg0-server.example.conf</text></g><!--entity ServerLanExample--><g class="entity" data-qualified-name="Config Templates.n.config.wireguard...ServerLanExample" data-source-line="20" id="ent0007"><rect fill="#F5F5F5" height="39.0679" rx="2.5" ry="2.5" style="stroke:#555555;stroke-width:0.5;" width="238.5811" x="825.5" y="101.0679"/><text fill="#000000" font-family="Helvetica" font-size="14" lengthAdjust="spacing" textLength="218.5811" x="835.5" y="126.0339">wg0-server.lan-vpn.example.conf</text></g><!--entity ClientExample--><g class="entity" data-qualified-name="Config Templates.n.config.wireguard...ClientExample" data-source-line="21" id="ent0008"><rect fill="#F5F5F5" height="39.0679" rx="2.5" ry="2.5" style="stroke:#555555;stroke-width:0.5;" width="182.7634" x="1082.5" y="101.0679"/><text fill="#000000" font-family="Helvetica" font-size="14" lengthAdjust="spacing" textLength="162.7634" x="1092.5" y="126.0339">client-peer.example.conf</text></g><!--entity ClientLanExample--><g class="entity" data-qualified-name="Config Templates.n.config.wireguard...ClientLanExample" data-source-line="22" id="ent0009"><rect fill="#F5F5F5" height="39.0679" rx="2.5" ry="2.5" style="stroke:#555555;stroke-width:0.5;" width="235.5151" x="367" y="101.0679"/><text fill="#000000" font-family="Helvetica" font-size="14" lengthAdjust="spacing" textLength="215.5151" x="377" y="126.0339">client-peer.lan-vpn.example.conf</text></g><!--entity ServerLocal--><g class="entity" data-qualified-name="Local Configs .gitignored..ServerLocal" data-source-line="26" id="ent0011"><rect fill="#F5F5F5" height="39.0679" rx="2.5" ry="2.5" style="stroke:#555555;stroke-width:0.5;" width="222.2992" x="547" y="216.0679"/><text fill="#000000" font-family="Helvetica" font-size="14" lengthAdjust="spacing" textLength="202.2992" x="557" y="241.0339">wg0-server.&lt;profile&gt;.local.conf</text></g><!--entity ClientLocal--><g class="entity" data-qualified-name="Local Configs .gitignored..ClientLocal" data-source-line="27" id="ent0012"><rect fill="#F5F5F5" height="39.0679" rx="2.5" ry="2.5" style="stroke:#555555;stroke-width:0.5;" width="219.2332" x="787.5" y="216.0679"/><text fill="#000000" font-family="Helvetica" font-size="14" lengthAdjust="spacing" textLength="199.2332" x="797.5" y="241.0339">client-peer.&lt;profile&gt;.local.conf</text></g><!--entity InitStep--><g class="entity" data-qualified-name="scripts.setup_wireguard.sh.InitStep" data-source-line="31" id="ent0014"><rect fill="#F5F5F5" height="39.0679" rx="2.5" ry="2.5" style="stroke:#555555;stroke-width:0.5;" width="136.8155" x="374.5" y="216.0679"/><text fill="#000000" font-family="Helvetica" font-size="14" lengthAdjust="spacing" textLength="116.8155" x="384.5" y="241.0339">--init-local-configs</text></g><!--entity KeyGen--><g class="entity" data-qualified-name="scripts.setup_wireguard.sh.KeyGen" data-source-line="32" id="ent0015"><rect fill="#F5F5F5" height="58.1358" rx="2.5" ry="2.5" style="stroke:#555555;stroke-width:0.5;" width="121.4016" x="235.5" y="206.5679"/><text fill="#000000" font-family="Helvetica" font-size="14" lengthAdjust="spacing" textLength="101.4016" x="245.5" y="231.5339">Key Generation</text><text fill="#000000" font-family="Helvetica" font-size="14" lengthAdjust="spacing" textLength="79.3237" x="245.5" y="250.6018">(wg genkey)</text></g><!--entity Validation--><g class="entity" data-qualified-name="scripts.setup_wireguard.sh.Validation" data-source-line="33" id="ent0016"><rect fill="#F5F5F5" height="39.0679" rx="2.5" ry="2.5" style="stroke:#555555;stroke-width:0.5;" width="166.9434" x="344.5" y="301.5679"/><text fill="#000000" font-family="Helvetica" font-size="14" lengthAdjust="spacing" textLength="146.9434" x="354.5" y="326.5339">Placeholder Validation</text></g><!--entity Installer--><g class="entity" data-qualified-name="scripts.setup_wireguard.sh.Installer" data-source-line="34" id="ent0017"><rect fill="#F5F5F5" height="39.0679" rx="2.5" ry="2.5" style="stroke:#555555;stroke-width:0.5;" width="113.7297" x="371" y="377.5679"/><text fill="#000000" font-family="Helvetica" font-size="14" lengthAdjust="spacing" textLength="93.7297" x="381" y="402.5339">Installer (root)</text></g><!--entity WgConf--><g class="entity" data-qualified-name="Host System.WgConf" data-source-line="38" id="ent0019"><rect fill="#F5F5F5" height="39.0679" rx="2.5" ry="2.5" style="stroke:#555555;stroke-width:0.5;" width="183.1273" x="81.5" y="483.0679"/><text fill="#000000" font-family="Helvetica" font-size="14" lengthAdjust="spacing" textLength="163.1273" x="91.5" y="508.0339">/etc/wireguard/wg0.conf</text></g><!--entity DnsMasq--><g class="entity" data-qualified-name="Host System.DnsMasq" data-source-line="39" id="ent0020"><rect fill="#F5F5F5" height="58.1358" rx="2.5" ry="2.5" style="stroke:#555555;stroke-width:0.5;" width="144.5155" x="282.5" y="473.5679"/><text fill="#000000" font-family="Helvetica" font-size="14" lengthAdjust="spacing" textLength="124.5155" x="292.5" y="498.5339">dnsmasq split-DNS</text><text fill="#000000" font-family="Helvetica" font-size="14" lengthAdjust="spacing" textLength="107.8836" x="292.5" y="517.6018">/etc/dnsmasq.d/</text></g><!--entity Firewall--><g class="entity" data-qualified-name="Host System.Firewall" data-source-line="40" id="ent0021"><rect fill="#F5F5F5" height="58.1358" rx="2.5" ry="2.5" style="stroke:#555555;stroke-width:0.5;" width="112.0356" x="446" y="473.5679"/><text fill="#000000" font-family="Helvetica" font-size="14" lengthAdjust="spacing" textLength="92.0356" x="456" y="498.5339">firewalld zone</text><text fill="#000000" font-family="Helvetica" font-size="14" lengthAdjust="spacing" textLength="56.1538" x="456" y="517.6018">(trusted)</text></g><!--entity WgService--><g class="entity" data-qualified-name="Host System.WgService" data-source-line="41" id="ent0022"><rect fill="#F5F5F5" height="39.0679" rx="2.5" ry="2.5" style="stroke:#555555;stroke-width:0.5;" width="119.3996" x="576.5" y="483.0679"/><text fill="#000000" font-family="Helvetica" font-size="14" lengthAdjust="spacing" textLength="99.3996" x="586.5" y="508.0339">wg-quick@wg0</text></g><!--entity SMB--><g class="entity" data-qualified-name="Tunnel Access.SMB" data-source-line="45" id="ent0024"><rect fill="#F5F5F5" height="58.1358" rx="2.5" ry="2.5" style="stroke:#555555;stroke-width:0.5;" width="121.8776" x="671" y="626.5679"/><text fill="#000000" font-family="Helvetica" font-size="14" lengthAdjust="spacing" textLength="29.4839" x="681" y="651.5339">SMB</text><text fill="#000000" font-family="Helvetica" font-size="14" lengthAdjust="spacing" textLength="101.8776" x="681" y="670.6018">smb://10.99.0.1</text></g><!--entity HTTPS--><g class="entity" data-qualified-name="Tunnel Access.HTTPS" data-source-line="46" id="ent0025"><rect fill="#F5F5F5" height="58.1358" rx="2.5" ry="2.5" style="stroke:#555555;stroke-width:0.5;" width="201.0613" x="286.5" y="626.5679"/><text fill="#000000" font-family="Helvetica" font-size="14" lengthAdjust="spacing" textLength="42.0978" x="296.5" y="651.5339">HTTPS</text><text fill="#000000" font-family="Helvetica" font-size="14" lengthAdjust="spacing" textLength="181.0613" x="296.5" y="670.6018">https://&lt;private-hostname&gt;</text></g><!--entity SSH--><g class="entity" data-qualified-name="Tunnel Access.SSH" data-source-line="47" id="ent0026"><rect fill="#F5F5F5" height="58.1358" rx="2.5" ry="2.5" style="stroke:#555555;stroke-width:0.5;" width="146.6295" x="505.5" y="626.5679"/><text fill="#000000" font-family="Helvetica" font-size="14" lengthAdjust="spacing" textLength="25.7459" x="515.5" y="651.5339">SSH</text><text fill="#000000" font-family="Helvetica" font-size="14" lengthAdjust="spacing" textLength="126.6295" x="515.5" y="670.6018">ssh user@10.99.0.1</text></g><g class="link" data-entity-1="ent0003" data-entity-2="ent0014" data-link-type="dependency" id="lnk27"><polygon fill="#555555" points="424.2424,215.7943,420.3071,206.7658,420.5552,212.4172,414.9038,212.6653,424.2424,215.7943" style="stroke:#555555;stroke-width:1;"/><path d="M166.4637,149.6853 C174.9324,152.711 183.595,155.4525 192,157.5679 C267.4402,176.5555 293.675,147.9175 366,176.5679 C388.2505,185.3821 405.2444,198.3943 419.8178,211.7418" fill="none" style="stroke:#555555;stroke-width:1;"/></g><g class="link" data-entity-1="ent0004" data-entity-2="ent0014" data-link-type="dependency" id="lnk28"><polygon fill="#555555" points="419.5856,215.8106,414.9611,207.115,415.6473,212.7301,410.0322,213.4163,419.5856,215.8106" style="stroke:#555555;stroke-width:1;"/><path d="M322.4212,149.6237 C336.7157,157.9645 352.151,167.3455 366,176.5679 C384.527,188.9055 399.8606,200.3818 414.8597,212.114" fill="none" style="stroke:#555555;stroke-width:1;"/></g><g class="link" data-entity-1="ent0006" data-entity-2="ent0014" data-link-type="dependency" id="lnk29"><polygon fill="#555555" points="467.5672,216.0079,477.2194,214.0499,471.6413,213.1094,472.5819,207.5313,467.5672,216.0079" style="stroke:#555555;stroke-width:1;"/><path d="M664.5139,140.1239 C647.9336,146.0485 629.2719,152.4024 612,157.5679 C578.2293,167.6678 567.4358,162.7697 535,176.5679 C510.6756,186.9155 490.3303,199.8134 472.4562,212.5297" fill="none" style="stroke:#555555;stroke-width:1;"/></g><g class="link" data-entity-1="ent0008" data-entity-2="ent0014" data-link-type="dependency" id="lnk30"><polygon fill="#555555" points="465.1329,215.8578,474.6966,213.5052,469.0846,212.7945,469.7952,207.1825,465.1329,215.8578" style="stroke:#555555;stroke-width:1;"/><path d="M1131.5081,140.1606 C1114.0371,146.9294 1093.3867,153.8315 1074,157.5679 C1015.1568,168.9088 592.2696,158.9234 535,176.5679 C508.8357,184.629 487.5376,198.4897 469.8749,212.1818" fill="none" style="stroke:#555555;stroke-width:1;"/></g><g class="link" data-entity-1="ent0014" data-entity-2="ent0011" data-link-type="dependency" id="lnk31"><polygon fill="#555555" points="546.9733,235.5679,537.9733,231.5679,541.9733,235.5679,537.9733,239.5679,546.9733,235.5679" style="stroke:#555555;stroke-width:1;"/><path d="M511.8672,235.5679 C523.5692,235.5679 529.2713,235.5679 540.9733,235.5679" fill="none" style="stroke:#555555;stroke-width:1;"/></g><g class="link" data-entity-1="ent0014" data-entity-2="ent0012" data-link-type="dependency" id="lnk32"><polygon fill="#555555" points="869.6768,215.7795,864.4361,207.4407,865.5262,212.9916,859.9754,214.0817,869.6768,215.7795" style="stroke:#555555;stroke-width:1;"/><path d="M463.8442,215.8464 C482.988,199.1939 513.0122,176.585 544,167.0679 C567.8983,159.7282 744.7507,160.9873 769,167.0679 C806.4045,176.4472 839.8389,195.7375 864.6961,212.434" fill="none" style="stroke:#555555;stroke-width:1;"/></g><g class="link" data-entity-1="ent0011" data-entity-2="ent0015" data-link-type="dependency" id="lnk33"><polygon fill="#555555" points="320.1877,206.3463,329.3041,202.6192,323.6485,202.7375,323.5301,197.0819,320.1877,206.3463" style="stroke:#555555;stroke-width:1;"/><path d="M627.4008,215.9189 C599.4095,199.1911 556.2054,176.4278 515,167.0679 C484.6617,160.1765 404.1477,156.1908 375,167.0679 C353.7406,175.0013 338.5602,187.1885 324.3406,202.0158" fill="none" style="stroke:#555555;stroke-width:1;"/></g><g class="link" data-entity-1="ent0012" data-entity-2="ent0015" data-link-type="dependency" id="lnk34"><polygon fill="#555555" points="320.1877,206.3463,329.3041,202.6192,323.6485,202.7375,323.5301,197.0819,320.1877,206.3463" style="stroke:#555555;stroke-width:1;"/><path d="M869.6768,215.7795 C844.8197,199.0831 806.4045,176.4472 769,167.0679 C747.7684,161.744 395.5075,159.4151 375,167.0679 C353.7406,175.0013 338.5602,187.1885 324.3406,202.0158" fill="none" style="stroke:#555555;stroke-width:1;"/></g><g class="link" data-entity-1="ent0015" data-entity-2="ent0016" data-link-type="dependency" id="lnk35"><polygon fill="#555555" points="398.5409,301.4328,393.0733,293.241,394.3154,298.7598,388.7966,300.0019,398.5409,301.4328" style="stroke:#555555;stroke-width:1;"/><path d="M340.3213,264.6045 C359.495,276.7333 376.344,287.3916 393.4703,298.2252" fill="none" style="stroke:#555555;stroke-width:1;"/></g><g class="link" data-entity-1="ent0011" data-entity-2="ent0016" data-link-type="dependency" id="lnk36"><polygon fill="#555555" points="479.2989,301.4442,489.1237,302.1328,483.9988,299.7379,486.3937,294.613,479.2989,301.4442" style="stroke:#555555;stroke-width:1;"/><path d="M606.9555,255.0993 C568.973,268.8886 522.9821,285.5853 484.9388,299.3967" fill="none" style="stroke:#555555;stroke-width:1;"/></g><g class="link" data-entity-1="ent0012" data-entity-2="ent0016" data-link-type="dependency" id="lnk37"><polygon fill="#555555" points="511.7531,308.5607,521.2297,311.2431,516.7025,307.8512,520.0944,303.3241,511.7531,308.5607" style="stroke:#555555;stroke-width:1;"/><path d="M821.9582,255.1119 C807.4164,258.4538 792.2652,261.7626 778,264.5679 C687.4497,282.375 588.7893,297.5174 517.6924,307.7093" fill="none" style="stroke:#555555;stroke-width:1;"/></g><g class="link" data-entity-1="ent0016" data-entity-2="ent0017" data-link-type="dependency" id="lnk38"><polygon fill="#555555" points="428,377.4006,432,368.4006,428,372.4006,424,368.4006,428,377.4006" style="stroke:#555555;stroke-width:1;"/><path d="M428,340.7412 C428,351.9591 428,360.1838 428,371.4006" fill="none" style="stroke:#555555;stroke-width:1;"/></g><g class="link" data-entity-1="ent0017" data-entity-2="ent0019" data-link-type="dependency" id="lnk39"><polygon fill="#555555" points="200.9311,482.9243,210.6721,481.471,205.1505,480.2416,206.3798,474.7199,200.9311,482.9243" style="stroke:#555555;stroke-width:1;"/><path d="M370.897,411.3208 C341.1158,419.1027 304.4397,430.069 273,443.5679 C247.5502,454.495 225.5429,467.2763 205.9943,479.7051" fill="none" style="stroke:#555555;stroke-width:1;"/></g><g class="link" data-entity-1="ent0017" data-entity-2="ent0020" data-link-type="dependency" id="lnk40"><polygon fill="#555555" points="374.815,473.474,383.2711,468.4248,377.6969,469.3881,376.7336,463.8138,374.815,473.474" style="stroke:#555555;stroke-width:1;"/><path d="M414.9491,416.5716 C403.7942,432.3871 391.0304,450.4837 378.2733,468.5709" fill="none" style="stroke:#555555;stroke-width:1;"/></g><g class="link" data-entity-1="ent0017" data-entity-2="ent0021" data-link-type="dependency" id="lnk41"><polygon fill="#555555" points="481.9135,473.474,479.9329,463.8264,479.0055,469.4067,473.4252,468.4792,481.9135,473.474" style="stroke:#555555;stroke-width:1;"/><path d="M441.2297,416.5716 C452.5374,432.3871 465.492,450.506 478.4239,468.5932" fill="none" style="stroke:#555555;stroke-width:1;"/></g><g class="link" data-entity-1="ent0017" data-entity-2="ent0022" data-link-type="dependency" id="lnk42"><polygon fill="#555555" points="617.8479,482.9235,614.1201,473.8073,614.2389,479.4629,608.5833,479.5817,617.8479,482.9235" style="stroke:#555555;stroke-width:1;"/><path d="M485.1677,411.4492 C511.107,418.8411 541.5931,429.4339 567,443.5679 C586.0088,454.1426 600.3867,466.1805 613.5171,478.7708" fill="none" style="stroke:#555555;stroke-width:1;"/></g><g class="link" data-entity-1="ent0022" data-entity-2="ent0024" data-link-type="dependency" id="lnk43"><polygon fill="#555555" points="714.0768,626.3763,712.6238,616.6352,711.3943,622.1568,705.8726,620.9273,714.0768,626.3763" style="stroke:#555555;stroke-width:1;"/><path d="M647.7715,522.0835 C664.344,548.1506 691.4723,590.8212 710.8578,621.3129" fill="none" style="stroke:#555555;stroke-width:1;"/></g><g class="link" data-entity-1="ent0022" data-entity-2="ent0025" data-link-type="dependency" id="lnk44"><polygon fill="#555555" points="433.4882,626.3763,443.2579,625.1297,437.7635,623.7836,439.1096,618.2893,433.4882,626.3763" style="stroke:#555555;stroke-width:1;"/><path d="M605.4677,522.0835 C562.4829,548.1506 488.8996,592.7734 438.6186,623.2651" fill="none" style="stroke:#555555;stroke-width:1;"/></g><g class="link" data-entity-1="ent0022" data-entity-2="ent0026" data-link-type="dependency" id="lnk45"><polygon fill="#555555" points="589.6419,626.3763,596.5626,619.3688,591.4077,621.6985,589.0781,616.5436,589.6419,626.3763" style="stroke:#555555;stroke-width:1;"/><path d="M629.0107,522.0835 C619.1708,548.1506 603.271,590.2712 591.7608,620.7629" fill="none" style="stroke:#555555;stroke-width:1;"/></g><g class="link" data-entity-1="ent0020" data-entity-2="ent0025" data-link-type="dependency" id="lnk46"><polygon fill="#555555" points="381.0337,626.4143,383.0809,616.7805,379.9971,621.5229,375.2547,618.4391,381.0337,626.4143" style="stroke:#555555;stroke-width:1;"/><path d="M360.944,531.616 C366.6736,558.6527 374.0526,593.4725 379.7898,620.5446" fill="none" style="stroke:#555555;stroke-width:1;stroke-dasharray:7,7;"/><text fill="#000000" font-family="Helvetica" font-size="13" lengthAdjust="spacing" textLength="50.31" x="402.6715" y="565.4649">resolves</text><text fill="#000000" font-family="Helvetica" font-size="13" lengthAdjust="spacing" textLength="107.6531" x="374" y="583.1709">private hostname</text></g><?plantuml-src XLNRRXit47tVhvWcBpQANJa5ZDP1OCINE0fY2mBMI1xYeg2venLXBicGN2jgKQ0VqI_ibtJ8fIIkOYFIWrOpPyuSSWwNFndBsew1P6lTUt0TUgPOuHw4Cioo3XfSi5xwAwtyZ7K8KvIFw0NFCLntHYjKllPhYM2H4qahCOFSC_xGMjshva9BRU7bLVnaY3DhzIebZ-CdIrviEfnhsw3zCUoxTiVXcq5dskFv4w8kt_swZyfRNfsS_VRBSL5uuMcbRgcjBxcml1SU_lldN_WiBBxlcMtWqtm6DVhU05CDALCBqVQMUQ5LKHZgp5g45tEh5uAOQfIqQvHx0NyL05zMnDC6djBqzrBmyj6eEtMmrCwNMidruU_07CnZZZgDIoHJ6Hv-XkkpsL1mpLH0_vqf69J1BNP6Ce-EgdWCJRQ4ayEDglQeT6WVqLRuZL41LW4RgUiOVpU4zy19q7D5f2ghurBG14k3JtMvYCbdqC-s6QgoDla6N6lEP1gGWuDMUD4gRR5vOjLlp32lqqg6gkyM4eBxgfwjIQfYJIx8SIkCTnCNtFF7TWgLMoP1PIcKy6MaAuTXkSZuWSArHnD07t4Dxr7XO3cQwgg55jK39kzGdj81EPUCur9BSZbyOb8qiIA2Tdy3y8Dodab9i0EhjJzCFLDmj8PfC5wzTXwx97g2dcUMeatTxSJdDcn_G3NATSnz1MSahV1oLj-fM9ZYLJE91PVAtT3VKB4WoXK9QE1FElgqJczxQjiCwgvITfXZ-RKN_E4jzKvjmzW47_lXjbSA9PnnZiubyVND-Hqfk7yzcRmwgavEggFgrJ3tc_EGdzxUpadgqdlZ24CZ5uzqcCfm_XIzDayZEA8YNJqbEhU4ddprTe-ndWOvswCDPNcw6-nmWCUnqSaRfqR7PPpQFCHeRjzH8lTe1egvvA0CaeU7dnZ9NBJFaQNsURBKxZ6jOMEvdID3FDbe7DnOPHpT-cAVOUE8xTEmFpJcSMIOvHwAHfVQGLKb3Boc2z5fkZNfrPfy0HjV58MY6mRkjVUw0xs85026lE-yDh0IKW9-yqXNo91YqPPWcFTebGEXw8esVba4I20h_WS0?></g></svg>
