<?xml version="1.0" encoding="UTF-8"?>
<!DOCTYPE svg PUBLIC "-//W3C//DTD SVG 1.1//EN" "http://www.w3.org/Graphics/SVG/1.1/DTD/svg11.dtd">
<svg xmlns="http://www.w3.org/2000/svg" xmlns:xlink="http://www.w3.org/1999/xlink" version="1.1" width="1122px" height="1101px" viewBox="-0.5 -0.5 1122 1101"><defs/><g><g data-cell-id="0"><g data-cell-id="1"><g data-cell-id="10"><g><path d="M 0 62 L 0 39 L 320 39 L 320 62" fill="#dae8fc" stroke="#6c8ebf" stroke-miterlimit="10" pointer-events="all"/><path d="M 0 62 L 0 264 L 320 264 L 320 62" fill="none" stroke="#6c8ebf" stroke-miterlimit="10" pointer-events="none"/><path d="M 0 62 L 320 62" fill="none" stroke="#6c8ebf" stroke-miterlimit="10" pointer-events="none"/></g><g><g fill="rgb(0, 0, 0)" font-family="&quot;Helvetica&quot;" font-weight="bold" text-anchor="middle" font-size="12px"><text x="159.5" y="55">Profile Selection</text></g></g><g data-cell-id="11"><g><rect x="20" y="129" width="130" height="60" rx="9" ry="9" fill="#dae8fc" stroke="#6c8ebf" pointer-events="all"/></g><g><g fill="rgb(0, 0, 0)" font-family="&quot;Helvetica&quot;" text-anchor="middle" font-size="12px"><text x="84.5" y="156.5">wireguard-public-vpn</text><text x="84.5" y="170.5">(host-only)</text></g></g></g><g data-cell-id="12"><g><rect x="170" y="129" width="130" height="60" rx="9" ry="9" fill="#dae8fc" stroke="#6c8ebf" pointer-events="all"/></g><g><g fill="rgb(0, 0, 0)" font-family="&quot;Helvetica&quot;" text-anchor="middle" font-size="12px"><text x="234.5" y="156.5">wireguard-lan-vpn</text><text x="234.5" y="170.5">(host + full LAN)</text></g></g></g></g><g data-cell-id="20"><g><path d="M 360 62 L 360 39 L 720 39 L 720 62" fill="#f5f5f5" stroke="#555555" stroke-miterlimit="10" pointer-events="all"/><path d="M 360 62 L 360 254 L 720 254 L 720 62" fill="none" stroke="#555555" stroke-miterlimit="10" pointer-events="none"/><path d="M 360 62 L 720 62" fill="none" stroke="#555555" stroke-miterlimit="10" pointer-events="none"/></g><g><g fill="rgb(0, 0, 0)" font-family="&quot;Helvetica&quot;" font-weight="bold" text-anchor="middle" font-size="12px"><text x="539.5" y="55">Config Templates (config/wireguard/)</text></g></g><g data-cell-id="21"><g><rect x="380" y="79" width="150" height="225" rx="22.5" ry="22.5" fill="#f5f5f5" stroke="#555555" pointer-events="all"/></g><g><g fill="rgb(0, 0, 0)" font-family="&quot;Helvetica&quot;" text-anchor="middle" font-size="12px"><text x="454.5" y="189">wg0-server.example.conf</text><text x="454.5" y="203">wg0-server.lan-vpn.example.conf</text></g></g></g><g data-cell-id="22"><g><rect x="550" y="79" width="150" height="225" rx="22.5" ry="22.5" fill="#f5f5f5" stroke="#555555" pointer-events="all"/></g><g><g fill="rgb(0, 0, 0)" font-family="&quot;Helvetica&quot;" text-anchor="middle" font-size="12px"><text x="624.5" y="189">client-peer.example.conf</text><text x="624.5" y="203">client-peer.lan-vpn.example.conf</text></g></g></g></g><g data-cell-id="30"><g><path d="M 760 62 L 760 39 L 1120 39 L 1120 62" fill="#ffe6cc" stroke="#d79b00" stroke-miterlimit="10" pointer-events="all"/><path d="M 760 62 L 760 159 L 1120 159 L 1120 62" fill="none" stroke="#d79b00" stroke-miterlimit="10" pointer-events="none"/><path d="M 760 62 L 1120 62" fill="none" stroke="#d79b00" stroke-miterlimit="10" pointer-events="none"/></g><g><g fill="rgb(0, 0, 0)" font-family="&quot;Helvetica&quot;" font-weight="bold" text-anchor="middle" font-size="12px"><text x="939.5" y="55">Local Configs (gitignored *.local.conf)</text></g></g><g data-cell-id="31"><g><rect x="780" y="79" width="150" height="225" rx="22.5" ry="22.5" fill="#ffe6cc" stroke="#d79b00" pointer-events="all"/></g><g><g fill="rgb(0, 0, 0)" font-family="&quot;Helvetica&quot;" text-anchor="middle" font-size="12px"><text x="854.5" y="196">wg0-server.&lt;profile&gt;.local.conf</text></g></g></g><g data-cell-id="32"><g><rect x="950" y="79" width="150" height="225" rx="22.5" ry="22.5" fill="#ffe6cc" stroke="#d79b00" pointer-events="all"/></g><g><g fill="rgb(0, 0, 0)" font-family="&quot;Helvetica&quot;" text-anchor="middle" font-size="12px"><text x="1024.5" y="196">client-peer.&lt;profile&gt;.local.conf</text></g></g></g></g><g data-cell-id="40"><g><path d="M 360 337 L 360 314 L 1120 314 L 1120 337" fill="#d5e8d4" stroke="#82b366" stroke-miterlimit="10" pointer-events="all"/><path d="M 360 337 L 360 474 L 1120 474 L 1120 337" fill="none" stroke="#82b366" stroke-miterlimit="10" pointer-events="none"/><path d="M 360 337 L 1120 337" fill="none" stroke="#82b366" stroke-miterlimit="10" pointer-events="none"/></g><g><g fill="rgb(0, 0, 0)" font-family="&quot;Helvetica&quot;" font-weight="bold" text-anchor="middle" font-size="12px"><text x="739.5" y="330">scripts/setup_wireguard.sh</text></g></g><g data-cell-id="41"><g><rect x="380" y="594" width="140" height="50" rx="7.5" ry="7.5" fill="#d5e8d4" stroke="#82b366" pointer-events="all"/></g><g><g fill="rgb(0, 0, 0)" font-family="&quot;Helvetica&quot;" text-anchor="middle" font-size="12px"><text x="449.5" y="623.5">--init-local-configs</text></g></g></g><g data-cell-id="42"><g><rect x="550" y="489" width="140" height="50" rx="7.5" ry="7.5" fill="#d5e8d4" stroke="#82b366" pointer-events="all"/></g><g><g fill="rgb(0, 0, 0)" font-family="&quot;Helvetica&quot;" text-anchor="middle" font-size="12px"><text x="619.5" y="511.5">Key Generation</text><text x="619.5" y="525.5">(wg genkey)</text></g></g></g><g data-cell-id="43"><g><rect x="720" y="364" width="140" height="50" rx="7.5" ry="7.5" fill="#d5e8d4" stroke="#82b366" pointer-events="all"/></g><g><g fill="rgb(0, 0, 0)" font-family="&quot;Helvetica&quot;" text-anchor="middle" font-size="12px"><text x="789.5" y="393.5">Placeholder Validation</text></g></g></g><g data-cell-id="44"><g><rect x="890" y="479" width="140" height="50" rx="7.5" ry="7.5" fill="#d5e8d4" stroke="#82b366" pointer-events="all"/></g><g><g fill="rgb(0, 0, 0)" font-family="&quot;Helvetica&quot;" text-anchor="middle" font-size="12px"><text x="959.5" y="508.5">Installer (root)</text></g></g></g><g data-cell-id="78"><g><path d="M 620 489 L 620 475 Q 620 465 630 465 L 780 465 Q 790 465 790 455 L 790 420.37" fill="none" stroke="rgb(0, 0, 0)" stroke-miterlimit="10" pointer-events="stroke"/><path d="M 790 415.12 L 793.5 422.12 L 790 420.37 L 786.5 422.12 Z" fill="rgb(0, 0, 0)" stroke="rgb(0, 0, 0)" stroke-miterlimit="10" pointer-events="all"/></g></g><g data-cell-id="79"><g><path d="M 790 414 L 790 428 Q 790 438 800 438 L 838 438 Q 848 438 848 446.5 L 848 450.75 Q 848 455 858 455 L 950 455 Q 960 455 960 463.82 L 960 472.63" fill="none" stroke="rgb(0, 0, 0)" stroke-miterlimit="10" pointer-events="stroke"/><path d="M 960 477.88 L 956.5 470.88 L 960 472.63 L 963.5 470.88 Z" fill="rgb(0, 0, 0)" stroke="rgb(0, 0, 0)" stroke-miterlimit="10" pointer-events="all"/></g></g></g><g data-cell-id="50"><g><path d="M 360 567 L 360 544 L 1120 544 L 1120 567" fill="#e1d5e7" stroke="#9673a6" stroke-miterlimit="10" pointer-events="all"/><path d="M 360 567 L 360 704 L 1120 704 L 1120 567" fill="none" stroke="#9673a6" stroke-miterlimit="10" pointer-events="none"/><path d="M 360 567 L 1120 567" fill="none" stroke="#9673a6" stroke-miterlimit="10" pointer-events="none"/></g><g><g fill="rgb(0, 0, 0)" font-family="&quot;Helvetica&quot;" font-weight="bold" text-anchor="middle" font-size="12px"><text x="739.5" y="560">Host System</text></g></g><g data-cell-id="51"><g><rect x="380" y="594" width="160" height="215" rx="24" ry="24" fill="#e1d5e7" stroke="#9673a6" pointer-events="all"/></g><g><g fill="rgb(0, 0, 0)" font-family="&quot;Helvetica&quot;" text-anchor="middle" font-size="12px"><text x="459.5" y="706">/etc/wireguard/wg0.conf</text></g></g></g><g data-cell-id="52"><g><rect x="560" y="1049" width="160" height="50" rx="7.5" ry="7.5" fill="#e1d5e7" stroke="#9673a6" pointer-events="all"/></g><g><g fill="rgb(0, 0, 0)" font-family="&quot;Helvetica&quot;" text-anchor="middle" font-size="12px"><text x="639.5" y="1071.5">dnsmasq split-DNS</text><text x="639.5" y="1085.5">/etc/dnsmasq.d/</text></g></g></g><g data-cell-id="53"><g><rect x="740" y="594" width="160" height="50" rx="7.5" ry="7.5" fill="#e1d5e7" stroke="#9673a6" pointer-events="all"/></g><g><g fill="rgb(0, 0, 0)" font-family="&quot;Helvetica&quot;" text-anchor="middle" font-size="12px"><text x="819.5" y="616.5">firewalld zone</text><text x="819.5" y="630.5">(trusted)</text></g></g></g><g data-cell-id="54"><g><rect x="920" y="709" width="160" height="50" rx="7.5" ry="7.5" fill="#e1d5e7" stroke="#9673a6" pointer-events="all"/></g><g><g fill="rgb(0, 0, 0)" font-family="&quot;Helvetica&quot;" text-anchor="middle" font-size="12px"><text x="999.5" y="738.5">wg-quick@wg0</text></g></g></g></g><g data-cell-id="60"><g><path d="M 360 807 L 360 784 L 1120 784 L 1120 807" fill="#fff2cc" stroke="#d6b656" stroke-miterlimit="10" pointer-events="all"/><path d="M 360 807 L 360 904 L 1120 904 L 1120 807" fill="none" stroke="#d6b656" stroke-miterlimit="10" pointer-events="none"/><path d="M 360 807 L 1120 807" fill="none" stroke="#d6b656" stroke-miterlimit="10" pointer-events="none"/></g><g><g fill="rgb(0, 0, 0)" font-family="&quot;Helvetica&quot;" font-weight="bold" text-anchor="middle" font-size="12px"><text x="739.5" y="800">Tunnel Access</text></g></g><g data-cell-id="61"><g><rect x="420" y="874" width="180" height="50" rx="7.5" ry="7.5" fill="#fff2cc" stroke="#d6b656" pointer-events="all"/></g><g><g fill="rgb(0, 0, 0)" font-family="&quot;Helvetica&quot;" text-anchor="middle" font-size="12px"><text x="509.5" y="896.5">SMB</text><text x="509.5" y="910.5">smb://10.99.0.1</text></g></g></g><g data-cell-id="62"><g><rect x="650" y="824" width="180" height="50" rx="7.5" ry="7.5" fill="#fff2cc" stroke="#d6b656" pointer-events="all"/></g><g><g fill="rgb(0, 0, 0)" font-family="&quot;Helvetica&quot;" text-anchor="middle" font-size="12px"><text x="739.5" y="846.5">HTTPS</text><text x="739.5" y="860.5">https://host.vpn.internal</text></g></g></g><g data-cell-id="63"><g><rect x="880" y="874" width="180" height="50" rx="7.5" ry="7.5" fill="#fff2cc" stroke="#d6b656" pointer-events="all"/></g><g><g fill="rgb(0, 0, 0)" font-family="&quot;Helvetica&quot;" text-anchor="middle" font-size="12px"><text x="969.5" y="896.5">SSH</text><text x="969.5" y="910.5">ssh user@10.99.0.1</text></g></g></g></g><g data-cell-id="70"><g><path d="M 32 189 L 32 245 Q 32 255 42 255 L 440 255 Q 450 255 450 265 L 450 587.63" fill="none" stroke="rgb(0, 0, 0)" stroke-miterlimit="10" pointer-events="stroke"/><path d="M 450 592.88 L 446.5 585.88 L 450 587.63 L 453.5 585.88 Z" fill="rgb(0, 0, 0)" stroke="rgb(0, 0, 0)" stroke-miterlimit="10" pointer-events="all"/></g></g><g data-cell-id="71"><g><path d="M 170 173 L 60 173 Q 50 173 50 183 L 50 250 C 56.5 250 56.5 260 50 260 L 50 260 L 50 609 Q 50 619 60 619 L 373.63 619" fill="none" stroke="rgb(0, 0, 0)" stroke-miterlimit="10" pointer-events="stroke"/><path d="M 378.88 619 L 371.88 622.5 L 373.63 619 L 371.88 615.5 Z" fill="rgb(0, 0, 0)" stroke="rgb(0, 0, 0)" stroke-miterlimit="10" pointer-events="all"/></g></g><g data-cell-id="72"><g><path d="M 455 304 L 455 439 Q 455 449 452.5 449 L 451.25 449 Q 450 449 450 459 L 450 587.63" fill="none" stroke="rgb(0, 0, 0)" stroke-miterlimit="10" pointer-events="stroke"/><path d="M 450 592.88 L 446.5 585.88 L 450 587.63 L 453.5 585.88 Z" fill="rgb(0, 0, 0)" stroke="rgb(0, 0, 0)" stroke-miterlimit="10" pointer-events="all"/></g></g><g data-cell-id="73"><g><path d="M 550 191.5 L 460 191.5 Q 450 191.5 450 201.5 L 450 587.63" fill="none" stroke="rgb(0, 0, 0)" stroke-miterlimit="10" pointer-events="stroke"/><path d="M 450 592.88 L 446.5 585.88 L 450 587.63 L 453.5 585.88 Z" fill="rgb(0, 0, 0)" stroke="rgb(0, 0, 0)" stroke-miterlimit="10" pointer-events="all"/></g></g><g data-cell-id="74"><g><path d="M 520 619 L 845 619 Q 855 619 855 609 L 855 460 C 861.5 460 861.5 450 855 450 L 855 450 L 855 310.37" fill="none" stroke="rgb(0, 0, 0)" stroke-miterlimit="10" pointer-events="stroke"/><path d="M 855 305.12 L 858.5 312.12 L 855 310.37 L 851.5 312.12 Z" fill="rgb(0, 0, 0)" stroke="rgb(0, 0, 0)" stroke-miterlimit="10" pointer-events="all"/></g></g><g data-cell-id="75"><g><path d="M 520 619 L 1015 619 Q 1025 619 1025 609 L 1025 310.37" fill="none" stroke="rgb(0, 0, 0)" stroke-miterlimit="10" pointer-events="stroke"/><path d="M 1025 305.12 L 1028.5 312.12 L 1025 310.37 L 1021.5 312.12 Z" fill="rgb(0, 0, 0)" stroke="rgb(0, 0, 0)" stroke-miterlimit="10" pointer-events="all"/></g></g><g data-cell-id="76"><g><path d="M 780 191.5 L 630 191.5 Q 620 191.5 620 201.5 L 620 482.63" fill="none" stroke="rgb(0, 0, 0)" stroke-miterlimit="10" pointer-events="stroke"/><path d="M 620 487.88 L 616.5 480.88 L 620 482.63 L 623.5 480.88 Z" fill="rgb(0, 0, 0)" stroke="rgb(0, 0, 0)" stroke-miterlimit="10" pointer-events="all"/></g></g><g data-cell-id="77"><g><path d="M 950 191.5 L 630 191.5 Q 620 191.5 620 201.5 L 620 482.63" fill="none" stroke="rgb(0, 0, 0)" stroke-miterlimit="10" pointer-events="stroke"/><path d="M 620 487.88 L 616.5 480.88 L 620 482.63 L 623.5 480.88 Z" fill="rgb(0, 0, 0)" stroke="rgb(0, 0, 0)" stroke-miterlimit="10" pointer-events="all"/></g></g><g data-cell-id="80"><g><path d="M 960 479 L 960 199 Q 960 189 950 189 L 476 189 Q 466 189 466 179 L 466 17 Q 466 7 456 7 L 174 7 Q 164 7 164 17 L 164 146.5 Q 164 156.5 174 156.5 L 450 156.5 Q 460 156.5 460 166.5 L 460 186.5 C 466.5 186.5 466.5 196.5 460 196.5 L 460 196.5 L 460 587.63" fill="none" stroke="rgb(0, 0, 0)" stroke-miterlimit="10" pointer-events="stroke"/><path d="M 460 592.88 L 456.5 585.88 L 460 587.63 L 463.5 585.88 Z" fill="rgb(0, 0, 0)" stroke="rgb(0, 0, 0)" stroke-miterlimit="10" pointer-events="all"/></g></g><g data-cell-id="81"><g><path d="M 960 479 L 960 248 Q 960 238 950 238 L 630 238 Q 620 238 610 238 L 465 238 C 465 231.5 455 231.5 455 238 L 455 238 L 455 238 C 455 231.5 445 231.5 445 238 L 445 238 L 338 238 Q 328 238 328 244 L 328 250 C 334.5 250 334.5 260 328 260 L 328 260 L 328 470 Q 328 480 338 480 L 440 480 Q 450 480 452.5 480 L 455 480 C 455 473.5 465 473.5 465 480 L 465 480 L 615 480 C 615 473.5 625 473.5 625 480 L 625 480 L 632.5 480 Q 640 480 640 490 L 640 614 C 646.5 614 646.5 624 640 624 L 640 624 L 640 1042.63" fill="none" stroke="rgb(0, 0, 0)" stroke-miterlimit="10" pointer-events="stroke"/><path d="M 640 1047.88 L 636.5 1040.88 L 640 1042.63 L 643.5 1040.88 Z" fill="rgb(0, 0, 0)" stroke="rgb(0, 0, 0)" stroke-miterlimit="10" pointer-events="all"/></g></g><g data-cell-id="82"><g><path d="M 960 479 L 960 150 Q 960 140 950 140 L 471 140 C 471 133.5 461 133.5 461 140 L 461 140 L 430 140 Q 420 140 420 145.75 L 420 151.5 C 426.5 151.5 426.5 161.5 420 161.5 L 420 161.5 L 420 233 C 426.5 233 426.5 243 420 243 L 420 243 L 420 250 C 426.5 250 426.5 260 420 260 L 420 260 L 420 475 C 426.5 475 426.5 485 420 485 L 420 485 L 420 609 Q 420 619 430 619 L 635 619 C 635 612.5 645 612.5 645 619 L 645 619 L 733.63 619" fill="none" stroke="rgb(0, 0, 0)" stroke-miterlimit="10" pointer-events="stroke"/><path d="M 738.88 619 L 731.88 622.5 L 733.63 619 L 731.88 615.5 Z" fill="rgb(0, 0, 0)" stroke="rgb(0, 0, 0)" stroke-miterlimit="10" pointer-events="all"/></g></g><g data-cell-id="83"><g><path d="M 960 529 L 960 609 Q 960 619 970 619 L 990 619 Q 1000 619 1000 629 L 1000 702.63" fill="none" stroke="rgb(0, 0, 0)" stroke-miterlimit="10" pointer-events="stroke"/><path d="M 1000 707.88 L 996.5 700.88 L 1000 702.63 L 1003.5 700.88 Z" fill="rgb(0, 0, 0)" stroke="rgb(0, 0, 0)" stroke-miterlimit="10" pointer-events="all"/></g></g><g data-cell-id="84"><g><path d="M 1000 709 L 1000 624 C 1006.5 624 1006.5 614 1000 614 L 1000 614 L 1000 214 Q 1000 204 990 204 L 970 204 Q 960 204 950 204 L 625 204 C 625 197.5 615 197.5 615 204 L 615 204 L 506 204 Q 496 204 496 214 L 496 233 C 502.5 233 502.5 243 496 243 L 496 243 L 496 475 C 502.5 475 502.5 485 496 485 L 496 485 L 496 614 C 502.5 614 502.5 624 496 624 L 496 624 L 496 726 Q 496 736 486 736 L 234 736 Q 224 736 224 726 L 224 624 C 230.5 624 230.5 614 224 614 L 224 614 L 224 260 C 230.5 260 230.5 250 224 250 L 224 250 L 224 161.5 C 230.5 161.5 230.5 151.5 224 151.5 L 224 151.5 L 224 124 Q 224 114 234 114 L 461 114 C 461 107.5 471 107.5 471 114 L 471 114 L 500 114 Q 510 114 510 124 L 510 135 C 516.5 135 516.5 145 510 145 L 510 145 L 510 179 Q 510 189 510 190.25 L 510 190.88 Q 510 191.5 510 201.5 L 510 233 C 516.5 233 516.5 243 510 243 L 510 243 L 510 475 C 516.5 475 516.5 485 510 485 L 510 485 L 510 614 C 516.5 614 516.5 624 510 624 L 510 624 L 510 867.63" fill="none" stroke="rgb(0, 0, 0)" stroke-miterlimit="10" pointer-events="stroke"/><path d="M 510 872.88 L 506.5 865.88 L 510 867.63 L 513.5 865.88 Z" fill="rgb(0, 0, 0)" stroke="rgb(0, 0, 0)" stroke-miterlimit="10" pointer-events="all"/></g></g><g data-cell-id="85"><g><path d="M 1000 709 L 1000 624 C 1006.5 624 1006.5 614 1000 614 L 1000 614 L 1000 184 Q 1000 174 990 174 L 965 174 C 965 167.5 955 167.5 955 174 L 955 174 L 515 174 C 515 167.5 505 167.5 505 174 L 505 174 L 500.5 174 Q 496 174 496 181.5 L 496 185.25 Q 496 189 496 190.25 L 496 190.88 Q 496 191.5 496 201.5 L 496 233 C 502.5 233 502.5 243 496 243 L 496 243 L 496 475 C 502.5 475 502.5 485 496 485 L 496 485 L 496 496 Q 496 506 486 506 L 465 506 C 465 499.5 455 499.5 455 506 L 455 506 L 454.5 506 Q 454 506 454 496 L 454 485 C 460.5 485 460.5 475 454 475 L 454 475 L 454 454 C 460.5 454 460.5 444 454 444 L 454 444 L 454 243 C 460.5 243 460.5 233 454 233 L 454 233 L 454 196.5 C 460.5 196.5 460.5 186.5 454 186.5 L 454 186.5 L 454 161.5 C 460.5 161.5 460.5 151.5 454 151.5 L 454 151.5 L 454 145 C 460.5 145 460.5 135 454 135 L 454 135 L 454 119 C 460.5 119 460.5 109 454 109 L 454 109 L 454 74 Q 454 64 457.5 64 L 461 64 C 461 57.5 471 57.5 471 64 L 471 64 L 730 64 Q 740 64 740 74 L 740 135 C 746.5 135 746.5 145 740 145 L 740 145 L 740 179 Q 740 189 740 190.25 L 740 190.88 Q 740 191.5 740 195.25 L 740 199 C 746.5 199 746.5 209 740 209 L 740 209 L 740 233 C 746.5 233 746.5 243 740 243 L 740 243 L 740 460 C 746.5 460 746.5 470 740 470 L 740 470 L 740 614 C 746.5 614 746.5 624 740 624 L 740 624 L 740 817.63" fill="none" stroke="rgb(0, 0, 0)" stroke-miterlimit="10" pointer-events="stroke"/><path d="M 740 822.88 L 736.5 815.88 L 740 817.63 L 743.5 815.88 Z" fill="rgb(0, 0, 0)" stroke="rgb(0, 0, 0)" stroke-miterlimit="10" pointer-events="all"/></g></g><g data-cell-id="86"><g><path d="M 1000 759 L 1000 806.5 Q 1000 816.5 990 816.5 L 980 816.5 Q 970 816.5 970 826.5 L 970 867.63" fill="none" stroke="rgb(0, 0, 0)" stroke-miterlimit="10" pointer-events="stroke"/><path d="M 970 872.88 L 966.5 865.88 L 970 867.63 L 973.5 865.88 Z" fill="rgb(0, 0, 0)" stroke="rgb(0, 0, 0)" stroke-miterlimit="10" pointer-events="all"/></g></g><g data-cell-id="87"><g><rect x="580" y="924" width="160" height="30" fill="none" stroke="none" pointer-events="all"/></g><g><g transform="translate(-0.5 -0.5)"><switch><foreignObject pointer-events="none" width="100%" height="100%" requiredFeatures="http://www.w3.org/TR/SVG11/feature#Extensibility" style="overflow: visible; text-align: left;"><div xmlns="http://www.w3.org/1999/xhtml" style="display: flex; align-items: unsafe flex-start; justify-content: unsafe center; width: 1px; height: 1px; padding-top: 931px; margin-left: 660px;"><div data-drawio-colors="color: rgb(0, 0, 0); " style="box-sizing: border-box; font-size: 0px; text-align: center;"><div style="display: inline-block; font-size: 12px; font-family: Helvetica; color: rgb(0, 0, 0); line-height: 1.2; pointer-events: all; font-style: italic; white-space: nowrap;">pit-stop extends SSH</div></div></div></foreignObject><text x="660" y="943" fill="rgb(0, 0, 0)" font-family="&quot;Helvetica&quot;" font-size="12px" text-anchor="middle" font-style="italic">pit-stop extends SSH</text></switch></g></g></g></g></g></g><switch><g requiredFeatures="http://www.w3.org/TR/SVG11/feature#Extensibility"/><a transform="translate(0,-5)" xlink:href="https://www.drawio.com/doc/faq/svg-export-text-problems" target="_blank"><text text-anchor="middle" font-size="10px" x="50%" y="100%">Text is not SVG - cannot display</text></a></switch></svg>
