<?plantuml 1.2026.2?><svg xmlns="http://www.w3.org/2000/svg" xmlns:xlink="http://www.w3.org/1999/xlink" contentStyleType="text/css" data-diagram-type="DESCRIPTION" height="1870px" preserveAspectRatio="none" style="width:445px;height:1870px;background:#FFFFFF;" version="1.1" viewBox="0 0 445 1870" width="445px" zoomAndPan="magnify"><title>short-circuit Shell Script Flow</title><defs/><g><g class="title" data-source-line="1"><text fill="#000000" font-family="Monospace" font-size="14" font-weight="bold" lengthAdjust="spacing" textLength="201.7673" x="114.8751" y="24.9659">short-circuit&#160;Shell&#160;Script&#160;Flow</text></g><!--entity shell_scripts_setup_wireguard_sh--><g class="entity" data-qualified-name="shell_scripts_setup_wireguard_sh" data-source-line="7" id="ent0002"><rect fill="#DBEAFE" height="77.2038" rx="2.5" ry="2.5" style="stroke:#181818;stroke-width:0.5;" width="198.4433" x="7" y="913.5159"/><text fill="#000000" font-family="Monospace" font-size="14" lengthAdjust="spacing" textLength="178.4433" x="17" y="938.4819">scripts/setup_wireguard.sh</text><text fill="#000000" font-family="Monospace" font-size="14" lengthAdjust="spacing" textLength="119.3915" x="17" y="957.5498">0&#160;local&#160;shell&#160;edges</text><text fill="#000000" font-family="Monospace" font-size="14" lengthAdjust="spacing" textLength="109.7596" x="17" y="976.6177">22&#160;external&#160;tools</text></g><!--entity tool_endpoint--><g class="entity" data-qualified-name="tool_endpoint" data-source-line="8" id="ent0003"><path d="M315.1303,54.1607 C319.2587,48.35 323.6223,46.6859 328.2697,53.6258 C331.8215,47.7834 337.2024,48.3876 340.6784,53.71 C343.7413,48.6085 348.7599,47.171 352.3127,53.1979 C355.485,48.6549 359.9091,48.141 363.2236,53.0334 C367.6323,46.0679 373.937,46.5316 377.0268,54.2714 C381.2041,48.2247 385.9632,49.2859 388.8271,55.5322 C396.7953,57.6056 400.1791,63.3095 393.6847,70.1793 C400.8925,76.9003 399.7686,85.8981 389.1056,88.0365 C386.3311,94.9573 381.6256,94.8274 377.1185,89.7705 C375.228,97.2219 368.523,98.319 363.7631,92.7031 C360.5461,99.3691 356.1393,99.398 351.1162,94.716 C346.8633,98.9357 342.1208,98.481 340.6738,91.9824 C335.2099,97.6668 330.8757,95.7944 327.9599,89.3183 C323.3714,95.621 319.0483,94.23 315.0493,88.6764 C305.9518,85.3084 304.6479,77.6299 312.5267,71.7343 C304.6007,65.5506 306.3218,57.865 315.1303,54.1607" fill="#FEF3C7" style="stroke:#181818;stroke-width:0.5;"/><text fill="#000000" font-family="Monospace" font-size="14" lengthAdjust="spacing" textLength="59.4438" x="321.23" y="75.5519">Endpoint</text></g><!--entity tool_nn--><g class="entity" data-qualified-name="tool_nn" data-source-line="9" id="ent0004"><path d="M331.7752,138.8919 C335.9981,127.1249 345.9205,127.5285 352.6592,136.3386 C359.5092,128.3911 368.223,129.032 372.9144,138.8058 C382.4499,142.765 381.648,148.0786 375.898,154.8758 C382.8687,162.0856 381.8267,168.4844 372.3058,172.2928 C370.4164,178.008 367.0998,178.8875 362.3704,175.3388 C361.3141,180.739 356.7355,182.2021 352.8252,178.2522 C347.5956,183.0851 343.471,181.7832 340.938,175.3955 C336.6745,178.091 333.3691,177.0917 331.7956,172.1678 C323.2964,169.346 320.6693,160.6182 327.7205,154.2582 C321.2906,146.9187 322.1632,141.9984 331.7752,138.8919" fill="#FEF3C7" style="stroke:#181818;stroke-width:0.5;"/><text fill="#000000" font-family="Monospace" font-size="14" lengthAdjust="spacing" textLength="28.5039" x="336.7" y="159.5519">[nN]</text></g><!--entity tool_nn_oo--><g class="entity" data-qualified-name="tool_nn_oo" data-source-line="10" id="ent0005"><path d="M316.2523,223.4328 C318.3248,216.8932 323.1188,216.2674 327.5163,221.1375 C330.8886,214.1674 337.1167,213.4392 340.9815,220.6705 C344.5936,215.751 348.9563,214.5344 352.9044,220.2954 C356.6766,216.0932 360.3746,216.3189 362.8893,221.617 C367.7358,215.1557 371.6912,215.3763 375.5644,222.5234 C378.3715,216.7525 383.1891,217.3272 386.7494,221.6923 C397.2042,224.8461 400.4307,230.9026 392.674,239.9622 C399.0037,247.3368 397.566,253.5506 387.5441,255.5407 C385.6629,261.8152 381.7882,262.8197 376.5444,259.3282 C373.8358,264.8423 367.748,265.7832 363.946,260.6182 C361.945,267.2961 357.5412,269.7008 351.5128,265.0306 C346.4527,269.889 341.4504,267.8271 339.1423,261.88 C334.4493,265.0521 330.4461,264.4863 329.3241,258.1807 C324.3336,264.1984 319.9171,263.335 316.7066,256.4412 C307.3738,254.2607 304.4382,246.6846 311.0595,239.2602 C304.719,231.7596 307.8925,226.1103 316.2523,223.4328" fill="#FEF3C7" style="stroke:#181818;stroke-width:0.5;"/><text fill="#000000" font-family="Monospace" font-size="14" lengthAdjust="spacing" textLength="57.1198" x="322.39" y="243.5519">[nN][oO]</text></g><!--entity tool_yy--><g class="entity" data-qualified-name="tool_yy" data-source-line="11" id="ent0006"><path d="M332.3932,306.2733 C337.2907,296.8253 346.7235,296.0912 352.3712,305.4776 C359.2157,297.7355 364.9308,297.7671 370.1055,307.2016 C380.661,307.8514 382.9117,314.4452 378.0955,322.9125 C382.8734,331.7421 379.4704,336.7066 370.4639,338.9952 C365.2847,349.002 359.5621,349.7047 351.8879,341.5468 C345.2081,349.1819 336.8785,349.9912 332.6821,338.9878 C323.6782,337.6799 320.9561,330.7218 327.199,323.8803 C319.879,316.6491 323.6446,308.764 332.3932,306.2733" fill="#FEF3C7" style="stroke:#181818;stroke-width:0.5;"/><text fill="#000000" font-family="Monospace" font-size="14" lengthAdjust="spacing" textLength="24.2759" x="338.81" y="327.5519">[yY]</text></g><!--entity tool_apt_get--><g class="entity" data-qualified-name="tool_apt_get" data-source-line="12" id="ent0007"><path d="M321.9103,391.0538 C325.4283,384.729 332.3857,384.5333 336.5659,390.2477 C340.2591,382.9274 346.2403,382.1532 351.7176,388.2299 C357.149,381.3251 365.077,381.5694 367.9212,390.8242 C371.5393,384.281 378.7387,382.793 383.2622,389.799 C394.0369,390.8975 398.0552,396.4554 392.051,406.4241 C396.9788,416.0631 392.8756,423.6522 381.7482,423.7369 C379.5607,431.4617 373.3299,432.858 367.7892,427.2467 C365.533,435.5057 360.2174,437.355 352.9666,433.2199 C345.2916,439.0791 338.9358,438.275 335.8236,428.2847 C328.8479,434.879 322.1848,431.4469 320.4316,422.956 C313.5024,418.0279 311.905,413.4197 319.8013,407.8721 C313.1073,401.804 314.0843,395.3012 321.9103,391.0538" fill="#FEF3C7" style="stroke:#181818;stroke-width:0.5;"/><text fill="#000000" font-family="Monospace" font-size="14" lengthAdjust="spacing" textLength="47.5858" x="327.15" y="411.5519">apt-get</text></g><!--entity tool_cat--><g class="entity" data-qualified-name="tool_cat" data-source-line="13" id="ent0008"><path d="M335.0482,474.6 C338.9319,464.4901 345.7992,464.8949 352.5621,471.6013 C360.0459,464.909 364.4046,467.7685 368.0138,475.6963 C376.6292,478.8491 377.1173,484.3413 371.8119,490.9583 C377.7594,497.1154 377.3812,505.0125 367.9311,507.5732 C365.6083,517.3889 358.3267,518.3882 350.9682,513.3076 C343.1532,519.3994 337.9019,516.6744 335.4927,507.7402 C324.7325,506.4906 323.3203,501.0446 327.9437,492.2823 C322.234,484.2116 323.7807,475.8495 335.0482,474.6" fill="#FEF3C7" style="stroke:#181818;stroke-width:0.5;"/><text fill="#000000" font-family="Monospace" font-size="14" lengthAdjust="spacing" textLength="19.6279" x="341.13" y="495.5519">cat</text></g><!--entity tool_client_private_key--><g class="entity" data-qualified-name="tool_client_private_key" data-source-line="14" id="ent0009"><path d="M289.2551,559.2063 C293.1336,554.2656 296.6615,553.073 300.8348,558.8888 C304.5278,552.6146 309.0112,552.075 313.0479,558.5597 C316.9061,552.137 322.4522,551.5182 327.2983,557.4171 C331.1886,550.9848 336.1121,551.8313 339.6993,557.722 C343.0275,550.8135 346.6616,550.232 351.6226,556.2115 C356.0997,549.8678 362.3193,552.4569 364.8544,558.317 C368.9147,552.5615 372.8239,552.5679 377.2229,557.9406 C381.2665,552.7859 386.4694,552.3799 389.5135,558.9852 C393.7706,551.4885 398.0327,552.2406 402.9413,558.3418 C406.1964,553.1695 412.0612,552.0142 415.1817,558.4833 C425.8474,560.7045 428.8556,566.2445 423.2433,575.9699 C427.8099,584.1164 426.2747,590.9043 416.0622,592.7115 C411.9592,600.7105 407.2354,600.5657 401.8196,593.9947 C398.888,600.3152 393.5493,599.0295 390.3207,594.3038 C386.5412,601.3618 382.5783,602.1385 377.301,595.7546 C373.6355,602.1421 368.9307,601.9984 364.2759,596.8739 C361.6239,603.6898 356.2434,604.3751 351.9084,598.516 C347.3012,603.4347 343.3045,603.0009 339.9659,597.1139 C335.1752,602.3274 330.6683,602.5902 326.4498,596.4338 C321.7865,601.6075 316.5192,601.4452 313.3276,594.7998 C308.3861,599.0707 304.5032,599.6995 301.3107,592.9011 C297.2261,599.1389 291.8732,599.7839 288.1657,592.5335 C276.4736,591.1978 273.503,584.5889 279.6886,574.7373 C274.9201,564.5251 278.8408,560.0664 289.2551,559.2063" fill="#FEF3C7" style="stroke:#181818;stroke-width:0.5;"/><text fill="#000000" font-family="Monospace" font-size="14" lengthAdjust="spacing" textLength="112.9935" x="294.45" y="579.5519">client-private-key</text></g><!--entity tool_dnf--><g class="entity" data-qualified-name="tool_dnf" data-source-line="15" id="ent0010"><path d="M333.4552,643.5454 C338.9175,633.3428 344.964,631.1343 353.0461,640.9861 C357.9328,631.9758 365.9311,632.4238 370.1711,641.5953 C381.3445,644.3473 382.8184,650.3422 375.7707,658.9675 C382.2299,665.5217 379.2477,673.1483 370.8801,675.2488 C367.6058,685.1695 358.8103,686.2943 352.11,678.9798 C345.8418,688.3751 337.1076,686.4546 333.0508,676.7707 C322.1534,674.7869 318.311,669.6069 325.0886,659.4827 C319.2962,649.4375 321.8818,644.4741 333.4552,643.5454" fill="#FEF3C7" style="stroke:#181818;stroke-width:0.5;"/><text fill="#000000" font-family="Monospace" font-size="14" lengthAdjust="spacing" textLength="22.0779" x="339.91" y="663.5519">dnf</text></g><!--entity tool_firewall_cmd--><g class="entity" data-qualified-name="tool_firewall_cmd" data-source-line="16" id="ent0011"><path d="M305.3402,727.2934 C308.8802,721.4682 313.4069,721.1675 317.3294,726.8965 C319.925,720.7456 324.6889,720.8028 328.3549,725.8418 C331.646,720.5957 337.211,721.0934 339.8718,726.5217 C342.2746,719.1965 348.5252,718.969 352.7206,724.7665 C356.6652,719.083 362.0566,720.1722 364.2793,726.4329 C368.625,720.2351 372.2687,721.9 376.1252,726.9482 C378.5653,720.6628 383.2316,721.4378 387.0279,725.5224 C390.8921,720.294 396.5048,721.9623 398.6485,727.3973 C408.6665,729.3722 412.3761,733.8061 406.695,743.5847 C413.6183,752.804 409.7331,757.7581 400.1744,760.6968 C396.1056,766.4011 390.4794,766.1864 387.1251,759.9182 C384.0869,765.7308 379.4368,767.0542 375.0635,761.3118 C372.0572,766.4502 368.2296,766.6831 364.5302,762.0597 C360.3603,767.5514 356.3266,768.042 351.8227,762.4424 C348.0171,766.986 344.6643,767.2963 340.8415,762.4624 C336.9321,769.2007 332.2105,768.5117 328.3335,762.4308 C323.2152,768.3354 319.2747,767.2967 315.3716,761.1263 C311.3515,765.907 307.3465,765.2588 304.5077,759.865 C294.3229,756.4466 293.9635,749.5689 300.6662,742.4297 C295.5475,735.5859 296.9213,729.9569 305.3402,727.2934" fill="#FEF3C7" style="stroke:#181818;stroke-width:0.5;"/><text fill="#000000" font-family="Monospace" font-size="14" lengthAdjust="spacing" textLength="81.1157" x="310.39" y="747.5519">firewall-cmd</text></g><!--entity tool_grep--><g class="entity" data-qualified-name="tool_grep" data-source-line="17" id="ent0012"><path d="M329.8292,810.5826 C332.506,806.1742 337.0281,805.0333 340.1897,810.0496 C343.4203,803.0741 347.3701,802.1595 352.9339,807.6678 C356.0721,802.9036 361.3202,804.0727 363.5912,808.6566 C367.9709,804.6923 371.8313,805.3747 374.1698,810.9259 C384.0874,813.6968 383.9825,820.0732 378.4852,826.9861 C385.3046,834.8649 382.4641,840.0644 373.9245,843.7697 C371.7651,849.9212 368.208,851.7402 362.6464,847.4414 C360.8657,852.3233 356.0678,854.3708 352.1085,849.8947 C346.2088,853.4637 342.2193,852.7509 339.8392,845.7926 C335.906,850.3564 330.7625,848.5449 329.1988,843.2383 C319.484,841.1167 316.8977,833.3785 324.248,826.2761 C318.5033,819.349 320.9603,812.3126 329.8292,810.5826" fill="#FEF3C7" style="stroke:#181818;stroke-width:0.5;"/><text fill="#000000" font-family="Monospace" font-size="14" lengthAdjust="spacing" textLength="30.8979" x="335.5" y="831.5519">grep</text></g><!--entity tool_icanhazip_com--><g class="entity" data-qualified-name="tool_icanhazip_com" data-source-line="18" id="ent0013"><path d="M298.3233,895.655 C301.601,889.9884 306.4868,889.2787 310.5328,894.8179 C313.9627,886.6979 321.2163,887.6968 325.5633,893.8523 C329.8643,887.9015 333.6348,887.072 337.9201,893.8676 C342.135,885.4314 346.7752,884.8408 352.8958,892.0427 C356.4882,886.257 362.5928,885.8606 365.5747,892.658 C370.2453,887.3467 374.7884,885.6395 378.992,893.147 C384.3169,885.8133 389.4811,887.224 393.4342,894.5029 C397.9133,888.8486 403.0347,889.7131 406.5429,895.6051 C416.2095,898.0318 416.8894,904.364 411.5067,911.4926 C417.1852,919.0564 416.9817,924.6515 406.685,927.3613 C402.96,933.4454 396.6829,935.3248 392.5533,927.7808 C389.6165,934.4811 383.8532,934.4392 379.9598,928.7534 C376.3999,936.1418 370.2694,936.4494 365.4705,930.056 C362.5949,936.7488 356.9401,937.2024 352.2975,932.0154 C348.1746,938.3554 342.5023,937.9179 338.4647,931.9199 C333.989,938.5625 327.7274,937.3949 324.6679,930.4788 C320.0985,934.9419 315.9765,935.6166 312.5795,929.1787 C307.4312,934.9395 302.4965,935.21 298.5305,927.9073 C290.0124,924.5379 288.1974,919.3079 294.0426,911.9093 C288.451,905.3447 289.6476,898.4623 298.3233,895.655" fill="#FEF3C7" style="stroke:#181818;stroke-width:0.5;"/><text fill="#000000" font-family="Monospace" font-size="14" lengthAdjust="spacing" textLength="94.1776" x="303.86" y="915.5519">icanhazip.com</text></g><!--entity tool_install--><g class="entity" data-qualified-name="tool_install" data-source-line="19" id="ent0014"><path d="M325.3763,977.8166 C329.5249,972.6082 334.4656,971.405 338.1268,978.3288 C342.4122,969.8537 347.5642,971.1889 353.0826,977.0418 C356.5918,972.403 361.4271,971.8352 364.3998,977.624 C369.8296,970.6536 374.3647,970.8438 379.0771,978.3512 C389.2388,978.2421 393.6849,986.3147 387.7152,994.719 C392.3327,1003.5994 388.0156,1009.6713 378.7278,1010.7618 C376.1724,1018.7509 370.4218,1019.6491 365.1201,1013.3835 C361.3011,1021.4015 356.4025,1021.4121 350.9779,1014.9519 C346.5733,1020.8093 342.0669,1020.1928 338.9559,1013.6933 C335.0278,1018.6324 328.6963,1017.8961 325.9719,1012.2208 C315.0009,1010.0718 314.1695,1004.3343 318.8576,995.5163 C311.5376,986.0054 313.6558,980.3149 325.3763,977.8166" fill="#FEF3C7" style="stroke:#181818;stroke-width:0.5;"/><text fill="#000000" font-family="Monospace" font-size="14" lengthAdjust="spacing" textLength="39.1019" x="331.4" y="999.5519">install</text></g><!--entity tool_print--><g class="entity" data-qualified-name="tool_print" data-source-line="20" id="ent0015"><path d="M329.0842,1062.2559 C332.0397,1056.717 336.2819,1056.1882 339.7878,1061.7239 C342.0904,1056.3402 347.1358,1054.0771 351.5317,1059.4354 C355.9918,1055.0762 360.621,1055.1099 363.2955,1061.4067 C367.507,1055.747 373.2735,1057.3056 375.9162,1063.1307 C385.2046,1067.8087 385.4973,1073.0288 378.1259,1079.9018 C384.4949,1085.7468 381.8135,1092.7814 374.3931,1095.2791 C372.749,1100.2921 368.7714,1102.5485 364.293,1098.4059 C360.962,1105.3468 356.1913,1106.028 351.7025,1099.4871 C347.3106,1103.5124 343.6623,1104.1021 340.9301,1097.7622 C336.7135,1102.929 332.9428,1102.4695 330.1824,1096.3727 C320.7251,1094.2005 318.3353,1086.365 323.7841,1078.7735 C317.041,1071.7242 320.4712,1064.3779 329.0842,1062.2559" fill="#FEF3C7" style="stroke:#181818;stroke-width:0.5;"/><text fill="#000000" font-family="Monospace" font-size="14" lengthAdjust="spacing" textLength="31.7099" x="335.09" y="1083.5519">print</text></g><!--entity tool_qrencode--><g class="entity" data-qualified-name="tool_qrencode" data-source-line="21" id="ent0016"><path d="M313.1573,1147.106 C317.3226,1141.5998 321.2227,1140.4713 325.4807,1147.0111 C329.9062,1141.56 333.8901,1139.8875 338.662,1146.6368 C341.4466,1140.0859 348.1586,1138.9331 352.4076,1145.0475 C355.8507,1138.7659 360.0331,1139.6445 363.7608,1144.764 C367.7691,1138.7622 374.741,1138.564 377.6059,1145.9468 C382.0261,1139.2003 386.7739,1139.8568 391.3668,1145.7589 C401.4346,1146.6092 405.3751,1154.4434 400.8022,1163.2098 C407.1052,1173.5626 401.2281,1181.3357 389.898,1180.6872 C386.9175,1186.3753 381.0115,1186.8561 377.4789,1181.2967 C375.2216,1189.3991 370.9822,1190.3998 364.7531,1185.0556 C362.5561,1191.2369 356.7858,1192.4213 352.6453,1187.1018 C347.7394,1192.5244 342.0047,1193.2196 338.7183,1185.3987 C333.7578,1189.291 328.756,1188.9819 326.6238,1182.1954 C321.2431,1189.0432 316.7214,1186.7272 312.7988,1180.6372 C302.3531,1178.6847 299.8831,1171.3743 304.6222,1162.5553 C299.9431,1153.908 303.1853,1147.659 313.1573,1147.106" fill="#FEF3C7" style="stroke:#181818;stroke-width:0.5;"/><text fill="#000000" font-family="Monospace" font-size="14" lengthAdjust="spacing" textLength="62.6358" x="319.63" y="1167.5519">qrencode</text></g><!--entity tool_rm--><g class="entity" data-qualified-name="tool_rm" data-source-line="22" id="ent0017"><path d="M336.6992,1231.4757 C339.9626,1222.8172 346.1068,1221.815 352.8315,1227.6131 C359.2368,1220.085 366.1247,1222.9555 369.0016,1231.2248 C378.5475,1234.012 378.0332,1240.4751 372.5565,1246.7108 C379.7719,1253.2322 377.6441,1259.7566 369.5412,1263.5321 C369.1366,1276.4253 360.6744,1278.2675 351.075,1272.7593 C343.5768,1276.8399 335.8756,1274.253 335.8636,1264.5173 C326.3482,1262.1836 323.3574,1255.4551 330.6703,1247.8713 C323.971,1240.3213 328.4191,1233.5176 336.6992,1231.4757" fill="#FEF3C7" style="stroke:#181818;stroke-width:0.5;"/><text fill="#000000" font-family="Monospace" font-size="14" lengthAdjust="spacing" textLength="18.8719" x="341.51" y="1251.5519">rm</text></g><!--entity tool_server_public_key--><g class="entity" data-qualified-name="tool_server_public_key" data-source-line="23" id="ent0018"><path d="M289.4951,1315.2063 C293.3571,1310.2855 296.8703,1309.0974 301.0272,1314.8888 C304.7051,1308.6387 309.171,1308.1006 313.1927,1314.5597 C317.0364,1308.1573 322.5639,1307.5391 327.3955,1313.4171 C331.2715,1307.0098 336.176,1307.8535 339.7489,1313.722 C343.0606,1306.839 346.6801,1306.258 351.6246,1312.2115 C356.0896,1305.8926 362.2858,1308.476 364.8088,1314.317 C368.8528,1308.5831 372.747,1308.589 377.1297,1313.9406 C381.1594,1308.8071 386.3425,1308.4043 389.3727,1314.9852 C393.6134,1307.5143 397.8606,1308.2631 402.7529,1314.3418 C405.9956,1309.1898 411.8377,1308.0392 414.9457,1314.4833 C425.6114,1316.7045 428.6196,1322.2445 423.0073,1331.9699 C427.5739,1340.1164 426.0387,1346.9043 415.8262,1348.7115 C411.7392,1356.6852 407.031,1356.5423 401.6312,1349.9947 C398.7124,1356.2894 393.3957,1355.0096 390.1799,1350.3038 C386.4169,1357.3379 382.4686,1358.1133 377.2078,1351.7546 C373.5576,1358.12 368.8698,1357.9784 364.2303,1352.8739 C361.5918,1359.6654 356.2319,1360.3508 351.9104,1354.516 C347.319,1359.4132 343.3383,1358.9793 340.0155,1353.1139 C335.2407,1358.3083 330.7496,1358.5693 326.547,1352.4338 C321.898,1357.5869 316.6496,1357.4229 313.4724,1350.7998 C308.5474,1355.0512 304.6791,1355.6752 301.5031,1348.9011 C297.4327,1355.1159 292.099,1355.758 288.4057,1348.5335 C276.7136,1347.1978 273.743,1340.5889 279.9286,1330.7373 C275.1601,1320.5251 279.0808,1316.0664 289.4951,1315.2063" fill="#FEF3C7" style="stroke:#181818;stroke-width:0.5;"/><text fill="#000000" font-family="Monospace" font-size="14" lengthAdjust="spacing" textLength="112.5175" x="294.69" y="1335.5519">server-public-key</text></g><!--entity tool_sysctl--><g class="entity" data-qualified-name="tool_sysctl" data-source-line="24" id="ent0019"><path d="M327.6643,1399.3979 C330.2371,1393.2338 334.0548,1393.1075 338.6317,1397.2694 C342.6585,1390.3474 346.6844,1391.3773 351.5591,1396.3477 C355.592,1391.5352 360.5165,1391.7765 364.0026,1397.0239 C368.2981,1391.7905 373.546,1392.8362 376.4176,1398.6274 C386.0761,1398.4634 392.1161,1405.3577 387.1803,1414.8664 C393.8326,1424.9369 388.6884,1433.5807 376.6506,1432.4742 C372.2806,1437.5714 368.3979,1439.2461 364.049,1432.4519 C360.318,1437.7399 356.3593,1439.1162 352.1775,1432.9179 C348.6186,1438.1596 342.2609,1438.2911 339.1466,1432.3976 C334.9037,1438.8175 329.6206,1437.9729 325.997,1431.7533 C316.0579,1429.3524 313.9591,1422.0874 320.0407,1414.2383 C314.7352,1405.7822 318.7682,1400.5586 327.6643,1399.3979" fill="#FEF3C7" style="stroke:#181818;stroke-width:0.5;"/><text fill="#000000" font-family="Monospace" font-size="14" lengthAdjust="spacing" textLength="35.9379" x="332.98" y="1419.5519">sysctl</text></g><!--entity tool_systemctl--><g class="entity" data-qualified-name="tool_systemctl" data-source-line="25" id="ent0020"><path d="M313.1143,1481.8514 C316.5548,1475.9326 323.0793,1475.2508 326.18,1482.1964 C329.9216,1475.4857 334.9585,1475.4089 339.4923,1481.3635 C343.5241,1475.1164 348.0624,1475.609 352.5076,1480.8971 C356.0515,1474.8629 359.7175,1475.4457 363.6613,1480.4946 C368.6221,1473.8353 373.0937,1474.7962 376.9066,1481.6221 C380.494,1476.2617 386.7325,1475.3541 389.7865,1482.1856 C398.4828,1484.9182 401.4791,1493.1257 394.9998,1500.2403 C400.3352,1506.0449 398.552,1512.8269 390.9704,1515.1379 C388.401,1523.6765 382.8683,1524.3477 376.561,1519.023 C373.8989,1524.6231 369.7598,1525.3708 365.1065,1521.4082 C362.2441,1528.0311 356.9262,1530.0237 351.9794,1523.4876 C346.538,1529.0577 342.1052,1527.7294 339.6095,1520.6149 C335.2127,1525.9085 329.4929,1526.2834 326.5761,1519.0724 C321.6575,1523.1416 317.238,1523.8712 314.6784,1516.598 C303.9143,1513.4798 303.7723,1507.6123 309.6476,1499.5762 C302.8674,1492.318 303.1547,1485.8356 313.1143,1481.8514" fill="#FEF3C7" style="stroke:#181818;stroke-width:0.5;"/><text fill="#000000" font-family="Monospace" font-size="14" lengthAdjust="spacing" textLength="61.9778" x="319.96" y="1503.5519">systemctl</text></g><!--entity tool_value--><g class="entity" data-qualified-name="tool_value" data-source-line="26" id="ent0021"><path d="M328.0643,1567.3979 C330.5699,1561.3349 334.3191,1561.1976 338.8287,1565.2694 C342.7848,1558.4511 346.7491,1559.4604 351.5531,1564.3477 C355.5246,1559.6171 360.3688,1559.8588 363.7936,1565.0239 C368.0309,1559.8836 373.1922,1560.9234 376.0056,1566.6274 C385.6641,1566.4634 391.7041,1573.3577 386.7683,1582.8664 C393.4206,1592.9369 388.2763,1601.5807 376.2386,1600.4742 C371.9388,1605.4891 368.1187,1607.1367 363.84,1600.4519 C360.1762,1605.6521 356.2861,1607.0076 352.1715,1600.9179 C348.6647,1606.0759 342.4058,1606.2014 339.3436,1600.3976 C335.1612,1606.7154 329.9601,1605.8798 326.397,1599.7533 C316.4579,1597.3524 314.3591,1590.0874 320.4407,1582.2383 C315.1352,1573.7822 319.1682,1568.5586 328.0643,1567.3979" fill="#FEF3C7" style="stroke:#181818;stroke-width:0.5;"/><text fill="#000000" font-family="Monospace" font-size="14" lengthAdjust="spacing" textLength="35.1259" x="333.38" y="1587.5519">value</text></g><!--entity tool_wg--><g class="entity" data-qualified-name="tool_wg" data-source-line="27" id="ent0022"><path d="M335.0582,1650.6 C338.9397,1640.4937 345.8044,1640.898 352.5651,1647.6013 C360.0465,1640.9126 364.403,1643.7715 368.0098,1651.6963 C376.6252,1654.8491 377.1133,1660.3413 371.8078,1666.9583 C377.7554,1673.1154 377.3772,1681.0125 367.9271,1683.5732 C365.6064,1693.3856 358.3276,1694.3854 350.9712,1689.3076 C343.1585,1695.3958 337.9097,1692.6711 335.5027,1683.7402 C324.7425,1682.4906 323.3303,1677.0446 327.9537,1668.2823 C322.244,1660.2116 323.7907,1651.8495 335.0582,1650.6" fill="#FEF3C7" style="stroke:#181818;stroke-width:0.5;"/><text fill="#000000" font-family="Monospace" font-size="14" lengthAdjust="spacing" textLength="19.6139" x="341.14" y="1671.5519">wg</text></g><!--entity tool_wireguard_public_vpn--><g class="entity" data-qualified-name="tool_wireguard_public_vpn" data-source-line="28" id="ent0023"><path d="M273.5701,1735.7727 C277.5705,1729.5698 282.2022,1729.3794 286.4228,1735.5438 C288.4978,1729.0459 293.6336,1729.4288 297.5926,1733.5648 C300.8873,1729.1261 304.3907,1728.5349 308.1325,1733.0379 C312.0337,1729.0605 316.1124,1728.4467 318.9505,1734.2176 C322.5872,1728.8796 326.8345,1728.2546 330.4998,1734.1883 C332.5801,1728.9113 337.6534,1727.8088 341.2586,1732.5509 C344.7697,1728.1988 349.146,1726.9339 352.1538,1733.0736 C355.0231,1728.1234 359.7296,1727.6781 363.1224,1732.485 C366.6483,1726.4328 371.1462,1726.8126 374.4745,1732.6733 C378.1348,1727.9217 383.698,1729.3521 385.7998,1734.463 C388.5997,1729.0052 392.4072,1730.0442 395.578,1734.0809 C399.495,1729.0399 403.4127,1729.5043 407.2258,1734.2051 C410.8955,1727.6629 414.8033,1727.924 419.2812,1733.3938 C422.5719,1728.459 425.7883,1729.493 428.58,1733.891 C437.1772,1738.4752 438.5176,1744.5468 432.1238,1752.0556 C438.4856,1757.687 437.5854,1763.2429 429.9524,1766.8154 C427.192,1771.8025 422.654,1771.6272 419.2725,1767.5469 C415.7372,1773.3239 412.2597,1773.2625 407.9255,1768.3989 C405.0732,1774.6996 401.4506,1774.7851 396.5408,1770.6416 C393.3489,1775.8179 388.0005,1775.6259 385.7021,1769.7641 C383.3357,1775.943 377.5354,1775.2292 374.2867,1770.7051 C372.1167,1776.5274 368.1072,1777.0956 364.1556,1772.4251 C360.7787,1778.2158 355.8199,1778.662 351.3962,1773.663 C347.5136,1777.7354 343.3318,1778.0151 340.5033,1772.4693 C336.7129,1776.4728 333.3943,1776.5697 330.6453,1771.3556 C326.5527,1777.7157 322.434,1776.4078 318.365,1771.3302 C314.9047,1774.9512 310.1639,1773.7677 308.4878,1769.1826 C305.0489,1776.0551 300.4755,1776.4166 296.0328,1770.133 C292.3863,1775.1155 287.5689,1774.3811 284.7377,1769.2247 C280.9106,1773.484 276.6945,1773.2621 273.817,1768.1214 C265.283,1764.9073 262.9799,1757.855 269.7284,1750.9929 C262.8728,1745.0549 264.2211,1737.6206 273.5701,1735.7727" fill="#FEF3C7" style="stroke:#181818;stroke-width:0.5;"/><text fill="#000000" font-family="Monospace" font-size="14" lengthAdjust="spacing" textLength="141.0074" x="280.44" y="1755.5519">wireguard-public-vpn</text></g><!--entity tool_yum--><g class="entity" data-qualified-name="tool_yum" data-source-line="29" id="ent0024"><path d="M331.5852,1818.8919 C335.8586,1807.0246 345.8691,1807.4426 352.6582,1816.3386 C359.5623,1808.3104 368.3569,1808.9474 373.1024,1818.8058 C382.6379,1822.765 381.836,1828.0786 376.086,1834.8758 C383.0567,1842.0856 382.0147,1848.4844 372.4938,1852.2928 C370.5728,1858.0527 367.225,1858.931 362.4639,1855.3388 C361.3831,1860.785 356.759,1862.2487 352.8242,1858.2522 C347.5641,1863.1309 343.4061,1861.8266 340.8425,1855.3955 C336.5485,1858.1296 333.2095,1857.1318 331.6056,1852.1678 C323.1064,1849.346 320.4793,1840.6182 327.5305,1834.2582 C321.1006,1826.9187 321.9732,1821.9984 331.5852,1818.8919" fill="#FEF3C7" style="stroke:#181818;stroke-width:0.5;"/><text fill="#000000" font-family="Monospace" font-size="14" lengthAdjust="spacing" textLength="28.8819" x="336.51" y="1839.5519">yum</text></g><g class="entity" data-qualified-name="shellGraphSummary" data-source-line="53" id="ent0047"><path d="M9.3,815.5659 L9.3,878.684 L203.1351,878.684 L203.1351,825.5659 L193.1351,815.5659 L9.3,815.5659" fill="#FEFFDD" style="stroke:#181818;stroke-width:0.5;"/><path d="M193.1351,815.5659 L193.1351,825.5659 L203.1351,825.5659 L193.1351,815.5659" fill="#FEFFDD" style="stroke:#181818;stroke-width:1;"/><text fill="#000000" font-family="Monospace" font-size="13" lengthAdjust="spacing" textLength="135.3041" x="15.3" y="834.4629">Scanned&#160;1&#160;shell&#160;script.</text><text fill="#000000" font-family="Monospace" font-size="13" lengthAdjust="spacing" textLength="172.8351" x="15.3" y="852.169">Detected&#160;0&#160;local&#160;shell&#160;edges.</text><text fill="#000000" font-family="Monospace" font-size="13" lengthAdjust="spacing" textLength="163.8911" x="15.3" y="869.875">Detected&#160;22&#160;external&#160;tools.</text></g><!--link shell_scripts_setup_wireguard_sh to tool_endpoint--><g class="link" data-entity-1="ent0002" data-entity-2="ent0003" data-link-type="dependency" data-source-line="30" id="lnk25"><path d="M205.79,952.1259 C209.37,952.1259 211.45,952.1259 211.45,952.1259 C211.45,952.1259 211.45,70.1259 211.45,70.1259 C211.45,70.1259 259.26,70.1259 300.04,70.1259" fill="none" id="shell_scripts_setup_wireguard_sh-to-tool_endpoint" style="stroke:#181818;stroke-width:1;"/><polygon fill="#181818" points="306.04,70.1259,297.04,66.1259,301.04,70.1259,297.04,74.1259,306.04,70.1259" style="stroke:#181818;stroke-width:1;"/></g><!--link shell_scripts_setup_wireguard_sh to tool_nn--><g class="link" data-entity-1="ent0002" data-entity-2="ent0004" data-link-type="dependency" data-source-line="31" id="lnk26"><path d="M205.55,915.4459 C212.86,915.4459 217.45,915.4459 217.45,915.4459 C217.45,915.4459 217.45,154.1259 217.45,154.1259 C217.45,154.1259 275.99,154.1259 315.32,154.1259" fill="none" id="shell_scripts_setup_wireguard_sh-to-tool_nn" style="stroke:#181818;stroke-width:1;"/><polygon fill="#181818" points="321.32,154.1259,312.32,150.1259,316.32,154.1259,312.32,158.1259,321.32,154.1259" style="stroke:#181818;stroke-width:1;"/></g><!--link shell_scripts_setup_wireguard_sh to tool_nn_oo--><g class="link" data-entity-1="ent0002" data-entity-2="ent0005" data-link-type="dependency" data-source-line="32" id="lnk27"><path d="M205.9,917.3659 C216.46,917.3659 223.45,917.3659 223.45,917.3659 C223.45,917.3659 223.45,238.1259 223.45,238.1259 C223.45,238.1259 264.19,238.1259 301.07,238.1259" fill="none" id="shell_scripts_setup_wireguard_sh-to-tool_nn_oo" style="stroke:#181818;stroke-width:1;"/><polygon fill="#181818" points="307.07,238.1259,298.07,234.1259,302.07,238.1259,298.07,242.1259,307.07,238.1259" style="stroke:#181818;stroke-width:1;"/></g><!--link shell_scripts_setup_wireguard_sh to tool_yy--><g class="link" data-entity-1="ent0002" data-entity-2="ent0006" data-link-type="dependency" data-source-line="33" id="lnk28"><path d="M205.69,919.2859 C219.7,919.2859 229.45,919.2859 229.45,919.2859 C229.45,919.2859 229.45,322.1259 229.45,322.1259 C229.45,322.1259 281.53,322.1259 317.38,322.1259" fill="none" id="shell_scripts_setup_wireguard_sh-to-tool_yy" style="stroke:#181818;stroke-width:1;"/><polygon fill="#181818" points="323.38,322.1259,314.38,318.1259,318.38,322.1259,314.38,326.1259,323.38,322.1259" style="stroke:#181818;stroke-width:1;"/></g><!--link shell_scripts_setup_wireguard_sh to tool_apt_get--><g class="link" data-entity-1="ent0002" data-entity-2="ent0007" data-link-type="dependency" data-source-line="34" id="lnk29"><path d="M205.8,921.2059 C222.99,921.2059 235.45,921.2059 235.45,921.2059 C235.45,921.2059 235.45,406.1259 235.45,406.1259 C235.45,406.1259 272.34,406.1259 305.85,406.1259" fill="none" id="shell_scripts_setup_wireguard_sh-to-tool_apt_get" style="stroke:#181818;stroke-width:1;"/><polygon fill="#181818" points="311.85,406.1259,302.85,402.1259,306.85,406.1259,302.85,410.1259,311.85,406.1259" style="stroke:#181818;stroke-width:1;"/></g><!--link shell_scripts_setup_wireguard_sh to tool_cat--><g class="link" data-entity-1="ent0002" data-entity-2="ent0008" data-link-type="dependency" data-source-line="35" id="lnk30"><path d="M205.92,923.1259 C226.19,923.1259 241.45,923.1259 241.45,923.1259 C241.45,923.1259 241.45,490.1259 241.45,490.1259 C241.45,490.1259 287.5,490.1259 319.83,490.1259" fill="none" id="shell_scripts_setup_wireguard_sh-to-tool_cat" style="stroke:#181818;stroke-width:1;"/><polygon fill="#181818" points="325.83,490.1259,316.83,486.1259,320.83,490.1259,316.83,494.1259,325.83,490.1259" style="stroke:#181818;stroke-width:1;"/></g><!--link shell_scripts_setup_wireguard_sh to tool_client_private_key--><g class="link" data-entity-1="ent0002" data-entity-2="ent0009" data-link-type="dependency" data-source-line="36" id="lnk31"><path d="M205.79,930.8159 C247.05,930.8159 285.45,930.8159 285.45,930.8159 C285.45,930.8159 285.45,685.8059 285.45,604.9159" fill="none" id="shell_scripts_setup_wireguard_sh-to-tool_client_private_key" style="stroke:#181818;stroke-width:1;"/><polygon fill="#181818" points="285.45,598.9159,281.45,607.9159,285.45,603.9159,289.45,607.9159,285.45,598.9159" style="stroke:#181818;stroke-width:1;"/></g><!--link shell_scripts_setup_wireguard_sh to tool_dnf--><g class="link" data-entity-1="ent0002" data-entity-2="ent0010" data-link-type="dependency" data-source-line="37" id="lnk32"><path d="M205.84,925.0459 C229.21,925.0459 247.45,925.0459 247.45,925.0459 C247.45,925.0459 247.45,658.1259 247.45,658.1259 C247.45,658.1259 287.9,658.1259 318.56,658.1259" fill="none" id="shell_scripts_setup_wireguard_sh-to-tool_dnf" style="stroke:#181818;stroke-width:1;"/><polygon fill="#181818" points="324.56,658.1259,315.56,654.1259,319.56,658.1259,315.56,662.1259,324.56,658.1259" style="stroke:#181818;stroke-width:1;"/></g><!--link shell_scripts_setup_wireguard_sh to tool_firewall_cmd--><g class="link" data-entity-1="ent0002" data-entity-2="ent0011" data-link-type="dependency" data-source-line="38" id="lnk33"><path d="M205.65,926.9659 C232.09,926.9659 253.45,926.9659 253.45,926.9659 C253.45,926.9659 253.45,742.1259 253.45,742.1259 C253.45,742.1259 267.3,742.1259 289.08,742.1259" fill="none" id="shell_scripts_setup_wireguard_sh-to-tool_firewall_cmd" style="stroke:#181818;stroke-width:1;"/><polygon fill="#181818" points="295.08,742.1259,286.08,738.1259,290.08,742.1259,286.08,746.1259,295.08,742.1259" style="stroke:#181818;stroke-width:1;"/></g><!--link shell_scripts_setup_wireguard_sh to tool_grep--><g class="link" data-entity-1="ent0002" data-entity-2="ent0012" data-link-type="dependency" data-source-line="39" id="lnk34"><path d="M205.86,928.8959 C235.13,928.8959 259.45,928.8959 259.45,928.8959 C259.45,928.8959 259.45,833.1059 259.45,833.1059 C259.45,833.1059 287.64,833.1059 314.23,833.1059" fill="none" id="shell_scripts_setup_wireguard_sh-to-tool_grep" style="stroke:#181818;stroke-width:1;"/><polygon fill="#181818" points="320.23,833.1059,311.23,829.1059,315.23,833.1059,311.23,837.1059,320.23,833.1059" style="stroke:#181818;stroke-width:1;"/></g><!--link shell_scripts_setup_wireguard_sh to tool_icanhazip_com--><g class="link" data-entity-1="ent0002" data-entity-2="ent0013" data-link-type="dependency" data-source-line="40" id="lnk35"><path d="M205.76,932.7359 C233.68,932.7359 257.25,932.7359 282.36,932.7359" fill="none" id="shell_scripts_setup_wireguard_sh-to-tool_icanhazip_com" style="stroke:#181818;stroke-width:1;"/><polygon fill="#181818" points="288.36,932.7359,279.36,928.7359,283.36,932.7359,279.36,936.7359,288.36,932.7359" style="stroke:#181818;stroke-width:1;"/></g><!--link shell_scripts_setup_wireguard_sh to tool_install--><g class="link" data-entity-1="ent0002" data-entity-2="ent0014" data-link-type="dependency" data-source-line="41" id="lnk36"><path d="M205.76,973.8159 C244.93,973.8159 281.34,973.8159 310.14,973.8159" fill="none" id="shell_scripts_setup_wireguard_sh-to-tool_install" style="stroke:#181818;stroke-width:1;"/><polygon fill="#181818" points="316.14,973.8159,307.14,969.8159,311.14,973.8159,307.14,977.8159,316.14,973.8159" style="stroke:#181818;stroke-width:1;"/></g><!--link shell_scripts_setup_wireguard_sh to tool_print--><g class="link" data-entity-1="ent0002" data-entity-2="ent0015" data-link-type="dependency" data-source-line="42" id="lnk37"><path d="M180.45,990.9559 C180.45,1027.9759 180.45,1078.1259 180.45,1078.1259 C180.45,1078.1259 264.45,1078.1259 313.68,1078.1259" fill="none" id="shell_scripts_setup_wireguard_sh-to-tool_print" style="stroke:#181818;stroke-width:1;"/><polygon fill="#181818" points="319.68,1078.1259,310.68,1074.1259,314.68,1078.1259,310.68,1082.1259,319.68,1078.1259" style="stroke:#181818;stroke-width:1;"/></g><!--link shell_scripts_setup_wireguard_sh to tool_qrencode--><g class="link" data-entity-1="ent0002" data-entity-2="ent0016" data-link-type="dependency" data-source-line="43" id="lnk38"><path d="M205.94,978.0459 C257.79,978.0459 310.45,978.0459 310.45,978.0459 C310.45,978.0459 310.45,1081.0459 310.45,1131.2959" fill="none" id="shell_scripts_setup_wireguard_sh-to-tool_qrencode" style="stroke:#181818;stroke-width:1;"/><polygon fill="#181818" points="310.45,1137.2959,314.45,1128.2959,310.45,1132.2959,306.45,1128.2959,310.45,1137.2959" style="stroke:#181818;stroke-width:1;"/></g><!--link shell_scripts_setup_wireguard_sh to tool_rm--><g class="link" data-entity-1="ent0002" data-entity-2="ent0017" data-link-type="dependency" data-source-line="44" id="lnk39"><path d="M155.45,991.1659 C155.45,1071.1359 155.45,1246.1259 155.45,1246.1259 C155.45,1246.1259 267.58,1246.1259 320.19,1246.1259" fill="none" id="shell_scripts_setup_wireguard_sh-to-tool_rm" style="stroke:#181818;stroke-width:1;"/><polygon fill="#181818" points="326.19,1246.1259,317.19,1242.1259,321.19,1246.1259,317.19,1250.1259,326.19,1246.1259" style="stroke:#181818;stroke-width:1;"/></g><!--link shell_scripts_setup_wireguard_sh to tool_server_public_key--><g class="link" data-entity-1="ent0002" data-entity-2="ent0018" data-link-type="dependency" data-source-line="45" id="lnk40"><path d="M205.92,982.2659 C245.8,982.2659 282.45,982.2659 282.45,982.2659 C282.45,982.2659 282.45,1219.3459 282.45,1299.1059" fill="none" id="shell_scripts_setup_wireguard_sh-to-tool_server_public_key" style="stroke:#181818;stroke-width:1;"/><polygon fill="#181818" points="282.45,1305.1059,286.45,1296.1059,282.45,1300.1059,278.45,1296.1059,282.45,1305.1059" style="stroke:#181818;stroke-width:1;"/></g><!--link shell_scripts_setup_wireguard_sh to tool_sysctl--><g class="link" data-entity-1="ent0002" data-entity-2="ent0019" data-link-type="dependency" data-source-line="46" id="lnk41"><path d="M131.45,991.1159 C131.45,1102.4959 131.45,1414.1259 131.45,1414.1259 C131.45,1414.1259 250.21,1414.1259 311.61,1414.1259" fill="none" id="shell_scripts_setup_wireguard_sh-to-tool_sysctl" style="stroke:#181818;stroke-width:1;"/><polygon fill="#181818" points="317.61,1414.1259,308.61,1410.1259,312.61,1414.1259,308.61,1418.1259,317.61,1414.1259" style="stroke:#181818;stroke-width:1;"/></g><!--link shell_scripts_setup_wireguard_sh to tool_systemctl--><g class="link" data-entity-1="ent0002" data-entity-2="ent0020" data-link-type="dependency" data-source-line="47" id="lnk42"><path d="M106.45,990.9559 C106.45,1115.6859 106.45,1498.1259 106.45,1498.1259 C106.45,1498.1259 227.79,1498.1259 298.67,1498.1259" fill="none" id="shell_scripts_setup_wireguard_sh-to-tool_systemctl" style="stroke:#181818;stroke-width:1;"/><polygon fill="#181818" points="304.67,1498.1259,295.67,1494.1259,299.67,1498.1259,295.67,1502.1259,304.67,1498.1259" style="stroke:#181818;stroke-width:1;"/></g><!--link shell_scripts_setup_wireguard_sh to tool_value--><g class="link" data-entity-1="ent0002" data-entity-2="ent0021" data-link-type="dependency" data-source-line="48" id="lnk43"><path d="M81.45,991.0559 C81.45,1128.4059 81.45,1582.1259 81.45,1582.1259 C81.45,1582.1259 239.94,1582.1259 311.9,1582.1259" fill="none" id="shell_scripts_setup_wireguard_sh-to-tool_value" style="stroke:#181818;stroke-width:1;"/><polygon fill="#181818" points="317.9,1582.1259,308.9,1578.1259,312.9,1582.1259,308.9,1586.1259,317.9,1582.1259" style="stroke:#181818;stroke-width:1;"/></g><!--link shell_scripts_setup_wireguard_sh to tool_wg--><g class="link" data-entity-1="ent0002" data-entity-2="ent0022" data-link-type="dependency" data-source-line="49" id="lnk44"><path d="M56.45,991.0159 C56.45,1140.0159 56.45,1666.1259 56.45,1666.1259 C56.45,1666.1259 248.62,1666.1259 319.84,1666.1259" fill="none" id="shell_scripts_setup_wireguard_sh-to-tool_wg" style="stroke:#181818;stroke-width:1;"/><polygon fill="#181818" points="325.84,1666.1259,316.84,1662.1259,320.84,1666.1259,316.84,1670.1259,325.84,1666.1259" style="stroke:#181818;stroke-width:1;"/></g><!--link shell_scripts_setup_wireguard_sh to tool_wireguard_public_vpn--><g class="link" data-entity-1="ent0002" data-entity-2="ent0023" data-link-type="dependency" data-source-line="50" id="lnk45"><path d="M205.8,986.4959 C241.2,986.4959 272.45,986.4959 272.45,986.4959 C272.45,986.4959 272.45,1587.5459 272.45,1719.1459" fill="none" id="shell_scripts_setup_wireguard_sh-to-tool_wireguard_public_vpn" style="stroke:#181818;stroke-width:1;"/><polygon fill="#181818" points="272.45,1725.1459,276.45,1716.1459,272.45,1720.1459,268.45,1716.1459,272.45,1725.1459" style="stroke:#181818;stroke-width:1;"/></g><!--link shell_scripts_setup_wireguard_sh to tool_yum--><g class="link" data-entity-1="ent0002" data-entity-2="ent0024" data-link-type="dependency" data-source-line="51" id="lnk46"><path d="M31.45,991.1559 C31.45,1161.8559 31.45,1834.1259 31.45,1834.1259 C31.45,1834.1259 235.86,1834.1259 315.18,1834.1259" fill="none" id="shell_scripts_setup_wireguard_sh-to-tool_yum" style="stroke:#181818;stroke-width:1;"/><polygon fill="#181818" points="321.18,1834.1259,312.18,1830.1259,316.18,1834.1259,312.18,1838.1259,321.18,1834.1259" style="stroke:#181818;stroke-width:1;"/></g><?plantuml-src bPPDZzGm38Rl_HNHxha3B0TkIC3ES68vp0djeYgadZRQr0b9EgNyUjolQIOT2UKOly_hscrjnKklWBbQMvyBQKKhFJlMe1Gx2YkDPmUbkqp1oJElcPLLxLafBGWlDMRkLQBXbZUKWPUwarYn4rSE0gM44s-LFsZqJxm1zasZTeQBa16wCHe1_T7tLCwGdcEbGaH91DyRO5HfhRCBmkxSMAXxuy2tfkYekAhbjjov-WNVCgK5LrJUq1AK5RWNV7XWyCU3HHAyrihTCUucf9YJ5L6omjNi_l7p_jDXdmcbsvBTxR4qMg8VpKEQ0kO8kp_i3--_V5Z8PtpwkLA8j_Hd_VsAARJUOFsF0EdxMEV6vnK4zL2We43C2HumTDZeIjANo8sLP-uXVuK-m4UjcBM2jDXTucd5wH3h9tgb7LSg5qsvWakqe6Zig2oObHnECI45nvh_bMP7FzAANi85XJSUT9uU6D1J8EQerV0RZyUO-Mq1XIvXnPP8JDgWFBkfoO4zWyrD-qj9SVtY9wcOf5lltVLE-A2TwNo3yj34u1IAsJDNRT3IU8oPhbg1hjgeo_WiBPqD1lnbkEQkI8qpz6tmmkXmqVyxhNd-yNeg4oo8IJ3DQWBVzmdmFC893Xhe57eppmbccku4EXpn1DimxmdurSod-ARfJt2Cco21NrP2WiMcTB3P42dUSLca6QQbaU0P5qW2trKfy8rbaZAKRPEXzd2v27ortDJ7jccuxRCZ_LG89NittoEcZBli4JnTGqYuSSq8rCrzOvVHKcB3y_u1?></g></svg>
