<?plantuml 1.2026.2?><svg xmlns="http://www.w3.org/2000/svg" xmlns:xlink="http://www.w3.org/1999/xlink" contentStyleType="text/css" data-diagram-type="DESCRIPTION" height="2543px" preserveAspectRatio="none" style="width:510px;height:2543px;background:#FFFFFF;" version="1.1" viewBox="0 0 510 2543" width="510px" zoomAndPan="magnify"><title>short-circuit Tooling Integrations</title><defs/><g><g class="title" data-source-line="1"><text fill="#000000" font-family="Monospace" font-size="14" font-weight="bold" lengthAdjust="spacing" textLength="230.9012" x="132.9383" y="24.9659">short-circuit&#160;Tooling&#160;Integrations</text></g><!--entity source_github_workflows_ci_yml--><g class="entity" data-qualified-name="source_github_workflows_ci_yml" data-source-line="7" id="ent0002"><rect fill="#E0F2FE" height="58.1358" rx="2.5" ry="2.5" style="stroke:#181818;stroke-width:0.5;" width="182.6234" x="39.08" y="2286.0559"/><text fill="#000000" font-family="Monospace" font-size="14" lengthAdjust="spacing" textLength="162.6234" x="49.08" y="2311.0219">.github/workflows/ci.yml</text><text fill="#000000" font-family="Monospace" font-size="14" lengthAdjust="spacing" textLength="105.3356" x="49.08" y="2330.0898">4&#160;detected&#160;tools</text></g><!--entity source_github_workflows_secret_scan_yml--><g class="entity" data-qualified-name="source_github_workflows_secret_scan_yml" data-source-line="8" id="ent0003"><rect fill="#E0F2FE" height="58.1358" rx="2.5" ry="2.5" style="stroke:#181818;stroke-width:0.5;" width="246.7851" x="7" y="2416.0559"/><text fill="#000000" font-family="Monospace" font-size="14" lengthAdjust="spacing" textLength="226.7851" x="17" y="2441.0219">.github/workflows/secret-scan.yml</text><text fill="#000000" font-family="Monospace" font-size="14" lengthAdjust="spacing" textLength="105.3356" x="17" y="2460.0898">2&#160;detected&#160;tools</text></g><!--entity source_scripts_run_tachometer_profile_sh--><g class="entity" data-qualified-name="source_scripts_run_tachometer_profile_sh" data-source-line="9" id="ent0004"><rect fill="#E0F2FE" height="58.1358" rx="2.5" ry="2.5" style="stroke:#181818;stroke-width:0.5;" width="242.2912" x="9.25" y="1973.0559"/><text fill="#000000" font-family="Monospace" font-size="14" lengthAdjust="spacing" textLength="222.2912" x="19.25" y="1998.0219">scripts/run_tachometer_profile.sh</text><text fill="#000000" font-family="Monospace" font-size="14" lengthAdjust="spacing" textLength="105.3356" x="19.25" y="2017.0898">3&#160;detected&#160;tools</text></g><!--entity source_scripts_setup_wireguard_sh--><g class="entity" data-qualified-name="source_scripts_setup_wireguard_sh" data-source-line="10" id="ent0005"><rect fill="#E0F2FE" height="58.1358" rx="2.5" ry="2.5" style="stroke:#181818;stroke-width:0.5;" width="198.4433" x="31.17" y="923.0559"/><text fill="#000000" font-family="Monospace" font-size="14" lengthAdjust="spacing" textLength="178.4433" x="41.17" y="948.0219">scripts/setup_wireguard.sh</text><text fill="#000000" font-family="Monospace" font-size="14" lengthAdjust="spacing" textLength="113.3436" x="41.17" y="967.0898">22&#160;detected&#160;tools</text></g><!--entity tool_endpoint--><g class="entity" data-qualified-name="tool_endpoint" data-source-line="11" id="ent0006"><path d="M368.8203,54.1607 C372.9487,48.35 377.3123,46.6859 381.9597,53.6258 C385.5115,47.7834 390.8924,48.3876 394.3684,53.71 C397.4313,48.6085 402.4499,47.171 406.0027,53.1979 C409.175,48.6549 413.5991,48.141 416.9136,53.0334 C421.3223,46.0679 427.627,46.5316 430.7168,54.2714 C434.8941,48.2247 439.6532,49.2859 442.5171,55.5322 C450.4853,57.6056 453.8691,63.3095 447.3747,70.1793 C454.5825,76.9003 453.4586,85.8981 442.7956,88.0365 C440.0211,94.9573 435.3156,94.8274 430.8085,89.7705 C428.918,97.2219 422.213,98.319 417.4531,92.7031 C414.2361,99.3691 409.8293,99.398 404.8062,94.716 C400.5533,98.9357 395.8108,98.481 394.3638,91.9824 C388.8999,97.6668 384.5657,95.7944 381.6499,89.3183 C377.0614,95.621 372.7383,94.23 368.7393,88.6764 C359.6418,85.3084 358.3379,77.6299 366.2167,71.7343 C358.2907,65.5506 360.0118,57.865 368.8203,54.1607" fill="#FEF3C7" style="stroke:#181818;stroke-width:0.5;"/><text fill="#000000" font-family="Monospace" font-size="14" lengthAdjust="spacing" textLength="59.4438" x="374.92" y="75.5519">Endpoint</text></g><!--entity tool_nn--><g class="entity" data-qualified-name="tool_nn" data-source-line="12" id="ent0007"><path d="M385.4652,138.8919 C389.6881,127.1249 399.6105,127.5285 406.3492,136.3386 C413.1992,128.3911 421.913,129.032 426.6044,138.8058 C436.1399,142.765 435.338,148.0786 429.588,154.8758 C436.5587,162.0856 435.5167,168.4844 425.9958,172.2928 C424.1064,178.008 420.7898,178.8875 416.0604,175.3388 C415.0041,180.739 410.4255,182.2021 406.5152,178.2522 C401.2856,183.0851 397.161,181.7832 394.628,175.3955 C390.3645,178.091 387.0591,177.0917 385.4856,172.1678 C376.9864,169.346 374.3593,160.6182 381.4105,154.2582 C374.9806,146.9187 375.8532,141.9984 385.4652,138.8919" fill="#FEF3C7" style="stroke:#181818;stroke-width:0.5;"/><text fill="#000000" font-family="Monospace" font-size="14" lengthAdjust="spacing" textLength="28.5039" x="390.39" y="159.5519">[nN]</text></g><!--entity tool_nn_oo--><g class="entity" data-qualified-name="tool_nn_oo" data-source-line="13" id="ent0008"><path d="M369.9423,223.4328 C372.0148,216.8932 376.8088,216.2674 381.2063,221.1375 C384.5786,214.1674 390.8067,213.4392 394.6715,220.6705 C398.2836,215.751 402.6463,214.5344 406.5944,220.2954 C410.3666,216.0932 414.0646,216.3189 416.5793,221.617 C421.4258,215.1557 425.3812,215.3763 429.2544,222.5234 C432.0615,216.7525 436.8791,217.3272 440.4394,221.6923 C450.8942,224.8461 454.1207,230.9026 446.364,239.9622 C452.6937,247.3368 451.256,253.5506 441.2341,255.5407 C439.3529,261.8152 435.4782,262.8197 430.2344,259.3282 C427.5258,264.8423 421.438,265.7832 417.636,260.6182 C415.635,267.2961 411.2312,269.7008 405.2028,265.0306 C400.1427,269.889 395.1404,267.8271 392.8323,261.88 C388.1393,265.0521 384.1361,264.4863 383.0141,258.1807 C378.0236,264.1984 373.6071,263.335 370.3966,256.4412 C361.0638,254.2607 358.1282,246.6846 364.7495,239.2602 C358.409,231.7596 361.5825,226.1103 369.9423,223.4328" fill="#FEF3C7" style="stroke:#181818;stroke-width:0.5;"/><text fill="#000000" font-family="Monospace" font-size="14" lengthAdjust="spacing" textLength="57.1198" x="376.08" y="243.5519">[nN][oO]</text></g><!--entity tool_yy--><g class="entity" data-qualified-name="tool_yy" data-source-line="14" id="ent0009"><path d="M386.0932,306.2733 C390.9907,296.8253 400.4235,296.0912 406.0712,305.4776 C412.9157,297.7355 418.6308,297.7671 423.8055,307.2016 C434.361,307.8514 436.6117,314.4452 431.7955,322.9125 C436.5734,331.7421 433.1704,336.7066 424.1639,338.9952 C418.9847,349.002 413.2621,349.7047 405.5879,341.5468 C398.9081,349.1819 390.5785,349.9912 386.3821,338.9878 C377.3782,337.6799 374.6561,330.7218 380.899,323.8803 C373.579,316.6491 377.3446,308.764 386.0932,306.2733" fill="#FEF3C7" style="stroke:#181818;stroke-width:0.5;"/><text fill="#000000" font-family="Monospace" font-size="14" lengthAdjust="spacing" textLength="24.2759" x="392.51" y="327.5519">[yY]</text></g><!--entity tool_actions_checkout--><g class="entity" data-qualified-name="tool_actions_checkout" data-source-line="15" id="ent0010"><path d="M343.1221,2405.9517 C346.9739,2399.7926 351.7165,2399.9332 355.446,2406.0742 C358.7517,2399.3113 363.7534,2400.5602 367.792,2405.2867 C372.4123,2398.1393 376.6729,2398.2641 381.3139,2405.267 C385.5887,2398.9836 389.4213,2399.9716 393.5173,2405.4525 C396.8488,2400.7666 402.0624,2400.9202 404.8426,2406.0863 C407.5408,2400.4285 413.8073,2399.9366 417.3845,2405.0641 C421.4641,2399.0268 426.7619,2399.0864 431.135,2404.7183 C436.3096,2399.2827 441.0712,2399.7828 443.9216,2407.0566 C446.8926,2400.9325 452.3729,2401.0166 455.4115,2406.9923 C459.3803,2401.1588 463.7644,2401.9158 467.7744,2406.9454 C477.4557,2409.355 478.7659,2415.5147 473.7682,2423.303 C479.2131,2431.7602 477.748,2436.8635 467.8047,2439.7365 C465.5571,2445.4079 460.1973,2445.8792 457.0214,2440.6553 C453.4344,2447.1656 447.2723,2447.7549 442.6811,2441.8117 C439.9476,2447.7141 435.9771,2449.3295 430.7471,2444.6188 C427.4662,2451.1227 422.9701,2450.9468 418.8901,2445.4054 C416.3617,2452.8445 409.8443,2453.3114 405.836,2446.7891 C400.9327,2453.1869 395.4736,2451.1112 392.9865,2444.4175 C389.0506,2451.1955 383.1289,2451.0401 379.5581,2444.0611 C375.0234,2449.5795 370.3351,2448.1009 367.6615,2442.1335 C363.7843,2447.251 358.4253,2446.8731 355.8814,2440.7378 C351.4205,2446.2009 345.1986,2446.9367 341.9371,2439.4466 C334.8391,2435.3952 333.4377,2427.4122 342.0187,2423.4407 C333.7764,2417.4125 334.7235,2410.9299 343.1221,2405.9517" fill="#FEF3C7" style="stroke:#181818;stroke-width:0.5;"/><text fill="#000000" font-family="Monospace" font-size="14" lengthAdjust="spacing" textLength="111.9156" x="348.69" y="2427.5519">actions/checkout</text></g><!--entity tool_actions_setup_python--><g class="entity" data-qualified-name="tool_actions_setup_python" data-source-line="16" id="ent0011"><path d="M328.7491,2155.1366 C330.9616,2149.0818 335.1752,2149.0201 338.9939,2153.5875 C343.8576,2148.2578 348.1969,2148.9067 351.5897,2155.1837 C353.4857,2150.5943 358.2836,2148.7401 361.7396,2153.4878 C365.0991,2147.1952 368.7066,2147.3018 372.7751,2152.8256 C376.3553,2147.3391 380.093,2148.2373 383.5427,2152.9632 C387.3814,2148.6216 391.0198,2148.95 393.796,2154.1098 C396.9714,2148.3053 402.0279,2146.6525 406.7698,2152.3416 C409.8156,2147.3708 412.754,2147.4293 415.875,2152.2719 C420.2081,2146.5292 424.5361,2147.1699 428.2653,2152.9228 C432.308,2147.9854 436.1771,2148.6493 439.2386,2153.9723 C442.0071,2148.5994 446.7705,2149.2756 449.8799,2153.5981 C452.9303,2147.954 457.7318,2148.6692 460.4625,2153.9089 C464.6874,2148.2667 468.4872,2148.9502 472.5237,2154.119 C476.3154,2148.8486 480.7672,2149.1621 483.9676,2154.7426 C493.1126,2157.4438 494.9441,2165.467 488.424,2172.1733 C495.4589,2180.2689 493.0116,2186.8068 482.4214,2188.3708 C478.9394,2193.9616 475.161,2193.8891 471.9767,2188.0975 C469.9318,2193.9733 464.9928,2193.5968 461.5259,2189.6032 C458.779,2195.4659 454.1512,2195.6173 450.2538,2190.8199 C447.1327,2196.9357 441.3831,2196.6713 438.3138,2190.7684 C435.8905,2196.3342 432.6616,2195.713 428.7633,2192.3454 C425.6092,2197.4785 421.0485,2198.1144 417.5369,2192.7269 C415.1621,2198.1086 409.5019,2198.5826 406.1529,2193.8201 C402.5716,2199.8437 398.0283,2199.517 394.341,2193.9279 C390.7663,2198.5067 385.5735,2199.1955 382.8766,2192.9944 C379.2268,2197.4779 374.9218,2195.9668 373.1753,2191.0336 C368.7232,2195.0643 364.9924,2194.7285 361.8381,2189.4526 C357.7018,2195.5616 353.7878,2194.2576 349.9084,2189.1786 C347.681,2193.6045 343.0523,2193.471 340.3988,2189.6712 C336.6247,2195.3466 331.0449,2194.7329 328.5462,2188.4111 C318.8093,2187.1253 315.2389,2179.9575 319.8111,2171.3469 C314.8485,2162.4309 317.3767,2155.046 328.7491,2155.1366" fill="#FEF3C7" style="stroke:#181818;stroke-width:0.5;"/><text fill="#000000" font-family="Monospace" font-size="14" lengthAdjust="spacing" textLength="140.2795" x="334.5" y="2175.5519">actions/setup-python</text></g><!--entity tool_apt_get--><g class="entity" data-qualified-name="tool_apt_get" data-source-line="17" id="ent0012"><path d="M375.6103,391.0538 C379.1283,384.729 386.0857,384.5333 390.2659,390.2477 C393.9591,382.9274 399.9403,382.1532 405.4176,388.2299 C410.849,381.3251 418.777,381.5694 421.6212,390.8242 C425.2393,384.281 432.4387,382.793 436.9622,389.799 C447.7369,390.8975 451.7552,396.4554 445.751,406.4241 C450.6788,416.0631 446.5756,423.6522 435.4482,423.7369 C433.2607,431.4617 427.0299,432.858 421.4892,427.2467 C419.233,435.5057 413.9174,437.355 406.6666,433.2199 C398.9916,439.0791 392.6358,438.275 389.5236,428.2847 C382.5479,434.879 375.8848,431.4469 374.1316,422.956 C367.2024,418.0279 365.605,413.4197 373.5013,407.8721 C366.8073,401.804 367.7843,395.3012 375.6103,391.0538" fill="#FEF3C7" style="stroke:#181818;stroke-width:0.5;"/><text fill="#000000" font-family="Monospace" font-size="14" lengthAdjust="spacing" textLength="47.5858" x="380.85" y="411.5519">apt-get</text></g><!--entity tool_cat--><g class="entity" data-qualified-name="tool_cat" data-source-line="18" id="ent0013"><path d="M388.7482,474.6 C392.6319,464.4901 399.4992,464.8949 406.2621,471.6013 C413.7459,464.909 418.1046,467.7685 421.7138,475.6963 C430.3292,478.8491 430.8173,484.3413 425.5119,490.9583 C431.4594,497.1154 431.0812,505.0125 421.6311,507.5732 C419.3083,517.3889 412.0267,518.3882 404.6682,513.3076 C396.8532,519.3994 391.6019,516.6744 389.1927,507.7402 C378.4325,506.4906 377.0203,501.0446 381.6437,492.2823 C375.934,484.2116 377.4807,475.8495 388.7482,474.6" fill="#FEF3C7" style="stroke:#181818;stroke-width:0.5;"/><text fill="#000000" font-family="Monospace" font-size="14" lengthAdjust="spacing" textLength="19.6279" x="394.83" y="495.5519">cat</text></g><!--entity tool_client_private_key--><g class="entity" data-qualified-name="tool_client_private_key" data-source-line="19" id="ent0014"><path d="M342.9551,559.2063 C346.8336,554.2656 350.3615,553.073 354.5348,558.8888 C358.2278,552.6146 362.7112,552.075 366.7479,558.5597 C370.6061,552.137 376.1522,551.5182 380.9983,557.4171 C384.8886,550.9848 389.8121,551.8313 393.3993,557.722 C396.7275,550.8135 400.3616,550.232 405.3226,556.2115 C409.7997,549.8678 416.0193,552.4569 418.5544,558.317 C422.6147,552.5615 426.5239,552.5679 430.9229,557.9406 C434.9665,552.7859 440.1694,552.3799 443.2135,558.9852 C447.4706,551.4885 451.7327,552.2406 456.6413,558.3418 C459.8964,553.1695 465.7612,552.0142 468.8817,558.4833 C479.5474,560.7045 482.5556,566.2445 476.9433,575.9699 C481.5099,584.1164 479.9747,590.9043 469.7622,592.7115 C465.6592,600.7105 460.9354,600.5657 455.5196,593.9947 C452.588,600.3152 447.2493,599.0295 444.0207,594.3038 C440.2412,601.3618 436.2783,602.1385 431.001,595.7546 C427.3355,602.1421 422.6307,601.9984 417.9759,596.8739 C415.3239,603.6898 409.9434,604.3751 405.6084,598.516 C401.0012,603.4347 397.0045,603.0009 393.6659,597.1139 C388.8752,602.3274 384.3683,602.5902 380.1498,596.4338 C375.4865,601.6075 370.2192,601.4452 367.0276,594.7998 C362.0861,599.0707 358.2032,599.6995 355.0107,592.9011 C350.9261,599.1389 345.5732,599.7839 341.8657,592.5335 C330.1736,591.1978 327.203,584.5889 333.3886,574.7373 C328.6201,564.5251 332.5408,560.0664 342.9551,559.2063" fill="#FEF3C7" style="stroke:#181818;stroke-width:0.5;"/><text fill="#000000" font-family="Monospace" font-size="14" lengthAdjust="spacing" textLength="112.9935" x="348.15" y="579.5519">client-private-key</text></g><!--entity tool_dnf--><g class="entity" data-qualified-name="tool_dnf" data-source-line="20" id="ent0015"><path d="M387.1452,643.5454 C392.6075,633.3428 398.654,631.1343 406.7361,640.9861 C411.6228,631.9758 419.6211,632.4238 423.8611,641.5953 C435.0345,644.3473 436.5084,650.3422 429.4607,658.9675 C435.9199,665.5217 432.9377,673.1483 424.5701,675.2488 C421.2958,685.1695 412.5003,686.2943 405.8,678.9798 C399.5318,688.3751 390.7976,686.4546 386.7408,676.7707 C375.8434,674.7869 372.001,669.6069 378.7786,659.4827 C372.9862,649.4375 375.5718,644.4741 387.1452,643.5454" fill="#FEF3C7" style="stroke:#181818;stroke-width:0.5;"/><text fill="#000000" font-family="Monospace" font-size="14" lengthAdjust="spacing" textLength="22.0779" x="393.6" y="663.5519">dnf</text></g><!--entity tool_firewall_cmd--><g class="entity" data-qualified-name="tool_firewall_cmd" data-source-line="21" id="ent0016"><path d="M359.0402,727.2934 C362.5802,721.4682 367.1069,721.1675 371.0294,726.8965 C373.625,720.7456 378.3889,720.8028 382.0549,725.8418 C385.346,720.5957 390.911,721.0934 393.5718,726.5217 C395.9746,719.1965 402.2252,718.969 406.4206,724.7665 C410.3652,719.083 415.7566,720.1722 417.9793,726.4329 C422.325,720.2351 425.9687,721.9 429.8252,726.9482 C432.2653,720.6628 436.9316,721.4378 440.7279,725.5224 C444.5921,720.294 450.2048,721.9623 452.3485,727.3973 C462.3665,729.3722 466.0761,733.8061 460.395,743.5847 C467.3183,752.804 463.4331,757.7581 453.8744,760.6968 C449.8056,766.4011 444.1794,766.1864 440.8251,759.9182 C437.7869,765.7308 433.1368,767.0542 428.7635,761.3118 C425.7572,766.4502 421.9296,766.6831 418.2302,762.0597 C414.0603,767.5514 410.0266,768.042 405.5227,762.4424 C401.7171,766.986 398.3643,767.2963 394.5415,762.4624 C390.6321,769.2007 385.9105,768.5117 382.0335,762.4308 C376.9152,768.3354 372.9747,767.2967 369.0716,761.1263 C365.0515,765.907 361.0465,765.2588 358.2077,759.865 C348.0229,756.4466 347.6635,749.5689 354.3662,742.4297 C349.2475,735.5859 350.6213,729.9569 359.0402,727.2934" fill="#FEF3C7" style="stroke:#181818;stroke-width:0.5;"/><text fill="#000000" font-family="Monospace" font-size="14" lengthAdjust="spacing" textLength="81.1157" x="364.09" y="747.5519">firewall-cmd</text></g><!--entity tool_gitleaks_gitleaks_action--><g class="entity" data-qualified-name="tool_gitleaks_gitleaks_action" data-source-line="22" id="ent0017"><path d="M321.8066,2491.241 C325.947,2483.8624 330.177,2484.3546 335.4158,2490.1021 C339.3275,2484.5572 344.1595,2484.7533 347.283,2490.9019 C350.5392,2485.0427 355.0225,2485.327 358.3929,2490.7899 C361.5446,2485.4373 366.4898,2483.7826 370.5706,2489.7941 C373.2564,2484.0144 379.1413,2482.316 382.8772,2488.7347 C387.266,2482.589 391.9879,2484.8368 394.9286,2490.245 C397.4946,2485.3758 401.0411,2484.3795 404.7422,2489.081 C408.7749,2481.7533 415.2627,2483.8119 418.6078,2489.7971 C421.058,2485.3887 425.717,2485.0845 428.5231,2489.3922 C432.0761,2483.667 436.2952,2483.7997 440.2087,2489.0068 C444.9545,2483.9366 450.9864,2483.6493 454.1267,2490.8307 C457.125,2485.7014 462.1092,2484.4153 466.0206,2489.7975 C469.1513,2484.6087 472.7591,2484.4423 476.2436,2489.4426 C481.4706,2483.688 485.3826,2484.4497 488.5387,2491.4403 C498.1289,2492.1722 501.5936,2498.8689 497.8693,2507.3898 C503.7777,2517.7372 498.9816,2524.5578 487.593,2524.5423 C484.034,2529.1135 480.1213,2528.4703 477.2972,2523.7298 C474.7918,2531.4934 469.7892,2532.0551 464.4896,2526.3959 C461.3635,2531.5027 458.1417,2531.3799 454.2266,2527.275 C449.7634,2532.7258 444.9766,2534.3523 440.689,2527.0881 C437.2687,2533.1289 432.6114,2533.1167 428.624,2527.6845 C426.189,2534.0691 422.8242,2534.4353 418.0516,2529.9603 C414.3675,2535.7845 410.0873,2536.4097 405.3591,2531.1565 C400.5663,2535.7984 396.3759,2535.9946 392.9081,2529.6542 C389.1428,2534.2609 383.8424,2534.2998 381.2412,2528.3657 C377.7598,2533.7399 373.471,2532.8269 370.6738,2527.6785 C366.9166,2534.4794 361.6216,2533.7734 358.0792,2527.472 C353.7449,2531.8695 349.1875,2531.3666 346.4251,2525.6591 C342.5541,2531.3364 337.1276,2528.9604 334.9768,2523.8359 C332.061,2530.329 326.3037,2530.5773 322.5763,2524.6459 C312.8682,2522.0087 311.3088,2514.2476 317.6431,2507.0999 C310.6884,2500.779 313.5918,2493.5793 321.8066,2491.241" fill="#FEF3C7" style="stroke:#181818;stroke-width:0.5;"/><text fill="#000000" font-family="Monospace" font-size="14" lengthAdjust="spacing" textLength="151.7174" x="328.79" y="2511.5519">gitleaks/gitleaks-action</text></g><!--entity tool_grep--><g class="entity" data-qualified-name="tool_grep" data-source-line="23" id="ent0018"><path d="M383.5192,810.5826 C386.196,806.1742 390.7181,805.0333 393.8797,810.0496 C397.1103,803.0741 401.0601,802.1595 406.6239,807.6678 C409.7621,802.9036 415.0102,804.0727 417.2812,808.6566 C421.6609,804.6923 425.5213,805.3747 427.8598,810.9259 C437.7774,813.6968 437.6725,820.0732 432.1752,826.9861 C438.9946,834.8649 436.1541,840.0644 427.6145,843.7697 C425.4551,849.9212 421.898,851.7402 416.3364,847.4414 C414.5557,852.3233 409.7578,854.3708 405.7985,849.8947 C399.8988,853.4637 395.9093,852.7509 393.5292,845.7926 C389.596,850.3564 384.4525,848.5449 382.8888,843.2383 C373.174,841.1167 370.5877,833.3785 377.938,826.2761 C372.1933,819.349 374.6503,812.3126 383.5192,810.5826" fill="#FEF3C7" style="stroke:#181818;stroke-width:0.5;"/><text fill="#000000" font-family="Monospace" font-size="14" lengthAdjust="spacing" textLength="30.8979" x="389.19" y="831.5519">grep</text></g><!--entity tool_icanhazip_com--><g class="entity" data-qualified-name="tool_icanhazip_com" data-source-line="24" id="ent0019"><path d="M352.0233,895.655 C355.301,889.9884 360.1868,889.2787 364.2328,894.8179 C367.6627,886.6979 374.9163,887.6968 379.2633,893.8523 C383.5643,887.9015 387.3348,887.072 391.6201,893.8676 C395.835,885.4314 400.4752,884.8408 406.5958,892.0427 C410.1882,886.257 416.2928,885.8606 419.2747,892.658 C423.9453,887.3467 428.4884,885.6395 432.692,893.147 C438.0169,885.8133 443.1811,887.224 447.1342,894.5029 C451.6133,888.8486 456.7347,889.7131 460.2429,895.6051 C469.9095,898.0318 470.5894,904.364 465.2067,911.4926 C470.8852,919.0564 470.6817,924.6515 460.385,927.3613 C456.66,933.4454 450.3829,935.3248 446.2533,927.7808 C443.3165,934.4811 437.5532,934.4392 433.6598,928.7534 C430.0999,936.1418 423.9694,936.4494 419.1705,930.056 C416.2949,936.7488 410.6401,937.2024 405.9975,932.0154 C401.8746,938.3554 396.2023,937.9179 392.1647,931.9199 C387.689,938.5625 381.4274,937.3949 378.3679,930.4788 C373.7985,934.9419 369.6765,935.6166 366.2795,929.1787 C361.1312,934.9395 356.1965,935.21 352.2305,927.9073 C343.7124,924.5379 341.8974,919.3079 347.7426,911.9093 C342.151,905.3447 343.3476,898.4623 352.0233,895.655" fill="#FEF3C7" style="stroke:#181818;stroke-width:0.5;"/><text fill="#000000" font-family="Monospace" font-size="14" lengthAdjust="spacing" textLength="94.1776" x="357.56" y="915.5519">icanhazip.com</text></g><!--entity tool_install--><g class="entity" data-qualified-name="tool_install" data-source-line="25" id="ent0020"><path d="M379.0663,977.8166 C383.2149,972.6082 388.1556,971.405 391.8168,978.3288 C396.1022,969.8537 401.2542,971.1889 406.7726,977.0418 C410.2818,972.403 415.1171,971.8352 418.0898,977.624 C423.5196,970.6536 428.0547,970.8438 432.7671,978.3512 C442.9288,978.2421 447.3749,986.3147 441.4052,994.719 C446.0227,1003.5994 441.7056,1009.6713 432.4178,1010.7618 C429.8624,1018.7509 424.1118,1019.6491 418.8101,1013.3835 C414.9911,1021.4015 410.0925,1021.4121 404.6679,1014.9519 C400.2633,1020.8093 395.7569,1020.1928 392.6459,1013.6933 C388.7178,1018.6324 382.3863,1017.8961 379.6619,1012.2208 C368.6909,1010.0718 367.8595,1004.3343 372.5476,995.5163 C365.2276,986.0054 367.3458,980.3149 379.0663,977.8166" fill="#FEF3C7" style="stroke:#181818;stroke-width:0.5;"/><text fill="#000000" font-family="Monospace" font-size="14" lengthAdjust="spacing" textLength="39.1019" x="385.09" y="999.5519">install</text></g><!--entity tool_pip--><g class="entity" data-qualified-name="tool_pip" data-source-line="26" id="ent0021"><path d="M388.5212,2237.6547 C392.8655,2230.0268 400.3307,2228.5641 405.7851,2236.4166 C413.1931,2228.3027 419.3018,2230.2502 423.5905,2239.5974 C432.9619,2240.8495 437.0219,2245.7421 432.187,2254.9492 C438.2778,2264.6759 432.6044,2271.1001 422.7161,2271.8976 C419.8061,2281.8732 414.1152,2284.2406 405.7333,2277.4354 C397.4173,2284.5477 389.6026,2280.6446 387.6146,2270.7097 C379.802,2266.4311 377.37,2261.8088 384.8787,2254.8819 C377.8108,2247.6639 378.6957,2241.3008 388.5212,2237.6547" fill="#FEF3C7" style="stroke:#181818;stroke-width:0.5;"/><text fill="#000000" font-family="Monospace" font-size="14" lengthAdjust="spacing" textLength="20.8319" x="394.23" y="2259.5519">pip</text></g><!--entity tool_pre_commit--><g class="entity" data-qualified-name="tool_pre_commit" data-source-line="27" id="ent0022"><path d="M360.8072,2322.0388 C363.5931,2316.9424 368.169,2317.3041 370.9129,2322.0818 C375.0071,2315.8345 380.3735,2317.264 383.8436,2322.7686 C387.177,2317.2588 390.4473,2316.8309 394.2043,2322.3715 C397.1095,2315.444 401.6797,2315.408 406.4278,2320.4969 C410.2556,2315.2347 414.6672,2317.3399 416.9608,2322.1079 C420.1078,2316.9573 424.1537,2316.7425 427.689,2321.6955 C431.5436,2315.8307 436.466,2316.956 439.5461,2322.5003 C442.6273,2316.7724 447.2881,2318.0767 450.2763,2322.5977 C458.5048,2326.409 459.1861,2333.4227 452.0236,2338.8852 C460.044,2343.8487 459.525,2349.5303 452.1924,2354.6581 C448.996,2360.0806 444.6913,2360.8231 440.7497,2355.4478 C438.0779,2362.1361 432.9986,2362.3925 428.471,2357.3982 C424.4897,2362.8045 421.158,2362.0656 417.4246,2357.1332 C415.005,2362.8441 409.7188,2362.9858 406.7036,2357.7147 C403.2817,2362.4701 398.1644,2362.8892 395.0358,2357.3812 C390.9978,2361.1785 386.2695,2361.4632 384.1236,2355.307 C381.1116,2362.349 374.9541,2361.5834 370.9027,2356.4343 C367.3468,2360.931 361.6987,2360.5679 359.3347,2355.0567 C350.5279,2353.9077 347.5725,2345.6623 352.4487,2338.7391 C347.7321,2329.3362 349.1516,2323.2474 360.8072,2322.0388" fill="#FEF3C7" style="stroke:#181818;stroke-width:0.5;"/><text fill="#000000" font-family="Monospace" font-size="14" lengthAdjust="spacing" textLength="76.8317" x="366.23" y="2343.5519">pre-commit</text></g><!--entity tool_print--><g class="entity" data-qualified-name="tool_print" data-source-line="28" id="ent0023"><path d="M382.7842,1062.2559 C385.7397,1056.717 389.9819,1056.1882 393.4878,1061.7239 C395.7904,1056.3402 400.8358,1054.0771 405.2317,1059.4354 C409.6918,1055.0762 414.321,1055.1099 416.9955,1061.4067 C421.207,1055.747 426.9735,1057.3056 429.6162,1063.1307 C438.9046,1067.8087 439.1973,1073.0288 431.8259,1079.9018 C438.1949,1085.7468 435.5135,1092.7814 428.0931,1095.2791 C426.449,1100.2921 422.4714,1102.5485 417.993,1098.4059 C414.662,1105.3468 409.8913,1106.028 405.4025,1099.4871 C401.0106,1103.5124 397.3623,1104.1021 394.6301,1097.7622 C390.4135,1102.929 386.6428,1102.4695 383.8824,1096.3727 C374.4251,1094.2005 372.0353,1086.365 377.4841,1078.7735 C370.741,1071.7242 374.1712,1064.3779 382.7842,1062.2559" fill="#FEF3C7" style="stroke:#181818;stroke-width:0.5;"/><text fill="#000000" font-family="Monospace" font-size="14" lengthAdjust="spacing" textLength="31.7099" x="388.79" y="1083.5519">print</text></g><!--entity tool_qrencode--><g class="entity" data-qualified-name="tool_qrencode" data-source-line="29" id="ent0024"><path d="M366.8573,1147.106 C371.0226,1141.5998 374.9227,1140.4713 379.1807,1147.0111 C383.6062,1141.56 387.5901,1139.8875 392.362,1146.6368 C395.1466,1140.0859 401.8586,1138.9331 406.1076,1145.0475 C409.5507,1138.7659 413.7331,1139.6445 417.4608,1144.764 C421.4691,1138.7622 428.441,1138.564 431.3059,1145.9468 C435.7261,1139.2003 440.4739,1139.8568 445.0668,1145.7589 C455.1346,1146.6092 459.0751,1154.4434 454.5022,1163.2098 C460.8052,1173.5626 454.9281,1181.3357 443.598,1180.6872 C440.6175,1186.3753 434.7115,1186.8561 431.1789,1181.2967 C428.9216,1189.3991 424.6822,1190.3998 418.4531,1185.0556 C416.2561,1191.2369 410.4858,1192.4213 406.3453,1187.1018 C401.4394,1192.5244 395.7047,1193.2196 392.4183,1185.3987 C387.4578,1189.291 382.456,1188.9819 380.3238,1182.1954 C374.9431,1189.0432 370.4214,1186.7272 366.4988,1180.6372 C356.0531,1178.6847 353.5831,1171.3743 358.3222,1162.5553 C353.6431,1153.908 356.8853,1147.659 366.8573,1147.106" fill="#FEF3C7" style="stroke:#181818;stroke-width:0.5;"/><text fill="#000000" font-family="Monospace" font-size="14" lengthAdjust="spacing" textLength="62.6358" x="373.33" y="1167.5519">qrencode</text></g><!--entity tool_rm--><g class="entity" data-qualified-name="tool_rm" data-source-line="30" id="ent0025"><path d="M390.3992,1231.4757 C393.6626,1222.8172 399.8068,1221.815 406.5315,1227.6131 C412.9368,1220.085 419.8247,1222.9555 422.7016,1231.2248 C432.2475,1234.012 431.7332,1240.4751 426.2565,1246.7108 C433.4719,1253.2322 431.3441,1259.7566 423.2412,1263.5321 C422.8366,1276.4253 414.3744,1278.2675 404.775,1272.7593 C397.2768,1276.8399 389.5756,1274.253 389.5636,1264.5173 C380.0482,1262.1836 377.0574,1255.4551 384.3703,1247.8713 C377.671,1240.3213 382.1191,1233.5176 390.3992,1231.4757" fill="#FEF3C7" style="stroke:#181818;stroke-width:0.5;"/><text fill="#000000" font-family="Monospace" font-size="14" lengthAdjust="spacing" textLength="18.8719" x="395.21" y="1251.5519">rm</text></g><!--entity tool_run--><g class="entity" data-qualified-name="tool_run" data-source-line="31" id="ent0026"><path d="M386.3102,1903.2186 C391.1818,1894.0773 399.4848,1892.4777 406.5451,1900.6623 C412.4087,1892.8984 420.7335,1894.6363 424.1327,1903.3006 C433.7223,1904.0093 439.4116,1908.7625 433.9244,1918.9217 C439.1585,1928.3682 435.6565,1933.788 425.283,1934.6708 C425.0446,1947.3955 418.7131,1952.3901 406.7197,1946.219 C395.813,1951.2516 388.6506,1949.7656 387.9502,1936.0183 C378.2893,1935.1836 374.5011,1927.0921 379.8539,1919.0807 C374.7985,1910.9537 377.2147,1905.5858 386.3102,1903.2186" fill="#FEF3C7" style="stroke:#181818;stroke-width:0.5;"/><text fill="#000000" font-family="Monospace" font-size="14" lengthAdjust="spacing" textLength="23.0859" x="393.1" y="1923.5519">run</text></g><!--entity tool_server_public_key--><g class="entity" data-qualified-name="tool_server_public_key" data-source-line="32" id="ent0027"><path d="M343.1951,1315.2063 C347.0571,1310.2855 350.5703,1309.0974 354.7272,1314.8888 C358.4051,1308.6387 362.871,1308.1006 366.8927,1314.5597 C370.7364,1308.1573 376.2639,1307.5391 381.0955,1313.4171 C384.9715,1307.0098 389.876,1307.8535 393.4489,1313.722 C396.7606,1306.839 400.3801,1306.258 405.3246,1312.2115 C409.7896,1305.8926 415.9858,1308.476 418.5088,1314.317 C422.5528,1308.5831 426.447,1308.589 430.8297,1313.9406 C434.8594,1308.8071 440.0425,1308.4043 443.0727,1314.9852 C447.3134,1307.5143 451.5606,1308.2631 456.4529,1314.3418 C459.6956,1309.1898 465.5377,1308.0392 468.6457,1314.4833 C479.3114,1316.7045 482.3196,1322.2445 476.7073,1331.9699 C481.2739,1340.1164 479.7387,1346.9043 469.5262,1348.7115 C465.4392,1356.6852 460.731,1356.5423 455.3312,1349.9947 C452.4124,1356.2894 447.0957,1355.0096 443.8799,1350.3038 C440.1169,1357.3379 436.1686,1358.1133 430.9078,1351.7546 C427.2576,1358.12 422.5698,1357.9784 417.9303,1352.8739 C415.2918,1359.6654 409.9319,1360.3508 405.6104,1354.516 C401.019,1359.4132 397.0383,1358.9793 393.7155,1353.1139 C388.9407,1358.3083 384.4496,1358.5693 380.247,1352.4338 C375.598,1357.5869 370.3496,1357.4229 367.1724,1350.7998 C362.2474,1355.0512 358.3791,1355.6752 355.2031,1348.9011 C351.1327,1355.1159 345.799,1355.758 342.1057,1348.5335 C330.4136,1347.1978 327.443,1340.5889 333.6286,1330.7373 C328.8601,1320.5251 332.7808,1316.0664 343.1951,1315.2063" fill="#FEF3C7" style="stroke:#181818;stroke-width:0.5;"/><text fill="#000000" font-family="Monospace" font-size="14" lengthAdjust="spacing" textLength="112.5175" x="348.39" y="1335.5519">server-public-key</text></g><!--entity tool_summarize--><g class="entity" data-qualified-name="tool_summarize" data-source-line="33" id="ent0028"><path d="M362.1762,1986.0562 C367.3705,1978.436 372.6079,1980.0097 377.0354,1986.8443 C380.6519,1979.6933 386.3594,1979.9275 390.4402,1986.387 C395.2742,1978.9235 400.0409,1977.6534 406.2459,1984.9153 C410.3067,1977.5478 417.4065,1977.8137 421.0306,1985.3487 C425.6151,1978.4893 432.5065,1978.7664 435.7224,1986.7073 C439.3589,1980.8927 446.059,1980.3303 449.2217,1987.2111 C458.5894,1987.2818 462.6994,1995.0986 457.6093,2002.8992 C463.5539,2011.5123 459.8813,2017.5148 450.2864,2019.1069 C446.5044,2026.9585 438.9145,2026.8664 433.9962,2020.3998 C430.6899,2028.5169 425.4083,2028.0079 420.1495,2022.3645 C417.3574,2029.7454 410.4739,2029.2325 406.4146,2023.7139 C401.5856,2029.2907 396.6155,2030.2699 392.2781,2023.1659 C386.7202,2028.8338 380.3988,2028.1427 377.3019,2020.4146 C373.112,2028.1344 366.6219,2028.1744 362.7476,2020.1233 C352.1876,2019.268 350.2551,2009.9656 355.6971,2002.6525 C350.3833,1995.4686 351.4492,1986.9778 362.1762,1986.0562" fill="#FEF3C7" style="stroke:#181818;stroke-width:0.5;"/><text fill="#000000" font-family="Monospace" font-size="14" lengthAdjust="spacing" textLength="73.2617" x="368.01" y="2007.5519">summarize</text></g><!--entity tool_sysctl--><g class="entity" data-qualified-name="tool_sysctl" data-source-line="34" id="ent0029"><path d="M381.3543,1399.3979 C383.9271,1393.2338 387.7448,1393.1075 392.3217,1397.2694 C396.3485,1390.3474 400.3744,1391.3773 405.2491,1396.3477 C409.282,1391.5352 414.2065,1391.7765 417.6926,1397.0239 C421.9881,1391.7905 427.236,1392.8362 430.1076,1398.6274 C439.7661,1398.4634 445.8061,1405.3577 440.8703,1414.8664 C447.5226,1424.9369 442.3784,1433.5807 430.3406,1432.4742 C425.9706,1437.5714 422.0879,1439.2461 417.739,1432.4519 C414.008,1437.7399 410.0493,1439.1162 405.8675,1432.9179 C402.3086,1438.1596 395.9509,1438.2911 392.8366,1432.3976 C388.5937,1438.8175 383.3106,1437.9729 379.687,1431.7533 C369.7479,1429.3524 367.6491,1422.0874 373.7307,1414.2383 C368.4252,1405.7822 372.4582,1400.5586 381.3543,1399.3979" fill="#FEF3C7" style="stroke:#181818;stroke-width:0.5;"/><text fill="#000000" font-family="Monospace" font-size="14" lengthAdjust="spacing" textLength="35.9379" x="386.67" y="1419.5519">sysctl</text></g><!--entity tool_systemctl--><g class="entity" data-qualified-name="tool_systemctl" data-source-line="35" id="ent0030"><path d="M366.8043,1481.8514 C370.2448,1475.9326 376.7693,1475.2508 379.87,1482.1964 C383.6116,1475.4857 388.6485,1475.4089 393.1823,1481.3635 C397.2141,1475.1164 401.7524,1475.609 406.1976,1480.8971 C409.7415,1474.8629 413.4075,1475.4457 417.3513,1480.4946 C422.3121,1473.8353 426.7837,1474.7962 430.5966,1481.6221 C434.184,1476.2617 440.4225,1475.3541 443.4765,1482.1856 C452.1728,1484.9182 455.1691,1493.1257 448.6898,1500.2403 C454.0252,1506.0449 452.242,1512.8269 444.6604,1515.1379 C442.091,1523.6765 436.5583,1524.3477 430.251,1519.023 C427.5889,1524.6231 423.4498,1525.3708 418.7965,1521.4082 C415.9341,1528.0311 410.6162,1530.0237 405.6694,1523.4876 C400.228,1529.0577 395.7952,1527.7294 393.2995,1520.6149 C388.9027,1525.9085 383.1829,1526.2834 380.2661,1519.0724 C375.3475,1523.1416 370.928,1523.8712 368.3684,1516.598 C357.6043,1513.4798 357.4623,1507.6123 363.3376,1499.5762 C356.5574,1492.318 356.8447,1485.8356 366.8043,1481.8514" fill="#FEF3C7" style="stroke:#181818;stroke-width:0.5;"/><text fill="#000000" font-family="Monospace" font-size="14" lengthAdjust="spacing" textLength="61.9778" x="373.65" y="1503.5519">systemctl</text></g><!--entity tool_tachometer--><g class="entity" data-qualified-name="tool_tachometer" data-source-line="36" id="ent0031"><path d="M360.9872,2070.0388 C363.7607,2064.9654 368.316,2065.3255 371.0474,2070.0818 C375.1284,2063.8572 380.4757,2065.2827 383.9326,2070.7686 C387.2505,2065.2824 390.5063,2064.8558 394.2478,2070.3715 C397.1386,2063.4675 401.6921,2063.4291 406.4258,2068.4969 C410.2408,2063.2594 414.6324,2065.3585 416.9133,2070.1079 C420.0461,2064.9786 424.0749,2064.7641 427.596,2069.6955 C431.4374,2063.8541 436.3407,2064.9764 439.4076,2070.5003 C442.476,2064.7968 447.1169,2066.0957 450.0923,2070.5977 C458.3208,2074.409 459.0021,2081.4227 451.8396,2086.8852 C459.86,2091.8487 459.341,2097.5303 452.0084,2102.6581 C448.8261,2108.06 444.5387,2108.8007 440.6112,2103.4478 C437.9529,2110.1134 432.8921,2110.3719 428.378,2105.3982 C424.4125,2110.7819 421.0946,2110.0457 417.3771,2105.1332 C414.9691,2110.8205 409.7053,2110.9628 406.7016,2105.7147 C403.2925,2110.4512 398.195,2110.8681 395.0793,2105.3812 C391.0547,2109.1602 386.3451,2109.4401 384.2126,2103.307 C381.213,2110.3258 375.0763,2109.5646 371.0372,2104.4343 C367.4931,2108.912 361.867,2108.5476 359.5147,2103.0567 C350.7079,2101.9077 347.7525,2093.6623 352.6287,2086.7391 C347.9121,2077.3362 349.3316,2071.2474 360.9872,2070.0388" fill="#FEF3C7" style="stroke:#181818;stroke-width:0.5;"/><text fill="#000000" font-family="Monospace" font-size="14" lengthAdjust="spacing" textLength="76.4677" x="366.41" y="2091.5519">tachometer</text></g><!--entity tool_value--><g class="entity" data-qualified-name="tool_value" data-source-line="37" id="ent0032"><path d="M381.7643,1567.3979 C384.2699,1561.3349 388.0191,1561.1976 392.5287,1565.2694 C396.4848,1558.4511 400.4491,1559.4604 405.2531,1564.3477 C409.2246,1559.6171 414.0688,1559.8588 417.4936,1565.0239 C421.7309,1559.8836 426.8922,1560.9234 429.7056,1566.6274 C439.3641,1566.4634 445.4041,1573.3577 440.4683,1582.8664 C447.1206,1592.9369 441.9763,1601.5807 429.9386,1600.4742 C425.6388,1605.4891 421.8187,1607.1367 417.54,1600.4519 C413.8762,1605.6521 409.9861,1607.0076 405.8715,1600.9179 C402.3647,1606.0759 396.1058,1606.2014 393.0436,1600.3976 C388.8612,1606.7154 383.6601,1605.8798 380.097,1599.7533 C370.1579,1597.3524 368.0591,1590.0874 374.1407,1582.2383 C368.8352,1573.7822 372.8682,1568.5586 381.7643,1567.3979" fill="#FEF3C7" style="stroke:#181818;stroke-width:0.5;"/><text fill="#000000" font-family="Monospace" font-size="14" lengthAdjust="spacing" textLength="35.1259" x="387.08" y="1587.5519">value</text></g><!--entity tool_wg--><g class="entity" data-qualified-name="tool_wg" data-source-line="38" id="ent0033"><path d="M388.7582,1650.6 C392.6397,1640.4937 399.5044,1640.898 406.2651,1647.6013 C413.7465,1640.9126 418.103,1643.7715 421.7098,1651.6963 C430.3252,1654.8491 430.8133,1660.3413 425.5078,1666.9583 C431.4554,1673.1154 431.0772,1681.0125 421.6271,1683.5732 C419.3064,1693.3856 412.0276,1694.3854 404.6712,1689.3076 C396.8585,1695.3958 391.6097,1692.6711 389.2027,1683.7402 C378.4425,1682.4906 377.0303,1677.0446 381.6537,1668.2823 C375.944,1660.2116 377.4907,1651.8495 388.7582,1650.6" fill="#FEF3C7" style="stroke:#181818;stroke-width:0.5;"/><text fill="#000000" font-family="Monospace" font-size="14" lengthAdjust="spacing" textLength="19.6139" x="394.84" y="1671.5519">wg</text></g><!--entity tool_wireguard_public_vpn--><g class="entity" data-qualified-name="tool_wireguard_public_vpn" data-source-line="39" id="ent0034"><path d="M327.2701,1735.7727 C331.2705,1729.5698 335.9022,1729.3794 340.1228,1735.5438 C342.1978,1729.0459 347.3336,1729.4288 351.2926,1733.5648 C354.5873,1729.1261 358.0907,1728.5349 361.8325,1733.0379 C365.7337,1729.0605 369.8124,1728.4467 372.6505,1734.2176 C376.2872,1728.8796 380.5345,1728.2546 384.1998,1734.1883 C386.2801,1728.9113 391.3534,1727.8088 394.9586,1732.5509 C398.4697,1728.1988 402.846,1726.9339 405.8538,1733.0736 C408.7231,1728.1234 413.4296,1727.6781 416.8224,1732.485 C420.3483,1726.4328 424.8462,1726.8126 428.1745,1732.6733 C431.8348,1727.9217 437.398,1729.3521 439.4998,1734.463 C442.2997,1729.0052 446.1072,1730.0442 449.278,1734.0809 C453.195,1729.0399 457.1127,1729.5043 460.9258,1734.2051 C464.5955,1727.6629 468.5033,1727.924 472.9812,1733.3938 C476.2719,1728.459 479.4883,1729.493 482.28,1733.891 C490.8772,1738.4752 492.2176,1744.5468 485.8238,1752.0556 C492.1856,1757.687 491.2854,1763.2429 483.6524,1766.8154 C480.892,1771.8025 476.354,1771.6272 472.9725,1767.5469 C469.4372,1773.3239 465.9597,1773.2625 461.6255,1768.3989 C458.7732,1774.6996 455.1506,1774.7851 450.2408,1770.6416 C447.0489,1775.8179 441.7005,1775.6259 439.4021,1769.7641 C437.0357,1775.943 431.2354,1775.2292 427.9867,1770.7051 C425.8167,1776.5274 421.8072,1777.0956 417.8556,1772.4251 C414.4787,1778.2158 409.5199,1778.662 405.0962,1773.663 C401.2136,1777.7354 397.0318,1778.0151 394.2033,1772.4693 C390.4129,1776.4728 387.0943,1776.5697 384.3453,1771.3556 C380.2527,1777.7157 376.134,1776.4078 372.065,1771.3302 C368.6047,1774.9512 363.8639,1773.7677 362.1878,1769.1826 C358.7489,1776.0551 354.1755,1776.4166 349.7328,1770.133 C346.0863,1775.1155 341.2689,1774.3811 338.4377,1769.2247 C334.6106,1773.484 330.3945,1773.2621 327.517,1768.1214 C318.983,1764.9073 316.6799,1757.855 323.4284,1750.9929 C316.5728,1745.0549 317.9211,1737.6206 327.2701,1735.7727" fill="#FEF3C7" style="stroke:#181818;stroke-width:0.5;"/><text fill="#000000" font-family="Monospace" font-size="14" lengthAdjust="spacing" textLength="141.0074" x="334.14" y="1755.5519">wireguard-public-vpn</text></g><!--entity tool_yum--><g class="entity" data-qualified-name="tool_yum" data-source-line="40" id="ent0035"><path d="M385.2752,1818.8919 C389.5486,1807.0246 399.5591,1807.4426 406.3482,1816.3386 C413.2523,1808.3104 422.0469,1808.9474 426.7924,1818.8058 C436.3279,1822.765 435.526,1828.0786 429.776,1834.8758 C436.7467,1842.0856 435.7047,1848.4844 426.1838,1852.2928 C424.2628,1858.0527 420.915,1858.931 416.1539,1855.3388 C415.0731,1860.785 410.449,1862.2487 406.5142,1858.2522 C401.2541,1863.1309 397.0961,1861.8266 394.5325,1855.3955 C390.2385,1858.1296 386.8995,1857.1318 385.2956,1852.1678 C376.7964,1849.346 374.1693,1840.6182 381.2205,1834.2582 C374.7906,1826.9187 375.6632,1821.9984 385.2752,1818.8919" fill="#FEF3C7" style="stroke:#181818;stroke-width:0.5;"/><text fill="#000000" font-family="Monospace" font-size="14" lengthAdjust="spacing" textLength="28.8819" x="390.2" y="1839.5519">yum</text></g><g class="entity" data-qualified-name="toolingGraphSummary" data-source-line="73" id="ent0067"><path d="M26.64,842.4159 L26.64,887.828 L234.1512,887.828 L234.1512,852.4159 L224.1512,842.4159 L26.64,842.4159" fill="#FEFFDD" style="stroke:#181818;stroke-width:0.5;"/><path d="M224.1512,842.4159 L224.1512,852.4159 L234.1512,852.4159 L224.1512,842.4159" fill="#FEFFDD" style="stroke:#181818;stroke-width:1;"/><text fill="#000000" font-family="Monospace" font-size="13" lengthAdjust="spacing" textLength="186.5112" x="32.64" y="861.3129">Scanned&#160;4&#160;tooling&#160;entrypoints.</text><text fill="#000000" font-family="Monospace" font-size="13" lengthAdjust="spacing" textLength="179.2182" x="32.64" y="879.019">Detected&#160;30&#160;third-party&#160;tools.</text></g><!--link source_github_workflows_ci_yml to tool_actions_checkout--><g class="link" data-entity-1="ent0002" data-entity-2="ent0010" data-link-type="dependency" data-source-line="41" id="lnk36"><path d="M222.19,2333.9859 C279.52,2333.9859 342.5,2333.9859 342.5,2333.9859 C342.5,2333.9859 342.5,2365.0459 342.5,2391.1059" fill="none" id="source_github_workflows_ci_yml-to-tool_actions_checkout" style="stroke:#181818;stroke-width:1;"/><polygon fill="#181818" points="342.5,2397.1059,346.5,2388.1059,342.5,2392.1059,338.5,2388.1059,342.5,2397.1059" style="stroke:#181818;stroke-width:1;"/></g><!--link source_github_workflows_ci_yml to tool_actions_setup_python--><g class="link" data-entity-1="ent0002" data-entity-2="ent0011" data-link-type="dependency" data-source-line="42" id="lnk37"><path d="M222.05,2295.2359 C272.31,2295.2359 324.5,2295.2359 324.5,2295.2359 C324.5,2295.2359 324.5,2237.6459 324.5,2201.1359" fill="none" id="source_github_workflows_ci_yml-to-tool_actions_setup_python" style="stroke:#181818;stroke-width:1;"/><polygon fill="#181818" points="324.5,2195.1359,320.5,2204.1359,324.5,2200.1359,328.5,2204.1359,324.5,2195.1359" style="stroke:#181818;stroke-width:1;"/></g><!--link source_github_workflows_ci_yml to tool_pip--><g class="link" data-entity-1="ent0002" data-entity-2="ent0021" data-link-type="dependency" data-source-line="43" id="lnk38"><path d="M222.05,2304.4059 C301.73,2304.4059 404.5,2304.4059 404.5,2304.4059 C404.5,2304.4059 404.5,2297.6359 404.5,2284.9759" fill="none" id="source_github_workflows_ci_yml-to-tool_pip" style="stroke:#181818;stroke-width:1;"/><polygon fill="#181818" points="404.5,2278.9759,400.5,2287.9759,404.5,2283.9759,408.5,2287.9759,404.5,2278.9759" style="stroke:#181818;stroke-width:1;"/></g><!--link source_github_workflows_ci_yml to tool_pre_commit--><g class="link" data-entity-1="ent0002" data-entity-2="ent0022" data-link-type="dependency" data-source-line="44" id="lnk39"><path d="M222.1,2323.7859 C264.92,2323.7859 308.4,2323.7859 345.04,2323.7859" fill="none" id="source_github_workflows_ci_yml-to-tool_pre_commit" style="stroke:#181818;stroke-width:1;"/><polygon fill="#181818" points="351.04,2323.7859,342.04,2319.7859,346.04,2323.7859,342.04,2327.7859,351.04,2323.7859" style="stroke:#181818;stroke-width:1;"/></g><!--link source_github_workflows_secret_scan_yml to tool_actions_checkout--><g class="link" data-entity-1="ent0003" data-entity-2="ent0010" data-link-type="dependency" data-source-line="45" id="lnk40"><path d="M254.28,2431.3559 C281.39,2431.3559 303.2,2431.3559 327.41,2431.3559" fill="none" id="source_github_workflows_secret_scan_yml-to-tool_actions_checkout" style="stroke:#181818;stroke-width:1;"/><polygon fill="#181818" points="333.41,2431.3559,324.41,2427.3559,328.41,2431.3559,324.41,2435.3559,333.41,2431.3559" style="stroke:#181818;stroke-width:1;"/></g><!--link source_github_workflows_secret_scan_yml to tool_gitleaks_gitleaks_action--><g class="link" data-entity-1="ent0003" data-entity-2="ent0017" data-link-type="dependency" data-source-line="46" id="lnk41"><path d="M254.17,2460.4259 C294.22,2460.4259 328.5,2460.4259 328.5,2460.4259 C328.5,2460.4259 328.5,2464.4659 328.5,2475.1359" fill="none" id="source_github_workflows_secret_scan_yml-to-tool_gitleaks_gitleaks_action" style="stroke:#181818;stroke-width:1;"/><polygon fill="#181818" points="328.5,2481.1359,332.5,2472.1359,328.5,2476.1359,324.5,2472.1359,328.5,2481.1359" style="stroke:#181818;stroke-width:1;"/></g><!--link source_scripts_run_tachometer_profile_sh to tool_run--><g class="link" data-entity-1="ent0004" data-entity-2="ent0026" data-link-type="dependency" data-source-line="47" id="lnk42"><path d="M249.5,1972.7459 C249.5,1948.5159 249.5,1918.1259 249.5,1918.1259 C249.5,1918.1259 327.17,1918.1259 371.62,1918.1259" fill="none" id="source_scripts_run_tachometer_profile_sh-to-tool_run" style="stroke:#181818;stroke-width:1;"/><polygon fill="#181818" points="377.62,1918.1259,368.62,1914.1259,372.62,1918.1259,368.62,1922.1259,377.62,1918.1259" style="stroke:#181818;stroke-width:1;"/></g><!--link source_scripts_run_tachometer_profile_sh to tool_summarize--><g class="link" data-entity-1="ent0004" data-entity-2="ent0028" data-link-type="dependency" data-source-line="48" id="lnk43"><path d="M251.88,2002.1259 C287.27,2002.1259 318.07,2002.1259 346.68,2002.1259" fill="none" id="source_scripts_run_tachometer_profile_sh-to-tool_summarize" style="stroke:#181818;stroke-width:1;"/><polygon fill="#181818" points="352.68,2002.1259,343.68,1998.1259,347.68,2002.1259,343.68,2006.1259,352.68,2002.1259" style="stroke:#181818;stroke-width:1;"/></g><!--link source_scripts_run_tachometer_profile_sh to tool_tachometer--><g class="link" data-entity-1="ent0004" data-entity-2="ent0031" data-link-type="dependency" data-source-line="49" id="lnk44"><path d="M236.5,2031.5059 C236.5,2055.7259 236.5,2086.1259 236.5,2086.1259 C236.5,2086.1259 295.77,2086.1259 344.98,2086.1259" fill="none" id="source_scripts_run_tachometer_profile_sh-to-tool_tachometer" style="stroke:#181818;stroke-width:1;"/><polygon fill="#181818" points="350.98,2086.1259,341.98,2082.1259,345.98,2086.1259,341.98,2090.1259,350.98,2086.1259" style="stroke:#181818;stroke-width:1;"/></g><!--link source_scripts_setup_wireguard_sh to tool_endpoint--><g class="link" data-entity-1="ent0005" data-entity-2="ent0006" data-link-type="dependency" data-source-line="50" id="lnk45"><path d="M229.85,939.6459 C233.42,939.6459 235.5,939.6459 235.5,939.6459 C235.5,939.6459 235.5,70.1259 235.5,70.1259 C235.5,70.1259 303.65,70.1259 353.76,70.1259" fill="none" id="source_scripts_setup_wireguard_sh-to-tool_endpoint" style="stroke:#181818;stroke-width:1;"/><polygon fill="#181818" points="359.76,70.1259,350.76,66.1259,354.76,70.1259,350.76,74.1259,359.76,70.1259" style="stroke:#181818;stroke-width:1;"/></g><!--link source_scripts_setup_wireguard_sh to tool_nn--><g class="link" data-entity-1="ent0005" data-entity-2="ent0007" data-link-type="dependency" data-source-line="51" id="lnk46"><path d="M229.8,944.6359 C234.62,944.6359 237.5,944.6359 237.5,944.6359 C237.5,944.6359 237.5,154.1259 237.5,154.1259 C237.5,154.1259 321.16,154.1259 369.15,154.1259" fill="none" id="source_scripts_setup_wireguard_sh-to-tool_nn" style="stroke:#181818;stroke-width:1;"/><polygon fill="#181818" points="375.15,154.1259,366.15,150.1259,370.15,154.1259,366.15,158.1259,375.15,154.1259" style="stroke:#181818;stroke-width:1;"/></g><!--link source_scripts_setup_wireguard_sh to tool_nn_oo--><g class="link" data-entity-1="ent0005" data-entity-2="ent0008" data-link-type="dependency" data-source-line="52" id="lnk47"><path d="M230.02,949.6259 C235.31,949.6259 238.5,949.6259 238.5,949.6259 C238.5,949.6259 238.5,238.1259 238.5,238.1259 C238.5,238.1259 305.77,238.1259 354.99,238.1259" fill="none" id="source_scripts_setup_wireguard_sh-to-tool_nn_oo" style="stroke:#181818;stroke-width:1;"/><polygon fill="#181818" points="360.99,238.1259,351.99,234.1259,355.99,238.1259,351.99,242.1259,360.99,238.1259" style="stroke:#181818;stroke-width:1;"/></g><!--link source_scripts_setup_wireguard_sh to tool_yy--><g class="link" data-entity-1="ent0005" data-entity-2="ent0009" data-link-type="dependency" data-source-line="53" id="lnk48"><path d="M229.94,954.6159 C236.47,954.6159 240.5,954.6159 240.5,954.6159 C240.5,954.6159 240.5,322.1259 240.5,322.1259 C240.5,322.1259 324.44,322.1259 371.17,322.1259" fill="none" id="source_scripts_setup_wireguard_sh-to-tool_yy" style="stroke:#181818;stroke-width:1;"/><polygon fill="#181818" points="377.17,322.1259,368.17,318.1259,372.17,322.1259,368.17,326.1259,377.17,322.1259" style="stroke:#181818;stroke-width:1;"/></g><!--link source_scripts_setup_wireguard_sh to tool_apt_get--><g class="link" data-entity-1="ent0005" data-entity-2="ent0012" data-link-type="dependency" data-source-line="54" id="lnk49"><path d="M230.08,959.6059 C237.7,959.6059 242.5,959.6059 242.5,959.6059 C242.5,959.6059 242.5,406.1259 242.5,406.1259 C242.5,406.1259 311.41,406.1259 359.39,406.1259" fill="none" id="source_scripts_setup_wireguard_sh-to-tool_apt_get" style="stroke:#181818;stroke-width:1;"/><polygon fill="#181818" points="365.39,406.1259,356.39,402.1259,360.39,406.1259,356.39,410.1259,365.39,406.1259" style="stroke:#181818;stroke-width:1;"/></g><!--link source_scripts_setup_wireguard_sh to tool_cat--><g class="link" data-entity-1="ent0005" data-entity-2="ent0013" data-link-type="dependency" data-source-line="55" id="lnk50"><path d="M230.08,964.5959 C238.28,964.5959 243.5,964.5959 243.5,964.5959 C243.5,964.5959 243.5,490.1259 243.5,490.1259 C243.5,490.1259 328.14,490.1259 373.47,490.1259" fill="none" id="source_scripts_setup_wireguard_sh-to-tool_cat" style="stroke:#181818;stroke-width:1;"/><polygon fill="#181818" points="379.47,490.1259,370.47,486.1259,374.47,490.1259,370.47,494.1259,379.47,490.1259" style="stroke:#181818;stroke-width:1;"/></g><!--link source_scripts_setup_wireguard_sh to tool_client_private_key--><g class="link" data-entity-1="ent0005" data-entity-2="ent0014" data-link-type="dependency" data-source-line="56" id="lnk51"><path d="M230.05,930.7859 C283.91,930.7859 339.5,930.7859 339.5,930.7859 C339.5,930.7859 339.5,685.8059 339.5,604.9159" fill="none" id="source_scripts_setup_wireguard_sh-to-tool_client_private_key" style="stroke:#181818;stroke-width:1;"/><polygon fill="#181818" points="339.5,598.9159,335.5,607.9159,339.5,603.9159,343.5,607.9159,339.5,598.9159" style="stroke:#181818;stroke-width:1;"/></g><!--link source_scripts_setup_wireguard_sh to tool_dnf--><g class="link" data-entity-1="ent0005" data-entity-2="ent0015" data-link-type="dependency" data-source-line="57" id="lnk52"><path d="M229.98,924.9859 C239.39,924.9859 245.5,924.9859 245.5,924.9859 C245.5,924.9859 245.5,658.1259 245.5,658.1259 C245.5,658.1259 327.16,658.1259 372.36,658.1259" fill="none" id="source_scripts_setup_wireguard_sh-to-tool_dnf" style="stroke:#181818;stroke-width:1;"/><polygon fill="#181818" points="378.36,658.1259,369.36,654.1259,373.36,658.1259,369.36,662.1259,378.36,658.1259" style="stroke:#181818;stroke-width:1;"/></g><!--link source_scripts_setup_wireguard_sh to tool_firewall_cmd--><g class="link" data-entity-1="ent0005" data-entity-2="ent0016" data-link-type="dependency" data-source-line="58" id="lnk53"><path d="M229.87,926.9259 C239.91,926.9259 246.5,926.9259 246.5,926.9259 C246.5,926.9259 246.5,742.1259 246.5,742.1259 C246.5,742.1259 297.36,742.1259 342.89,742.1259" fill="none" id="source_scripts_setup_wireguard_sh-to-tool_firewall_cmd" style="stroke:#181818;stroke-width:1;"/><polygon fill="#181818" points="348.89,742.1259,339.89,738.1259,343.89,742.1259,339.89,746.1259,348.89,742.1259" style="stroke:#181818;stroke-width:1;"/></g><!--link source_scripts_setup_wireguard_sh to tool_grep--><g class="link" data-entity-1="ent0005" data-entity-2="ent0018" data-link-type="dependency" data-source-line="59" id="lnk54"><path d="M230.05,928.8559 C241.12,928.8559 248.5,928.8559 248.5,928.8559 C248.5,928.8559 248.5,846.5359 248.5,846.5359 C248.5,846.5359 322.29,846.5359 367.8,846.5359" fill="none" id="source_scripts_setup_wireguard_sh-to-tool_grep" style="stroke:#181818;stroke-width:1;"/><polygon fill="#181818" points="373.8,846.5359,364.8,842.5359,368.8,846.5359,364.8,850.5359,373.8,846.5359" style="stroke:#181818;stroke-width:1;"/></g><!--link source_scripts_setup_wireguard_sh to tool_icanhazip_com--><g class="link" data-entity-1="ent0005" data-entity-2="ent0019" data-link-type="dependency" data-source-line="60" id="lnk55"><path d="M229.79,932.7259 C267.35,932.7259 303,932.7259 336.23,932.7259" fill="none" id="source_scripts_setup_wireguard_sh-to-tool_icanhazip_com" style="stroke:#181818;stroke-width:1;"/><polygon fill="#181818" points="342.23,932.7259,333.23,928.7259,337.23,932.7259,333.23,936.7259,342.23,932.7259" style="stroke:#181818;stroke-width:1;"/></g><!--link source_scripts_setup_wireguard_sh to tool_install--><g class="link" data-entity-1="ent0005" data-entity-2="ent0020" data-link-type="dependency" data-source-line="61" id="lnk56"><path d="M229.79,971.9059 C278.69,971.9059 328.53,971.9059 363.68,971.9059" fill="none" id="source_scripts_setup_wireguard_sh-to-tool_install" style="stroke:#181818;stroke-width:1;"/><polygon fill="#181818" points="369.68,971.9059,360.68,967.9059,364.68,971.9059,360.68,975.9059,369.68,971.9059" style="stroke:#181818;stroke-width:1;"/></g><!--link source_scripts_setup_wireguard_sh to tool_print--><g class="link" data-entity-1="ent0005" data-entity-2="ent0023" data-link-type="dependency" data-source-line="62" id="lnk57"><path d="M204.5,981.6659 C204.5,1018.9059 204.5,1078.1259 204.5,1078.1259 C204.5,1078.1259 311.08,1078.1259 367.37,1078.1259" fill="none" id="source_scripts_setup_wireguard_sh-to-tool_print" style="stroke:#181818;stroke-width:1;"/><polygon fill="#181818" points="373.37,1078.1259,364.37,1074.1259,368.37,1078.1259,364.37,1082.1259,373.37,1078.1259" style="stroke:#181818;stroke-width:1;"/></g><!--link source_scripts_setup_wireguard_sh to tool_qrencode--><g class="link" data-entity-1="ent0005" data-entity-2="ent0024" data-link-type="dependency" data-source-line="63" id="lnk58"><path d="M230.02,974.2259 C293.73,974.2259 364.5,974.2259 364.5,974.2259 C364.5,974.2259 364.5,1080.0559 364.5,1131.1759" fill="none" id="source_scripts_setup_wireguard_sh-to-tool_qrencode" style="stroke:#181818;stroke-width:1;"/><polygon fill="#181818" points="364.5,1137.1759,368.5,1128.1759,364.5,1132.1759,360.5,1128.1759,364.5,1137.1759" style="stroke:#181818;stroke-width:1;"/></g><!--link source_scripts_setup_wireguard_sh to tool_rm--><g class="link" data-entity-1="ent0005" data-entity-2="ent0025" data-link-type="dependency" data-source-line="64" id="lnk59"><path d="M180.5,981.6559 C180.5,1056.2159 180.5,1246.1259 180.5,1246.1259 C180.5,1246.1259 315.44,1246.1259 373.8,1246.1259" fill="none" id="source_scripts_setup_wireguard_sh-to-tool_rm" style="stroke:#181818;stroke-width:1;"/><polygon fill="#181818" points="379.8,1246.1259,370.8,1242.1259,374.8,1246.1259,370.8,1250.1259,379.8,1246.1259" style="stroke:#181818;stroke-width:1;"/></g><!--link source_scripts_setup_wireguard_sh to tool_server_public_key--><g class="link" data-entity-1="ent0005" data-entity-2="ent0027" data-link-type="dependency" data-source-line="65" id="lnk60"><path d="M229.83,976.5459 C282.53,976.5459 336.5,976.5459 336.5,976.5459 C336.5,976.5459 336.5,1218.7759 336.5,1299.2559" fill="none" id="source_scripts_setup_wireguard_sh-to-tool_server_public_key" style="stroke:#181818;stroke-width:1;"/><polygon fill="#181818" points="336.5,1305.2559,340.5,1296.2559,336.5,1300.2559,332.5,1296.2559,336.5,1305.2559" style="stroke:#181818;stroke-width:1;"/></g><!--link source_scripts_setup_wireguard_sh to tool_sysctl--><g class="link" data-entity-1="ent0005" data-entity-2="ent0029" data-link-type="dependency" data-source-line="66" id="lnk61"><path d="M155.5,981.3759 C155.5,1082.9259 155.5,1414.1259 155.5,1414.1259 C155.5,1414.1259 297.41,1414.1259 365.3,1414.1259" fill="none" id="source_scripts_setup_wireguard_sh-to-tool_sysctl" style="stroke:#181818;stroke-width:1;"/><polygon fill="#181818" points="371.3,1414.1259,362.3,1410.1259,366.3,1414.1259,362.3,1418.1259,371.3,1414.1259" style="stroke:#181818;stroke-width:1;"/></g><!--link source_scripts_setup_wireguard_sh to tool_systemctl--><g class="link" data-entity-1="ent0005" data-entity-2="ent0030" data-link-type="dependency" data-source-line="67" id="lnk62"><path d="M130.5,981.4759 C130.5,1094.8859 130.5,1498.1259 130.5,1498.1259 C130.5,1498.1259 274.32,1498.1259 352.45,1498.1259" fill="none" id="source_scripts_setup_wireguard_sh-to-tool_systemctl" style="stroke:#181818;stroke-width:1;"/><polygon fill="#181818" points="358.45,1498.1259,349.45,1494.1259,353.45,1498.1259,349.45,1502.1259,358.45,1498.1259" style="stroke:#181818;stroke-width:1;"/></g><!--link source_scripts_setup_wireguard_sh to tool_value--><g class="link" data-entity-1="ent0005" data-entity-2="ent0032" data-link-type="dependency" data-source-line="68" id="lnk63"><path d="M105.5,981.6659 C105.5,1106.2159 105.5,1582.1259 105.5,1582.1259 C105.5,1582.1259 288.07,1582.1259 365.77,1582.1259" fill="none" id="source_scripts_setup_wireguard_sh-to-tool_value" style="stroke:#181818;stroke-width:1;"/><polygon fill="#181818" points="371.77,1582.1259,362.77,1578.1259,366.77,1582.1259,362.77,1586.1259,371.77,1582.1259" style="stroke:#181818;stroke-width:1;"/></g><!--link source_scripts_setup_wireguard_sh to tool_wg--><g class="link" data-entity-1="ent0005" data-entity-2="ent0033" data-link-type="dependency" data-source-line="69" id="lnk64"><path d="M80.5,981.4459 C80.5,1115.7959 80.5,1666.1259 80.5,1666.1259 C80.5,1666.1259 297.32,1666.1259 373.48,1666.1259" fill="none" id="source_scripts_setup_wireguard_sh-to-tool_wg" style="stroke:#181818;stroke-width:1;"/><polygon fill="#181818" points="379.48,1666.1259,370.48,1662.1259,374.48,1666.1259,370.48,1670.1259,379.48,1666.1259" style="stroke:#181818;stroke-width:1;"/></g><!--link source_scripts_setup_wireguard_sh to tool_wireguard_public_vpn--><g class="link" data-entity-1="ent0005" data-entity-2="ent0034" data-link-type="dependency" data-source-line="70" id="lnk65"><path d="M229.88,978.8659 C278.43,978.8659 326.5,978.8659 326.5,978.8659 C326.5,978.8659 326.5,1587.3259 326.5,1719.3359" fill="none" id="source_scripts_setup_wireguard_sh-to-tool_wireguard_public_vpn" style="stroke:#181818;stroke-width:1;"/><polygon fill="#181818" points="326.5,1725.3359,330.5,1716.3359,326.5,1720.3359,322.5,1716.3359,326.5,1725.3359" style="stroke:#181818;stroke-width:1;"/></g><!--link source_scripts_setup_wireguard_sh to tool_yum--><g class="link" data-entity-1="ent0005" data-entity-2="ent0035" data-link-type="dependency" data-source-line="71" id="lnk66"><path d="M55.5,981.4659 C55.5,1134.5059 55.5,1834.1259 55.5,1834.1259 C55.5,1834.1259 284.44,1834.1259 368.88,1834.1259" fill="none" id="source_scripts_setup_wireguard_sh-to-tool_yum" style="stroke:#181818;stroke-width:1;"/><polygon fill="#181818" points="374.88,1834.1259,365.88,1830.1259,369.88,1834.1259,365.88,1838.1259,374.88,1834.1259" style="stroke:#181818;stroke-width:1;"/></g><?plantuml-src dLV1Sfim4Btp5PhaZ9rnCjDRBwtTwQ7f8Rrqaev65G8q5f8g2JFawxiW0pBOYPMRjU-zNKai-upZJZ1aIsLSIhcXDNVebrA2om9zbuuLXZYkf4q4onro2XbUb0vbt33Q0OdTSwc98HKa8PbgEc5EX6K1ah6SrCBjb7IFf6BeXvBAQa933bMLLf99z-HQs56NdiX2X1JO57EjPWWsMwfafA2RLS5TMVzTDyhiSw4QkwPyrLRYHJv0SGT4bi7cbR0tY5XaLMqemrw4Hn6c78C8tMxlTflTzkq2bb73N6efaRxI9gQIL-DEVQcafOPhPzUcbjWHMgeAqXkiZSgvO2jRliZxDqeUvVYy7DlohPgMkLhZ1XvoKHEJzSKscokgpOHX6IfKdQ6RhSoqujBrwYuFPiS8kjrjT_TVFWtCP_duPs99UGv_LZzFE5Yf1Qtz7L3QTewJle-XOqf6zweEDdP4y81SKlQ7JdKBJIcNQdyb7braq2ujM5XIEmo1EO-IW0EB1Iuul3cfDln074lth0teFOQF60PihivaFj5XCSTpU9mD4IAbLJOHXoY6w5nHT5E5xErw-97wsvZK0p3zy8n59iDqe8BLdC7X7Ih9AzSh624JTGnZ22yqqZhOUi3sWJbFyw0uB1QuOIcahtZmU226VMp9FkdxVZdd_3DCKfMnYJP4vamJ7DOiJWYlVG3NYtkrp1oOINNzLt1wsZ0UmXuwro-shYfY-6kmoJ6quBQMkk2Y_VeCox5gJlIXENSQPXDvYitP1oBgO9_zSivfYedG50jq66R3PHrqSBNJg3lU5w3p36qTF2fOZFWxFfIcdyyFecXXE8Ek5aE_NyyTcpwvrlBYJtSnmwLXabpjXMCge7n0DRR_1xGJdBnlfgDgCCqOZPHnR33J647Rnh2FJXSZ0UEBeY-CBqODFXX33zqmHjSvMWp_nDQYXDxXOYIzGSK81gkAqPYeKooyAKhSUq-amfjGZAZtc1X1KqInppXEr6jQLubKZWsE11zitmpHvLC_mzha2JfCmd_yXm55y1QPjfysTfLy7Ru1xk-GAtbdYyIurdyIh1AOIwZB_Xy0?></g></svg>
