<?plantuml 1.2026.2?><svg xmlns="http://www.w3.org/2000/svg" xmlns:xlink="http://www.w3.org/1999/xlink" contentStyleType="text/css" data-diagram-type="DESCRIPTION" height="2453px" preserveAspectRatio="none" style="width:492px;height:2453px;background:#FFFFFF;" version="1.1" viewBox="0 0 492 2453" width="492px" zoomAndPan="magnify"><title>short-circuit Tooling Integrations</title><defs/><g><g class="title" data-source-line="1"><text fill="#000000" font-family="Monospace" font-size="14" font-weight="bold" lengthAdjust="spacing" textLength="230.9012" x="123.8589" y="24.9659">short-circuit&#160;Tooling&#160;Integrations</text></g><!--entity source_github_workflows_ci_yml--><g class="entity" data-qualified-name="source_github_workflows_ci_yml" data-source-line="7" id="ent0002"><rect fill="#E0F2FE" height="58.1358" rx="2.5" ry="2.5" style="stroke:#181818;stroke-width:0.5;" width="182.6234" x="36.83" y="2267.0559"/><text fill="#000000" font-family="Monospace" font-size="14" lengthAdjust="spacing" textLength="162.6234" x="46.83" y="2292.0219">.github/workflows/ci.yml</text><text fill="#000000" font-family="Monospace" font-size="14" lengthAdjust="spacing" textLength="105.3356" x="46.83" y="2311.0898">4&#160;detected&#160;tools</text></g><!--entity source_scripts_run_tachometer_profile_sh--><g class="entity" data-qualified-name="source_scripts_run_tachometer_profile_sh" data-source-line="8" id="ent0003"><rect fill="#E0F2FE" height="58.1358" rx="2.5" ry="2.5" style="stroke:#181818;stroke-width:0.5;" width="242.2912" x="7" y="1973.0559"/><text fill="#000000" font-family="Monospace" font-size="14" lengthAdjust="spacing" textLength="222.2912" x="17" y="1998.0219">scripts/run_tachometer_profile.sh</text><text fill="#000000" font-family="Monospace" font-size="14" lengthAdjust="spacing" textLength="105.3356" x="17" y="2017.0898">3&#160;detected&#160;tools</text></g><!--entity source_scripts_setup_wireguard_sh--><g class="entity" data-qualified-name="source_scripts_setup_wireguard_sh" data-source-line="9" id="ent0004"><rect fill="#E0F2FE" height="58.1358" rx="2.5" ry="2.5" style="stroke:#181818;stroke-width:0.5;" width="198.4433" x="28.92" y="923.0559"/><text fill="#000000" font-family="Monospace" font-size="14" lengthAdjust="spacing" textLength="178.4433" x="38.92" y="948.0219">scripts/setup_wireguard.sh</text><text fill="#000000" font-family="Monospace" font-size="14" lengthAdjust="spacing" textLength="113.3436" x="38.92" y="967.0898">22&#160;detected&#160;tools</text></g><!--entity tool_endpoint--><g class="entity" data-qualified-name="tool_endpoint" data-source-line="10" id="ent0005"><path d="M358.9703,54.1607 C363.0987,48.35 367.4623,46.6859 372.1097,53.6258 C375.6615,47.7834 381.0424,48.3876 384.5184,53.71 C387.5813,48.6085 392.5999,47.171 396.1527,53.1979 C399.325,48.6549 403.7491,48.141 407.0636,53.0334 C411.4723,46.0679 417.777,46.5316 420.8668,54.2714 C425.0441,48.2247 429.8032,49.2859 432.6671,55.5322 C440.6353,57.6056 444.0191,63.3095 437.5247,70.1793 C444.7325,76.9003 443.6086,85.8981 432.9456,88.0365 C430.1711,94.9573 425.4656,94.8274 420.9585,89.7705 C419.068,97.2219 412.363,98.319 407.6031,92.7031 C404.3861,99.3691 399.9793,99.398 394.9562,94.716 C390.7033,98.9357 385.9608,98.481 384.5138,91.9824 C379.0499,97.6668 374.7157,95.7944 371.7999,89.3183 C367.2114,95.621 362.8883,94.23 358.8893,88.6764 C349.7918,85.3084 348.4879,77.6299 356.3667,71.7343 C348.4407,65.5506 350.1618,57.865 358.9703,54.1607" fill="#FEF3C7" style="stroke:#181818;stroke-width:0.5;"/><text fill="#000000" font-family="Monospace" font-size="14" lengthAdjust="spacing" textLength="59.4438" x="365.07" y="75.5519">Endpoint</text></g><!--entity tool_nn--><g class="entity" data-qualified-name="tool_nn" data-source-line="11" id="ent0006"><path d="M375.6152,138.8919 C379.8381,127.1249 389.7605,127.5285 396.4992,136.3386 C403.3492,128.3911 412.063,129.032 416.7544,138.8058 C426.2899,142.765 425.488,148.0786 419.738,154.8758 C426.7087,162.0856 425.6667,168.4844 416.1458,172.2928 C414.2564,178.008 410.9398,178.8875 406.2104,175.3388 C405.1541,180.739 400.5755,182.2021 396.6652,178.2522 C391.4356,183.0851 387.311,181.7832 384.778,175.3955 C380.5145,178.091 377.2091,177.0917 375.6356,172.1678 C367.1364,169.346 364.5093,160.6182 371.5605,154.2582 C365.1306,146.9187 366.0032,141.9984 375.6152,138.8919" fill="#FEF3C7" style="stroke:#181818;stroke-width:0.5;"/><text fill="#000000" font-family="Monospace" font-size="14" lengthAdjust="spacing" textLength="28.5039" x="380.54" y="159.5519">[nN]</text></g><!--entity tool_nn_oo--><g class="entity" data-qualified-name="tool_nn_oo" data-source-line="12" id="ent0007"><path d="M360.0923,223.4328 C362.1648,216.8932 366.9588,216.2674 371.3563,221.1375 C374.7286,214.1674 380.9567,213.4392 384.8215,220.6705 C388.4336,215.751 392.7963,214.5344 396.7444,220.2954 C400.5166,216.0932 404.2146,216.3189 406.7293,221.617 C411.5758,215.1557 415.5312,215.3763 419.4044,222.5234 C422.2115,216.7525 427.0291,217.3272 430.5894,221.6923 C441.0442,224.8461 444.2707,230.9026 436.514,239.9622 C442.8437,247.3368 441.406,253.5506 431.3841,255.5407 C429.5029,261.8152 425.6282,262.8197 420.3844,259.3282 C417.6758,264.8423 411.588,265.7832 407.786,260.6182 C405.785,267.2961 401.3812,269.7008 395.3528,265.0306 C390.2927,269.889 385.2904,267.8271 382.9823,261.88 C378.2893,265.0521 374.2861,264.4863 373.1641,258.1807 C368.1736,264.1984 363.7571,263.335 360.5466,256.4412 C351.2138,254.2607 348.2782,246.6846 354.8995,239.2602 C348.559,231.7596 351.7325,226.1103 360.0923,223.4328" fill="#FEF3C7" style="stroke:#181818;stroke-width:0.5;"/><text fill="#000000" font-family="Monospace" font-size="14" lengthAdjust="spacing" textLength="57.1198" x="366.23" y="243.5519">[nN][oO]</text></g><!--entity tool_yy--><g class="entity" data-qualified-name="tool_yy" data-source-line="13" id="ent0008"><path d="M376.2432,306.2733 C381.1407,296.8253 390.5735,296.0912 396.2212,305.4776 C403.0657,297.7355 408.7808,297.7671 413.9555,307.2016 C424.511,307.8514 426.7617,314.4452 421.9455,322.9125 C426.7234,331.7421 423.3204,336.7066 414.3139,338.9952 C409.1347,349.002 403.4121,349.7047 395.7379,341.5468 C389.0581,349.1819 380.7285,349.9912 376.5321,338.9878 C367.5282,337.6799 364.8061,330.7218 371.049,323.8803 C363.729,316.6491 367.4946,308.764 376.2432,306.2733" fill="#FEF3C7" style="stroke:#181818;stroke-width:0.5;"/><text fill="#000000" font-family="Monospace" font-size="14" lengthAdjust="spacing" textLength="24.2759" x="382.66" y="327.5519">[yY]</text></g><!--entity tool_actions_checkout--><g class="entity" data-qualified-name="tool_actions_checkout" data-source-line="14" id="ent0009"><path d="M333.2721,2153.9517 C337.1239,2147.7926 341.8665,2147.9332 345.596,2154.0742 C348.9017,2147.3113 353.9034,2148.5602 357.942,2153.2867 C362.5623,2146.1393 366.8229,2146.2641 371.4639,2153.267 C375.7387,2146.9836 379.5713,2147.9716 383.6673,2153.4525 C386.9988,2148.7666 392.2124,2148.9202 394.9926,2154.0863 C397.6908,2148.4285 403.9573,2147.9366 407.5345,2153.0641 C411.6141,2147.0268 416.9119,2147.0864 421.285,2152.7183 C426.4596,2147.2827 431.2212,2147.7828 434.0716,2155.0566 C437.0426,2148.9325 442.5229,2149.0166 445.5615,2154.9923 C449.5303,2149.1588 453.9144,2149.9158 457.9244,2154.9454 C467.6057,2157.355 468.9159,2163.5147 463.9182,2171.303 C469.3631,2179.7602 467.898,2184.8635 457.9547,2187.7365 C455.7071,2193.4079 450.3473,2193.8792 447.1714,2188.6553 C443.5844,2195.1656 437.4223,2195.7549 432.8311,2189.8117 C430.0976,2195.7141 426.1271,2197.3295 420.8971,2192.6188 C417.6162,2199.1227 413.1201,2198.9468 409.0401,2193.4054 C406.5117,2200.8445 399.9943,2201.3114 395.986,2194.7891 C391.0827,2201.1869 385.6236,2199.1112 383.1365,2192.4175 C379.2006,2199.1955 373.2789,2199.0401 369.7081,2192.0611 C365.1734,2197.5795 360.4851,2196.1009 357.8115,2190.1335 C353.9343,2195.251 348.5753,2194.8731 346.0314,2188.7378 C341.5705,2194.2009 335.3486,2194.9367 332.0871,2187.4466 C324.9891,2183.3952 323.5877,2175.4122 332.1687,2171.4407 C323.9264,2165.4125 324.8735,2158.9299 333.2721,2153.9517" fill="#FEF3C7" style="stroke:#181818;stroke-width:0.5;"/><text fill="#000000" font-family="Monospace" font-size="14" lengthAdjust="spacing" textLength="111.9156" x="338.84" y="2175.5519">actions/checkout</text></g><!--entity tool_actions_setup_python--><g class="entity" data-qualified-name="tool_actions_setup_python" data-source-line="15" id="ent0010"><path d="M318.9091,2239.1366 C321.1216,2233.0818 325.3352,2233.0201 329.1539,2237.5875 C334.0176,2232.2578 338.3569,2232.9067 341.7497,2239.1837 C343.6457,2234.5943 348.4436,2232.7401 351.8996,2237.4878 C355.2591,2231.1952 358.8666,2231.3018 362.9351,2236.8256 C366.5153,2231.3391 370.253,2232.2373 373.7027,2236.9632 C377.5414,2232.6216 381.1798,2232.95 383.956,2238.1098 C387.1314,2232.3053 392.1879,2230.6525 396.9298,2236.3416 C399.9756,2231.3708 402.914,2231.4293 406.035,2236.2719 C410.3681,2230.5292 414.6961,2231.1699 418.4253,2236.9228 C422.468,2231.9854 426.3371,2232.6493 429.3986,2237.9723 C432.1671,2232.5994 436.9305,2233.2756 440.0399,2237.5981 C443.0903,2231.954 447.8918,2232.6692 450.6225,2237.9089 C454.8474,2232.2667 458.6472,2232.9502 462.6837,2238.119 C466.4754,2232.8486 470.9272,2233.1621 474.1276,2238.7426 C483.2726,2241.4438 485.1041,2249.467 478.584,2256.1733 C485.6189,2264.2689 483.1716,2270.8068 472.5814,2272.3708 C469.0994,2277.9616 465.321,2277.8891 462.1367,2272.0975 C460.0918,2277.9733 455.1528,2277.5968 451.6859,2273.6032 C448.939,2279.4659 444.3112,2279.6173 440.4138,2274.8199 C437.2927,2280.9357 431.5431,2280.6713 428.4738,2274.7684 C426.0505,2280.3342 422.8216,2279.713 418.9233,2276.3454 C415.7692,2281.4785 411.2085,2282.1144 407.6969,2276.7269 C405.3221,2282.1086 399.6619,2282.5826 396.3129,2277.8201 C392.7316,2283.8437 388.1883,2283.517 384.501,2277.9279 C380.9263,2282.5067 375.7335,2283.1955 373.0366,2276.9944 C369.3868,2281.4779 365.0818,2279.9668 363.3353,2275.0336 C358.8832,2279.0643 355.1524,2278.7285 351.9981,2273.4526 C347.8618,2279.5616 343.9478,2278.2576 340.0684,2273.1786 C337.841,2277.6045 333.2123,2277.471 330.5588,2273.6712 C326.7847,2279.3466 321.2049,2278.7329 318.7062,2272.4111 C308.9693,2271.1253 305.3989,2263.9575 309.9711,2255.3469 C305.0085,2246.4309 307.5367,2239.046 318.9091,2239.1366" fill="#FEF3C7" style="stroke:#181818;stroke-width:0.5;"/><text fill="#000000" font-family="Monospace" font-size="14" lengthAdjust="spacing" textLength="140.2795" x="324.66" y="2259.5519">actions/setup-python</text></g><!--entity tool_apt_get--><g class="entity" data-qualified-name="tool_apt_get" data-source-line="16" id="ent0011"><path d="M365.7603,391.0538 C369.2783,384.729 376.2357,384.5333 380.4159,390.2477 C384.1091,382.9274 390.0903,382.1532 395.5676,388.2299 C400.999,381.3251 408.927,381.5694 411.7712,390.8242 C415.3893,384.281 422.5887,382.793 427.1122,389.799 C437.8869,390.8975 441.9052,396.4554 435.901,406.4241 C440.8288,416.0631 436.7256,423.6522 425.5982,423.7369 C423.4107,431.4617 417.1799,432.858 411.6392,427.2467 C409.383,435.5057 404.0674,437.355 396.8166,433.2199 C389.1416,439.0791 382.7858,438.275 379.6736,428.2847 C372.6979,434.879 366.0348,431.4469 364.2816,422.956 C357.3524,418.0279 355.755,413.4197 363.6513,407.8721 C356.9573,401.804 357.9343,395.3012 365.7603,391.0538" fill="#FEF3C7" style="stroke:#181818;stroke-width:0.5;"/><text fill="#000000" font-family="Monospace" font-size="14" lengthAdjust="spacing" textLength="47.5858" x="371" y="411.5519">apt-get</text></g><!--entity tool_cat--><g class="entity" data-qualified-name="tool_cat" data-source-line="17" id="ent0012"><path d="M378.8982,474.6 C382.7819,464.4901 389.6492,464.8949 396.4121,471.6013 C403.8959,464.909 408.2546,467.7685 411.8638,475.6963 C420.4792,478.8491 420.9673,484.3413 415.6619,490.9583 C421.6094,497.1154 421.2312,505.0125 411.7811,507.5732 C409.4583,517.3889 402.1767,518.3882 394.8182,513.3076 C387.0032,519.3994 381.7519,516.6744 379.3427,507.7402 C368.5825,506.4906 367.1703,501.0446 371.7937,492.2823 C366.084,484.2116 367.6307,475.8495 378.8982,474.6" fill="#FEF3C7" style="stroke:#181818;stroke-width:0.5;"/><text fill="#000000" font-family="Monospace" font-size="14" lengthAdjust="spacing" textLength="19.6279" x="384.98" y="495.5519">cat</text></g><!--entity tool_client_private_key--><g class="entity" data-qualified-name="tool_client_private_key" data-source-line="18" id="ent0013"><path d="M333.1051,559.2063 C336.9836,554.2656 340.5115,553.073 344.6848,558.8888 C348.3778,552.6146 352.8612,552.075 356.8979,558.5597 C360.7561,552.137 366.3022,551.5182 371.1483,557.4171 C375.0386,550.9848 379.9621,551.8313 383.5493,557.722 C386.8775,550.8135 390.5116,550.232 395.4726,556.2115 C399.9497,549.8678 406.1693,552.4569 408.7044,558.317 C412.7647,552.5615 416.6739,552.5679 421.0729,557.9406 C425.1165,552.7859 430.3194,552.3799 433.3635,558.9852 C437.6206,551.4885 441.8827,552.2406 446.7913,558.3418 C450.0464,553.1695 455.9112,552.0142 459.0317,558.4833 C469.6974,560.7045 472.7056,566.2445 467.0933,575.9699 C471.6599,584.1164 470.1247,590.9043 459.9122,592.7115 C455.8092,600.7105 451.0854,600.5657 445.6696,593.9947 C442.738,600.3152 437.3993,599.0295 434.1707,594.3038 C430.3912,601.3618 426.4283,602.1385 421.151,595.7546 C417.4855,602.1421 412.7807,601.9984 408.1259,596.8739 C405.4739,603.6898 400.0934,604.3751 395.7584,598.516 C391.1512,603.4347 387.1545,603.0009 383.8159,597.1139 C379.0252,602.3274 374.5183,602.5902 370.2998,596.4338 C365.6365,601.6075 360.3692,601.4452 357.1776,594.7998 C352.2361,599.0707 348.3532,599.6995 345.1607,592.9011 C341.0761,599.1389 335.7232,599.7839 332.0157,592.5335 C320.3236,591.1978 317.353,584.5889 323.5386,574.7373 C318.7701,564.5251 322.6908,560.0664 333.1051,559.2063" fill="#FEF3C7" style="stroke:#181818;stroke-width:0.5;"/><text fill="#000000" font-family="Monospace" font-size="14" lengthAdjust="spacing" textLength="112.9935" x="338.3" y="579.5519">client-private-key</text></g><!--entity tool_dnf--><g class="entity" data-qualified-name="tool_dnf" data-source-line="19" id="ent0014"><path d="M377.3052,643.5454 C382.7675,633.3428 388.814,631.1343 396.8961,640.9861 C401.7828,631.9758 409.7811,632.4238 414.0211,641.5953 C425.1945,644.3473 426.6684,650.3422 419.6207,658.9675 C426.0799,665.5217 423.0977,673.1483 414.7301,675.2488 C411.4558,685.1695 402.6603,686.2943 395.96,678.9798 C389.6918,688.3751 380.9576,686.4546 376.9008,676.7707 C366.0034,674.7869 362.161,669.6069 368.9386,659.4827 C363.1462,649.4375 365.7318,644.4741 377.3052,643.5454" fill="#FEF3C7" style="stroke:#181818;stroke-width:0.5;"/><text fill="#000000" font-family="Monospace" font-size="14" lengthAdjust="spacing" textLength="22.0779" x="383.76" y="663.5519">dnf</text></g><!--entity tool_firewall_cmd--><g class="entity" data-qualified-name="tool_firewall_cmd" data-source-line="20" id="ent0015"><path d="M349.1902,727.2934 C352.7302,721.4682 357.2569,721.1675 361.1794,726.8965 C363.775,720.7456 368.5389,720.8028 372.2049,725.8418 C375.496,720.5957 381.061,721.0934 383.7218,726.5217 C386.1246,719.1965 392.3752,718.969 396.5706,724.7665 C400.5152,719.083 405.9066,720.1722 408.1293,726.4329 C412.475,720.2351 416.1187,721.9 419.9752,726.9482 C422.4153,720.6628 427.0816,721.4378 430.8779,725.5224 C434.7421,720.294 440.3548,721.9623 442.4985,727.3973 C452.5165,729.3722 456.2261,733.8061 450.545,743.5847 C457.4683,752.804 453.5831,757.7581 444.0244,760.6968 C439.9556,766.4011 434.3294,766.1864 430.9751,759.9182 C427.9369,765.7308 423.2868,767.0542 418.9135,761.3118 C415.9072,766.4502 412.0796,766.6831 408.3802,762.0597 C404.2103,767.5514 400.1766,768.042 395.6727,762.4424 C391.8671,766.986 388.5143,767.2963 384.6915,762.4624 C380.7821,769.2007 376.0605,768.5117 372.1835,762.4308 C367.0652,768.3354 363.1247,767.2967 359.2216,761.1263 C355.2015,765.907 351.1965,765.2588 348.3577,759.865 C338.1729,756.4466 337.8135,749.5689 344.5162,742.4297 C339.3975,735.5859 340.7713,729.9569 349.1902,727.2934" fill="#FEF3C7" style="stroke:#181818;stroke-width:0.5;"/><text fill="#000000" font-family="Monospace" font-size="14" lengthAdjust="spacing" textLength="81.1157" x="354.24" y="747.5519">firewall-cmd</text></g><!--entity tool_grep--><g class="entity" data-qualified-name="tool_grep" data-source-line="21" id="ent0016"><path d="M373.6792,810.5826 C376.356,806.1742 380.8781,805.0333 384.0397,810.0496 C387.2703,803.0741 391.2201,802.1595 396.7839,807.6678 C399.9221,802.9036 405.1702,804.0727 407.4412,808.6566 C411.8209,804.6923 415.6813,805.3747 418.0198,810.9259 C427.9374,813.6968 427.8325,820.0732 422.3352,826.9861 C429.1546,834.8649 426.3141,840.0644 417.7745,843.7697 C415.6151,849.9212 412.058,851.7402 406.4964,847.4414 C404.7157,852.3233 399.9178,854.3708 395.9585,849.8947 C390.0588,853.4637 386.0693,852.7509 383.6892,845.7926 C379.756,850.3564 374.6125,848.5449 373.0488,843.2383 C363.334,841.1167 360.7477,833.3785 368.098,826.2761 C362.3533,819.349 364.8103,812.3126 373.6792,810.5826" fill="#FEF3C7" style="stroke:#181818;stroke-width:0.5;"/><text fill="#000000" font-family="Monospace" font-size="14" lengthAdjust="spacing" textLength="30.8979" x="379.35" y="831.5519">grep</text></g><!--entity tool_icanhazip_com--><g class="entity" data-qualified-name="tool_icanhazip_com" data-source-line="22" id="ent0017"><path d="M342.1733,895.655 C345.451,889.9884 350.3368,889.2787 354.3828,894.8179 C357.8127,886.6979 365.0663,887.6968 369.4133,893.8523 C373.7143,887.9015 377.4848,887.072 381.7701,893.8676 C385.985,885.4314 390.6252,884.8408 396.7458,892.0427 C400.3382,886.257 406.4428,885.8606 409.4247,892.658 C414.0953,887.3467 418.6384,885.6395 422.842,893.147 C428.1669,885.8133 433.3311,887.224 437.2842,894.5029 C441.7633,888.8486 446.8847,889.7131 450.3929,895.6051 C460.0595,898.0318 460.7394,904.364 455.3567,911.4926 C461.0352,919.0564 460.8317,924.6515 450.535,927.3613 C446.81,933.4454 440.5329,935.3248 436.4033,927.7808 C433.4665,934.4811 427.7032,934.4392 423.8098,928.7534 C420.2499,936.1418 414.1194,936.4494 409.3205,930.056 C406.4449,936.7488 400.7901,937.2024 396.1475,932.0154 C392.0246,938.3554 386.3523,937.9179 382.3147,931.9199 C377.839,938.5625 371.5774,937.3949 368.5179,930.4788 C363.9485,934.9419 359.8265,935.6166 356.4295,929.1787 C351.2812,934.9395 346.3465,935.21 342.3805,927.9073 C333.8624,924.5379 332.0474,919.3079 337.8926,911.9093 C332.301,905.3447 333.4976,898.4623 342.1733,895.655" fill="#FEF3C7" style="stroke:#181818;stroke-width:0.5;"/><text fill="#000000" font-family="Monospace" font-size="14" lengthAdjust="spacing" textLength="94.1776" x="347.71" y="915.5519">icanhazip.com</text></g><!--entity tool_install--><g class="entity" data-qualified-name="tool_install" data-source-line="23" id="ent0018"><path d="M369.2163,977.8166 C373.3649,972.6082 378.3056,971.405 381.9668,978.3288 C386.2522,969.8537 391.4042,971.1889 396.9226,977.0418 C400.4318,972.403 405.2671,971.8352 408.2398,977.624 C413.6696,970.6536 418.2047,970.8438 422.9171,978.3512 C433.0788,978.2421 437.5249,986.3147 431.5552,994.719 C436.1727,1003.5994 431.8556,1009.6713 422.5678,1010.7618 C420.0124,1018.7509 414.2618,1019.6491 408.9601,1013.3835 C405.1411,1021.4015 400.2425,1021.4121 394.8179,1014.9519 C390.4133,1020.8093 385.9069,1020.1928 382.7959,1013.6933 C378.8678,1018.6324 372.5363,1017.8961 369.8119,1012.2208 C358.8409,1010.0718 358.0095,1004.3343 362.6976,995.5163 C355.3776,986.0054 357.4958,980.3149 369.2163,977.8166" fill="#FEF3C7" style="stroke:#181818;stroke-width:0.5;"/><text fill="#000000" font-family="Monospace" font-size="14" lengthAdjust="spacing" textLength="39.1019" x="375.24" y="999.5519">install</text></g><!--entity tool_pip--><g class="entity" data-qualified-name="tool_pip" data-source-line="24" id="ent0019"><path d="M378.6712,2321.6547 C383.0155,2314.0268 390.4807,2312.5641 395.9351,2320.4166 C403.3431,2312.3027 409.4518,2314.2502 413.7405,2323.5974 C423.1119,2324.8495 427.1719,2329.7421 422.337,2338.9492 C428.4278,2348.6759 422.7544,2355.1001 412.8661,2355.8976 C409.9561,2365.8732 404.2652,2368.2406 395.8833,2361.4354 C387.5673,2368.5477 379.7526,2364.6446 377.7646,2354.7097 C369.952,2350.4311 367.52,2345.8088 375.0287,2338.8819 C367.9608,2331.6639 368.8457,2325.3008 378.6712,2321.6547" fill="#FEF3C7" style="stroke:#181818;stroke-width:0.5;"/><text fill="#000000" font-family="Monospace" font-size="14" lengthAdjust="spacing" textLength="20.8319" x="384.38" y="2343.5519">pip</text></g><!--entity tool_pre_commit--><g class="entity" data-qualified-name="tool_pre_commit" data-source-line="25" id="ent0020"><path d="M350.9572,2406.0388 C353.7431,2400.9424 358.319,2401.3041 361.0629,2406.0818 C365.1571,2399.8345 370.5235,2401.264 373.9936,2406.7686 C377.327,2401.2588 380.5973,2400.8309 384.3543,2406.3715 C387.2595,2399.444 391.8297,2399.408 396.5778,2404.4969 C400.4056,2399.2347 404.8172,2401.3399 407.1108,2406.1079 C410.2578,2400.9573 414.3037,2400.7425 417.839,2405.6955 C421.6936,2399.8307 426.616,2400.956 429.6961,2406.5003 C432.7773,2400.7724 437.4381,2402.0767 440.4263,2406.5977 C448.6548,2410.409 449.3361,2417.4227 442.1736,2422.8852 C450.194,2427.8487 449.675,2433.5303 442.3424,2438.6581 C439.146,2444.0806 434.8413,2444.8231 430.8997,2439.4478 C428.2279,2446.1361 423.1486,2446.3925 418.621,2441.3982 C414.6397,2446.8045 411.308,2446.0656 407.5746,2441.1332 C405.155,2446.8441 399.8688,2446.9858 396.8536,2441.7147 C393.4317,2446.4701 388.3144,2446.8892 385.1858,2441.3812 C381.1478,2445.1785 376.4195,2445.4632 374.2736,2439.307 C371.2616,2446.349 365.1041,2445.5834 361.0527,2440.4343 C357.4968,2444.931 351.8487,2444.5679 349.4847,2439.0567 C340.6779,2437.9077 337.7225,2429.6623 342.5987,2422.7391 C337.8821,2413.3362 339.3016,2407.2474 350.9572,2406.0388" fill="#FEF3C7" style="stroke:#181818;stroke-width:0.5;"/><text fill="#000000" font-family="Monospace" font-size="14" lengthAdjust="spacing" textLength="76.8317" x="356.38" y="2427.5519">pre-commit</text></g><!--entity tool_print--><g class="entity" data-qualified-name="tool_print" data-source-line="26" id="ent0021"><path d="M372.9342,1062.2559 C375.8897,1056.717 380.1319,1056.1882 383.6378,1061.7239 C385.9404,1056.3402 390.9858,1054.0771 395.3817,1059.4354 C399.8418,1055.0762 404.471,1055.1099 407.1455,1061.4067 C411.357,1055.747 417.1235,1057.3056 419.7662,1063.1307 C429.0546,1067.8087 429.3473,1073.0288 421.9759,1079.9018 C428.3449,1085.7468 425.6635,1092.7814 418.2431,1095.2791 C416.599,1100.2921 412.6214,1102.5485 408.143,1098.4059 C404.812,1105.3468 400.0413,1106.028 395.5525,1099.4871 C391.1606,1103.5124 387.5123,1104.1021 384.7801,1097.7622 C380.5635,1102.929 376.7928,1102.4695 374.0324,1096.3727 C364.5751,1094.2005 362.1853,1086.365 367.6341,1078.7735 C360.891,1071.7242 364.3212,1064.3779 372.9342,1062.2559" fill="#FEF3C7" style="stroke:#181818;stroke-width:0.5;"/><text fill="#000000" font-family="Monospace" font-size="14" lengthAdjust="spacing" textLength="31.7099" x="378.94" y="1083.5519">print</text></g><!--entity tool_qrencode--><g class="entity" data-qualified-name="tool_qrencode" data-source-line="27" id="ent0022"><path d="M357.0073,1147.106 C361.1726,1141.5998 365.0727,1140.4713 369.3307,1147.0111 C373.7562,1141.56 377.7401,1139.8875 382.512,1146.6368 C385.2966,1140.0859 392.0086,1138.9331 396.2576,1145.0475 C399.7007,1138.7659 403.8831,1139.6445 407.6108,1144.764 C411.6191,1138.7622 418.591,1138.564 421.4559,1145.9468 C425.8761,1139.2003 430.6239,1139.8568 435.2168,1145.7589 C445.2846,1146.6092 449.2251,1154.4434 444.6522,1163.2098 C450.9552,1173.5626 445.0781,1181.3357 433.748,1180.6872 C430.7675,1186.3753 424.8615,1186.8561 421.3289,1181.2967 C419.0716,1189.3991 414.8322,1190.3998 408.6031,1185.0556 C406.4061,1191.2369 400.6358,1192.4213 396.4953,1187.1018 C391.5894,1192.5244 385.8547,1193.2196 382.5683,1185.3987 C377.6078,1189.291 372.606,1188.9819 370.4738,1182.1954 C365.0931,1189.0432 360.5714,1186.7272 356.6488,1180.6372 C346.2031,1178.6847 343.7331,1171.3743 348.4722,1162.5553 C343.7931,1153.908 347.0353,1147.659 357.0073,1147.106" fill="#FEF3C7" style="stroke:#181818;stroke-width:0.5;"/><text fill="#000000" font-family="Monospace" font-size="14" lengthAdjust="spacing" textLength="62.6358" x="363.48" y="1167.5519">qrencode</text></g><!--entity tool_rm--><g class="entity" data-qualified-name="tool_rm" data-source-line="28" id="ent0023"><path d="M380.5492,1231.4757 C383.8126,1222.8172 389.9568,1221.815 396.6815,1227.6131 C403.0868,1220.085 409.9747,1222.9555 412.8516,1231.2248 C422.3975,1234.012 421.8832,1240.4751 416.4065,1246.7108 C423.6219,1253.2322 421.4941,1259.7566 413.3912,1263.5321 C412.9866,1276.4253 404.5244,1278.2675 394.925,1272.7593 C387.4268,1276.8399 379.7256,1274.253 379.7136,1264.5173 C370.1982,1262.1836 367.2074,1255.4551 374.5203,1247.8713 C367.821,1240.3213 372.2691,1233.5176 380.5492,1231.4757" fill="#FEF3C7" style="stroke:#181818;stroke-width:0.5;"/><text fill="#000000" font-family="Monospace" font-size="14" lengthAdjust="spacing" textLength="18.8719" x="385.36" y="1251.5519">rm</text></g><!--entity tool_run--><g class="entity" data-qualified-name="tool_run" data-source-line="29" id="ent0024"><path d="M376.4602,1903.2186 C381.3318,1894.0773 389.6348,1892.4777 396.6951,1900.6623 C402.5587,1892.8984 410.8835,1894.6363 414.2827,1903.3006 C423.8723,1904.0093 429.5616,1908.7625 424.0744,1918.9217 C429.3085,1928.3682 425.8065,1933.788 415.433,1934.6708 C415.1946,1947.3955 408.8631,1952.3901 396.8697,1946.219 C385.963,1951.2516 378.8006,1949.7656 378.1002,1936.0183 C368.4393,1935.1836 364.6511,1927.0921 370.0039,1919.0807 C364.9485,1910.9537 367.3647,1905.5858 376.4602,1903.2186" fill="#FEF3C7" style="stroke:#181818;stroke-width:0.5;"/><text fill="#000000" font-family="Monospace" font-size="14" lengthAdjust="spacing" textLength="23.0859" x="383.25" y="1923.5519">run</text></g><!--entity tool_server_public_key--><g class="entity" data-qualified-name="tool_server_public_key" data-source-line="30" id="ent0025"><path d="M333.3451,1315.2063 C337.2071,1310.2855 340.7203,1309.0974 344.8772,1314.8888 C348.5551,1308.6387 353.021,1308.1006 357.0427,1314.5597 C360.8864,1308.1573 366.4139,1307.5391 371.2455,1313.4171 C375.1215,1307.0098 380.026,1307.8535 383.5989,1313.722 C386.9106,1306.839 390.5301,1306.258 395.4746,1312.2115 C399.9396,1305.8926 406.1358,1308.476 408.6588,1314.317 C412.7028,1308.5831 416.597,1308.589 420.9797,1313.9406 C425.0094,1308.8071 430.1925,1308.4043 433.2227,1314.9852 C437.4634,1307.5143 441.7106,1308.2631 446.6029,1314.3418 C449.8456,1309.1898 455.6877,1308.0392 458.7957,1314.4833 C469.4614,1316.7045 472.4696,1322.2445 466.8573,1331.9699 C471.4239,1340.1164 469.8887,1346.9043 459.6762,1348.7115 C455.5892,1356.6852 450.881,1356.5423 445.4812,1349.9947 C442.5624,1356.2894 437.2457,1355.0096 434.0299,1350.3038 C430.2669,1357.3379 426.3186,1358.1133 421.0578,1351.7546 C417.4076,1358.12 412.7198,1357.9784 408.0803,1352.8739 C405.4418,1359.6654 400.0819,1360.3508 395.7604,1354.516 C391.169,1359.4132 387.1883,1358.9793 383.8655,1353.1139 C379.0907,1358.3083 374.5996,1358.5693 370.397,1352.4338 C365.748,1357.5869 360.4996,1357.4229 357.3224,1350.7998 C352.3974,1355.0512 348.5291,1355.6752 345.3531,1348.9011 C341.2827,1355.1159 335.949,1355.758 332.2557,1348.5335 C320.5636,1347.1978 317.593,1340.5889 323.7786,1330.7373 C319.0101,1320.5251 322.9308,1316.0664 333.3451,1315.2063" fill="#FEF3C7" style="stroke:#181818;stroke-width:0.5;"/><text fill="#000000" font-family="Monospace" font-size="14" lengthAdjust="spacing" textLength="112.5175" x="338.54" y="1335.5519">server-public-key</text></g><!--entity tool_summarize--><g class="entity" data-qualified-name="tool_summarize" data-source-line="31" id="ent0026"><path d="M352.3262,1986.0562 C357.5205,1978.436 362.7579,1980.0097 367.1854,1986.8443 C370.8019,1979.6933 376.5094,1979.9275 380.5902,1986.387 C385.4242,1978.9235 390.1909,1977.6534 396.3959,1984.9153 C400.4567,1977.5478 407.5565,1977.8137 411.1806,1985.3487 C415.7651,1978.4893 422.6565,1978.7664 425.8724,1986.7073 C429.5089,1980.8927 436.209,1980.3303 439.3717,1987.2111 C448.7394,1987.2818 452.8494,1995.0986 447.7593,2002.8992 C453.7039,2011.5123 450.0313,2017.5148 440.4364,2019.1069 C436.6544,2026.9585 429.0645,2026.8664 424.1462,2020.3998 C420.8399,2028.5169 415.5583,2028.0079 410.2995,2022.3645 C407.5074,2029.7454 400.6239,2029.2325 396.5646,2023.7139 C391.7356,2029.2907 386.7655,2030.2699 382.4281,2023.1659 C376.8702,2028.8338 370.5488,2028.1427 367.4519,2020.4146 C363.262,2028.1344 356.7719,2028.1744 352.8976,2020.1233 C342.3376,2019.268 340.4051,2009.9656 345.8471,2002.6525 C340.5333,1995.4686 341.5992,1986.9778 352.3262,1986.0562" fill="#FEF3C7" style="stroke:#181818;stroke-width:0.5;"/><text fill="#000000" font-family="Monospace" font-size="14" lengthAdjust="spacing" textLength="73.2617" x="358.16" y="2007.5519">summarize</text></g><!--entity tool_sysctl--><g class="entity" data-qualified-name="tool_sysctl" data-source-line="32" id="ent0027"><path d="M371.5143,1399.3979 C374.0871,1393.2338 377.9048,1393.1075 382.4817,1397.2694 C386.5085,1390.3474 390.5344,1391.3773 395.4091,1396.3477 C399.442,1391.5352 404.3665,1391.7765 407.8526,1397.0239 C412.1481,1391.7905 417.396,1392.8362 420.2676,1398.6274 C429.9261,1398.4634 435.9661,1405.3577 431.0303,1414.8664 C437.6826,1424.9369 432.5384,1433.5807 420.5006,1432.4742 C416.1306,1437.5714 412.2479,1439.2461 407.899,1432.4519 C404.168,1437.7399 400.2093,1439.1162 396.0275,1432.9179 C392.4686,1438.1596 386.1109,1438.2911 382.9966,1432.3976 C378.7537,1438.8175 373.4706,1437.9729 369.847,1431.7533 C359.9079,1429.3524 357.8091,1422.0874 363.8907,1414.2383 C358.5852,1405.7822 362.6182,1400.5586 371.5143,1399.3979" fill="#FEF3C7" style="stroke:#181818;stroke-width:0.5;"/><text fill="#000000" font-family="Monospace" font-size="14" lengthAdjust="spacing" textLength="35.9379" x="376.83" y="1419.5519">sysctl</text></g><!--entity tool_systemctl--><g class="entity" data-qualified-name="tool_systemctl" data-source-line="33" id="ent0028"><path d="M356.9643,1481.8514 C360.4048,1475.9326 366.9293,1475.2508 370.03,1482.1964 C373.7716,1475.4857 378.8085,1475.4089 383.3423,1481.3635 C387.3741,1475.1164 391.9124,1475.609 396.3576,1480.8971 C399.9015,1474.8629 403.5675,1475.4457 407.5113,1480.4946 C412.4721,1473.8353 416.9437,1474.7962 420.7566,1481.6221 C424.344,1476.2617 430.5825,1475.3541 433.6365,1482.1856 C442.3328,1484.9182 445.3291,1493.1257 438.8498,1500.2403 C444.1852,1506.0449 442.402,1512.8269 434.8204,1515.1379 C432.251,1523.6765 426.7183,1524.3477 420.411,1519.023 C417.7489,1524.6231 413.6098,1525.3708 408.9565,1521.4082 C406.0941,1528.0311 400.7762,1530.0237 395.8294,1523.4876 C390.388,1529.0577 385.9552,1527.7294 383.4595,1520.6149 C379.0627,1525.9085 373.3429,1526.2834 370.4261,1519.0724 C365.5075,1523.1416 361.088,1523.8712 358.5284,1516.598 C347.7643,1513.4798 347.6223,1507.6123 353.4976,1499.5762 C346.7174,1492.318 347.0047,1485.8356 356.9643,1481.8514" fill="#FEF3C7" style="stroke:#181818;stroke-width:0.5;"/><text fill="#000000" font-family="Monospace" font-size="14" lengthAdjust="spacing" textLength="61.9778" x="363.81" y="1503.5519">systemctl</text></g><!--entity tool_tachometer--><g class="entity" data-qualified-name="tool_tachometer" data-source-line="34" id="ent0029"><path d="M351.1372,2070.0388 C353.9107,2064.9654 358.466,2065.3255 361.1974,2070.0818 C365.2784,2063.8572 370.6257,2065.2827 374.0826,2070.7686 C377.4005,2065.2824 380.6563,2064.8558 384.3978,2070.3715 C387.2886,2063.4675 391.8421,2063.4291 396.5758,2068.4969 C400.3908,2063.2594 404.7824,2065.3585 407.0633,2070.1079 C410.1961,2064.9786 414.2249,2064.7641 417.746,2069.6955 C421.5874,2063.8541 426.4907,2064.9764 429.5576,2070.5003 C432.626,2064.7968 437.2669,2066.0957 440.2423,2070.5977 C448.4708,2074.409 449.1521,2081.4227 441.9896,2086.8852 C450.01,2091.8487 449.491,2097.5303 442.1584,2102.6581 C438.9761,2108.06 434.6887,2108.8007 430.7612,2103.4478 C428.1029,2110.1134 423.0421,2110.3719 418.528,2105.3982 C414.5625,2110.7819 411.2446,2110.0457 407.5271,2105.1332 C405.1191,2110.8205 399.8553,2110.9628 396.8516,2105.7147 C393.4425,2110.4512 388.345,2110.8681 385.2293,2105.3812 C381.2047,2109.1602 376.4951,2109.4401 374.3626,2103.307 C371.363,2110.3258 365.2263,2109.5646 361.1872,2104.4343 C357.6431,2108.912 352.017,2108.5476 349.6647,2103.0567 C340.8579,2101.9077 337.9025,2093.6623 342.7787,2086.7391 C338.0621,2077.3362 339.4816,2071.2474 351.1372,2070.0388" fill="#FEF3C7" style="stroke:#181818;stroke-width:0.5;"/><text fill="#000000" font-family="Monospace" font-size="14" lengthAdjust="spacing" textLength="76.4677" x="356.56" y="2091.5519">tachometer</text></g><!--entity tool_value--><g class="entity" data-qualified-name="tool_value" data-source-line="35" id="ent0030"><path d="M371.9143,1567.3979 C374.4199,1561.3349 378.1691,1561.1976 382.6787,1565.2694 C386.6348,1558.4511 390.5991,1559.4604 395.4031,1564.3477 C399.3746,1559.6171 404.2188,1559.8588 407.6436,1565.0239 C411.8809,1559.8836 417.0422,1560.9234 419.8556,1566.6274 C429.5141,1566.4634 435.5541,1573.3577 430.6183,1582.8664 C437.2706,1592.9369 432.1263,1601.5807 420.0886,1600.4742 C415.7888,1605.4891 411.9687,1607.1367 407.69,1600.4519 C404.0262,1605.6521 400.1361,1607.0076 396.0215,1600.9179 C392.5147,1606.0759 386.2558,1606.2014 383.1936,1600.3976 C379.0112,1606.7154 373.8101,1605.8798 370.247,1599.7533 C360.3079,1597.3524 358.2091,1590.0874 364.2907,1582.2383 C358.9852,1573.7822 363.0182,1568.5586 371.9143,1567.3979" fill="#FEF3C7" style="stroke:#181818;stroke-width:0.5;"/><text fill="#000000" font-family="Monospace" font-size="14" lengthAdjust="spacing" textLength="35.1259" x="377.23" y="1587.5519">value</text></g><!--entity tool_wg--><g class="entity" data-qualified-name="tool_wg" data-source-line="36" id="ent0031"><path d="M378.9082,1650.6 C382.7897,1640.4937 389.6544,1640.898 396.4151,1647.6013 C403.8965,1640.9126 408.253,1643.7715 411.8598,1651.6963 C420.4752,1654.8491 420.9633,1660.3413 415.6578,1666.9583 C421.6054,1673.1154 421.2272,1681.0125 411.7771,1683.5732 C409.4564,1693.3856 402.1776,1694.3854 394.8212,1689.3076 C387.0085,1695.3958 381.7597,1692.6711 379.3527,1683.7402 C368.5925,1682.4906 367.1803,1677.0446 371.8037,1668.2823 C366.094,1660.2116 367.6407,1651.8495 378.9082,1650.6" fill="#FEF3C7" style="stroke:#181818;stroke-width:0.5;"/><text fill="#000000" font-family="Monospace" font-size="14" lengthAdjust="spacing" textLength="19.6139" x="384.99" y="1671.5519">wg</text></g><!--entity tool_wireguard_public_vpn--><g class="entity" data-qualified-name="tool_wireguard_public_vpn" data-source-line="37" id="ent0032"><path d="M317.4201,1735.7727 C321.4205,1729.5698 326.0522,1729.3794 330.2728,1735.5438 C332.3478,1729.0459 337.4836,1729.4288 341.4426,1733.5648 C344.7373,1729.1261 348.2407,1728.5349 351.9825,1733.0379 C355.8837,1729.0605 359.9624,1728.4467 362.8005,1734.2176 C366.4372,1728.8796 370.6845,1728.2546 374.3498,1734.1883 C376.4301,1728.9113 381.5034,1727.8088 385.1086,1732.5509 C388.6197,1728.1988 392.996,1726.9339 396.0038,1733.0736 C398.8731,1728.1234 403.5796,1727.6781 406.9724,1732.485 C410.4983,1726.4328 414.9962,1726.8126 418.3245,1732.6733 C421.9848,1727.9217 427.548,1729.3521 429.6498,1734.463 C432.4497,1729.0052 436.2572,1730.0442 439.428,1734.0809 C443.345,1729.0399 447.2627,1729.5043 451.0758,1734.2051 C454.7455,1727.6629 458.6533,1727.924 463.1312,1733.3938 C466.4219,1728.459 469.6383,1729.493 472.43,1733.891 C481.0272,1738.4752 482.3676,1744.5468 475.9738,1752.0556 C482.3356,1757.687 481.4354,1763.2429 473.8024,1766.8154 C471.042,1771.8025 466.504,1771.6272 463.1225,1767.5469 C459.5872,1773.3239 456.1097,1773.2625 451.7755,1768.3989 C448.9232,1774.6996 445.3006,1774.7851 440.3908,1770.6416 C437.1989,1775.8179 431.8505,1775.6259 429.5521,1769.7641 C427.1857,1775.943 421.3854,1775.2292 418.1367,1770.7051 C415.9667,1776.5274 411.9572,1777.0956 408.0056,1772.4251 C404.6287,1778.2158 399.6699,1778.662 395.2462,1773.663 C391.3636,1777.7354 387.1818,1778.0151 384.3533,1772.4693 C380.5629,1776.4728 377.2443,1776.5697 374.4953,1771.3556 C370.4027,1777.7157 366.284,1776.4078 362.215,1771.3302 C358.7547,1774.9512 354.0139,1773.7677 352.3378,1769.1826 C348.8989,1776.0551 344.3255,1776.4166 339.8828,1770.133 C336.2363,1775.1155 331.4189,1774.3811 328.5877,1769.2247 C324.7606,1773.484 320.5445,1773.2621 317.667,1768.1214 C309.133,1764.9073 306.8299,1757.855 313.5784,1750.9929 C306.7228,1745.0549 308.0711,1737.6206 317.4201,1735.7727" fill="#FEF3C7" style="stroke:#181818;stroke-width:0.5;"/><text fill="#000000" font-family="Monospace" font-size="14" lengthAdjust="spacing" textLength="141.0074" x="324.29" y="1755.5519">wireguard-public-vpn</text></g><!--entity tool_yum--><g class="entity" data-qualified-name="tool_yum" data-source-line="38" id="ent0033"><path d="M375.4252,1818.8919 C379.6986,1807.0246 389.7091,1807.4426 396.4982,1816.3386 C403.4023,1808.3104 412.1969,1808.9474 416.9424,1818.8058 C426.4779,1822.765 425.676,1828.0786 419.926,1834.8758 C426.8967,1842.0856 425.8547,1848.4844 416.3338,1852.2928 C414.4128,1858.0527 411.065,1858.931 406.3039,1855.3388 C405.2231,1860.785 400.599,1862.2487 396.6642,1858.2522 C391.4041,1863.1309 387.2461,1861.8266 384.6825,1855.3955 C380.3885,1858.1296 377.0495,1857.1318 375.4456,1852.1678 C366.9464,1849.346 364.3193,1840.6182 371.3705,1834.2582 C364.9406,1826.9187 365.8132,1821.9984 375.4252,1818.8919" fill="#FEF3C7" style="stroke:#181818;stroke-width:0.5;"/><text fill="#000000" font-family="Monospace" font-size="14" lengthAdjust="spacing" textLength="28.8819" x="380.35" y="1839.5519">yum</text></g><g class="entity" data-qualified-name="toolingGraphSummary" data-source-line="69" id="ent0063"><path d="M24.39,842.4159 L24.39,887.828 L231.9012,887.828 L231.9012,852.4159 L221.9012,842.4159 L24.39,842.4159" fill="#FEFFDD" style="stroke:#181818;stroke-width:0.5;"/><path d="M221.9012,842.4159 L221.9012,852.4159 L231.9012,852.4159 L221.9012,842.4159" fill="#FEFFDD" style="stroke:#181818;stroke-width:1;"/><text fill="#000000" font-family="Monospace" font-size="13" lengthAdjust="spacing" textLength="186.5112" x="30.39" y="861.3129">Scanned&#160;3&#160;tooling&#160;entrypoints.</text><text fill="#000000" font-family="Monospace" font-size="13" lengthAdjust="spacing" textLength="179.2182" x="30.39" y="879.019">Detected&#160;29&#160;third-party&#160;tools.</text></g><!--link source_github_workflows_ci_yml to tool_actions_checkout--><g class="link" data-entity-1="ent0002" data-entity-2="ent0009" data-link-type="dependency" data-source-line="39" id="lnk34"><path d="M128.3,2266.5759 C128.3,2229.3359 128.3,2170.1259 128.3,2170.1259 C128.3,2170.1259 238.44,2170.1259 317.38,2170.1259" fill="none" id="source_github_workflows_ci_yml-to-tool_actions_checkout" style="stroke:#181818;stroke-width:1;"/><polygon fill="#181818" points="323.38,2170.1259,314.38,2166.1259,318.38,2170.1259,314.38,2174.1259,323.38,2170.1259" style="stroke:#181818;stroke-width:1;"/></g><!--link source_github_workflows_ci_yml to tool_actions_setup_python--><g class="link" data-entity-1="ent0002" data-entity-2="ent0010" data-link-type="dependency" data-source-line="40" id="lnk35"><path d="M219.91,2272.8559 C248.99,2272.8559 274.99,2272.8559 303.59,2272.8559" fill="none" id="source_github_workflows_ci_yml-to-tool_actions_setup_python" style="stroke:#181818;stroke-width:1;"/><polygon fill="#181818" points="309.59,2272.8559,300.59,2268.8559,304.59,2272.8559,300.59,2276.8559,309.59,2272.8559" style="stroke:#181818;stroke-width:1;"/></g><!--link source_github_workflows_ci_yml to tool_pip--><g class="link" data-entity-1="ent0002" data-entity-2="ent0019" data-link-type="dependency" data-source-line="41" id="lnk36"><path d="M219.91,2317.4559 C272.49,2317.4559 328.64,2317.4559 362.89,2317.4559" fill="none" id="source_github_workflows_ci_yml-to-tool_pip" style="stroke:#181818;stroke-width:1;"/><polygon fill="#181818" points="368.89,2317.4559,359.89,2313.4559,363.89,2317.4559,359.89,2321.4559,368.89,2317.4559" style="stroke:#181818;stroke-width:1;"/></g><!--link source_github_workflows_ci_yml to tool_pre_commit--><g class="link" data-entity-1="ent0002" data-entity-2="ent0020" data-link-type="dependency" data-source-line="42" id="lnk37"><path d="M219.88,2321.3259 C282.93,2321.3259 355.3,2321.3259 355.3,2321.3259 C355.3,2321.3259 355.3,2361.3559 355.3,2391.2059" fill="none" id="source_github_workflows_ci_yml-to-tool_pre_commit" style="stroke:#181818;stroke-width:1;"/><polygon fill="#181818" points="355.3,2397.2059,359.3,2388.2059,355.3,2392.2059,351.3,2388.2059,355.3,2397.2059" style="stroke:#181818;stroke-width:1;"/></g><!--link source_scripts_run_tachometer_profile_sh to tool_run--><g class="link" data-entity-1="ent0003" data-entity-2="ent0024" data-link-type="dependency" data-source-line="43" id="lnk38"><path d="M243.3,1972.7459 C243.3,1948.5159 243.3,1918.1259 243.3,1918.1259 C243.3,1918.1259 318.57,1918.1259 362.06,1918.1259" fill="none" id="source_scripts_run_tachometer_profile_sh-to-tool_run" style="stroke:#181818;stroke-width:1;"/><polygon fill="#181818" points="368.06,1918.1259,359.06,1914.1259,363.06,1918.1259,359.06,1922.1259,368.06,1918.1259" style="stroke:#181818;stroke-width:1;"/></g><!--link source_scripts_run_tachometer_profile_sh to tool_summarize--><g class="link" data-entity-1="ent0003" data-entity-2="ent0026" data-link-type="dependency" data-source-line="44" id="lnk39"><path d="M249.77,2002.1259 C282.46,2002.1259 310.09,2002.1259 336.73,2002.1259" fill="none" id="source_scripts_run_tachometer_profile_sh-to-tool_summarize" style="stroke:#181818;stroke-width:1;"/><polygon fill="#181818" points="342.73,2002.1259,333.73,1998.1259,337.73,2002.1259,333.73,2006.1259,342.73,2002.1259" style="stroke:#181818;stroke-width:1;"/></g><!--link source_scripts_run_tachometer_profile_sh to tool_tachometer--><g class="link" data-entity-1="ent0003" data-entity-2="ent0029" data-link-type="dependency" data-source-line="45" id="lnk40"><path d="M234.3,2031.5059 C234.3,2055.7259 234.3,2086.1259 234.3,2086.1259 C234.3,2086.1259 288.66,2086.1259 335.35,2086.1259" fill="none" id="source_scripts_run_tachometer_profile_sh-to-tool_tachometer" style="stroke:#181818;stroke-width:1;"/><polygon fill="#181818" points="341.35,2086.1259,332.35,2082.1259,336.35,2086.1259,332.35,2090.1259,341.35,2086.1259" style="stroke:#181818;stroke-width:1;"/></g><!--link source_scripts_setup_wireguard_sh to tool_endpoint--><g class="link" data-entity-1="ent0004" data-entity-2="ent0005" data-link-type="dependency" data-source-line="46" id="lnk41"><path d="M227.86,939.6459 C244.4,939.6459 256.3,939.6459 256.3,939.6459 C256.3,939.6459 256.3,70.1259 256.3,70.1259 C256.3,70.1259 303.39,70.1259 343.83,70.1259" fill="none" id="source_scripts_setup_wireguard_sh-to-tool_endpoint" style="stroke:#181818;stroke-width:1;"/><polygon fill="#181818" points="349.83,70.1259,340.83,66.1259,344.83,70.1259,340.83,74.1259,349.83,70.1259" style="stroke:#181818;stroke-width:1;"/></g><!--link source_scripts_setup_wireguard_sh to tool_nn--><g class="link" data-entity-1="ent0004" data-entity-2="ent0006" data-link-type="dependency" data-source-line="47" id="lnk42"><path d="M227.75,944.6359 C247.51,944.6359 262.3,944.6359 262.3,944.6359 C262.3,944.6359 262.3,154.1259 262.3,154.1259 C262.3,154.1259 320,154.1259 359.06,154.1259" fill="none" id="source_scripts_setup_wireguard_sh-to-tool_nn" style="stroke:#181818;stroke-width:1;"/><polygon fill="#181818" points="365.06,154.1259,356.06,150.1259,360.06,154.1259,356.06,158.1259,365.06,154.1259" style="stroke:#181818;stroke-width:1;"/></g><!--link source_scripts_setup_wireguard_sh to tool_nn_oo--><g class="link" data-entity-1="ent0004" data-entity-2="ent0007" data-link-type="dependency" data-source-line="48" id="lnk43"><path d="M227.71,949.6259 C251.07,949.6259 269.3,949.6259 269.3,949.6259 C269.3,949.6259 269.3,238.1259 269.3,238.1259 C269.3,238.1259 308.71,238.1259 344.9,238.1259" fill="none" id="source_scripts_setup_wireguard_sh-to-tool_nn_oo" style="stroke:#181818;stroke-width:1;"/><polygon fill="#181818" points="350.9,238.1259,341.9,234.1259,345.9,238.1259,341.9,242.1259,350.9,238.1259" style="stroke:#181818;stroke-width:1;"/></g><!--link source_scripts_setup_wireguard_sh to tool_yy--><g class="link" data-entity-1="ent0004" data-entity-2="ent0008" data-link-type="dependency" data-source-line="49" id="lnk44"><path d="M227.79,954.6159 C254.59,954.6159 276.3,954.6159 276.3,954.6159 C276.3,954.6159 276.3,322.1259 276.3,322.1259 C276.3,322.1259 326.31,322.1259 361.31,322.1259" fill="none" id="source_scripts_setup_wireguard_sh-to-tool_yy" style="stroke:#181818;stroke-width:1;"/><polygon fill="#181818" points="367.31,322.1259,358.31,318.1259,362.31,322.1259,358.31,326.1259,367.31,322.1259" style="stroke:#181818;stroke-width:1;"/></g><!--link source_scripts_setup_wireguard_sh to tool_apt_get--><g class="link" data-entity-1="ent0004" data-entity-2="ent0011" data-link-type="dependency" data-source-line="50" id="lnk45"><path d="M227.52,959.6059 C257.34,959.6059 282.3,959.6059 282.3,959.6059 C282.3,959.6059 282.3,406.1259 282.3,406.1259 C282.3,406.1259 317.27,406.1259 349.76,406.1259" fill="none" id="source_scripts_setup_wireguard_sh-to-tool_apt_get" style="stroke:#181818;stroke-width:1;"/><polygon fill="#181818" points="355.76,406.1259,346.76,402.1259,350.76,406.1259,346.76,410.1259,355.76,406.1259" style="stroke:#181818;stroke-width:1;"/></g><!--link source_scripts_setup_wireguard_sh to tool_cat--><g class="link" data-entity-1="ent0004" data-entity-2="ent0012" data-link-type="dependency" data-source-line="51" id="lnk46"><path d="M227.45,964.5959 C260.62,964.5959 289.3,964.5959 289.3,964.5959 C289.3,964.5959 289.3,490.1259 289.3,490.1259 C289.3,490.1259 332.32,490.1259 363.53,490.1259" fill="none" id="source_scripts_setup_wireguard_sh-to-tool_cat" style="stroke:#181818;stroke-width:1;"/><polygon fill="#181818" points="369.53,490.1259,360.53,486.1259,364.53,490.1259,360.53,494.1259,369.53,490.1259" style="stroke:#181818;stroke-width:1;"/></g><!--link source_scripts_setup_wireguard_sh to tool_client_private_key--><g class="link" data-entity-1="ent0004" data-entity-2="ent0013" data-link-type="dependency" data-source-line="52" id="lnk47"><path d="M227.84,930.7859 C278.42,930.7859 329.3,930.7859 329.3,930.7859 C329.3,930.7859 329.3,685.8059 329.3,604.9159" fill="none" id="source_scripts_setup_wireguard_sh-to-tool_client_private_key" style="stroke:#181818;stroke-width:1;"/><polygon fill="#181818" points="329.3,598.9159,325.3,607.9159,329.3,603.9159,333.3,607.9159,329.3,598.9159" style="stroke:#181818;stroke-width:1;"/></g><!--link source_scripts_setup_wireguard_sh to tool_dnf--><g class="link" data-entity-1="ent0004" data-entity-2="ent0014" data-link-type="dependency" data-source-line="53" id="lnk48"><path d="M227.42,926.9259 C263.83,926.9259 296.3,926.9259 296.3,926.9259 C296.3,926.9259 296.3,658.1259 296.3,658.1259 C296.3,658.1259 333.22,658.1259 362.4,658.1259" fill="none" id="source_scripts_setup_wireguard_sh-to-tool_dnf" style="stroke:#181818;stroke-width:1;"/><polygon fill="#181818" points="368.4,658.1259,359.4,654.1259,363.4,658.1259,359.4,662.1259,368.4,658.1259" style="stroke:#181818;stroke-width:1;"/></g><!--link source_scripts_setup_wireguard_sh to tool_firewall_cmd--><g class="link" data-entity-1="ent0004" data-entity-2="ent0015" data-link-type="dependency" data-source-line="54" id="lnk49"><path d="M227.68,928.8559 C266.7,928.8559 302.3,928.8559 302.3,928.8559 C302.3,928.8559 302.3,742.1259 302.3,742.1259 C302.3,742.1259 313.38,742.1259 332.86,742.1259" fill="none" id="source_scripts_setup_wireguard_sh-to-tool_firewall_cmd" style="stroke:#181818;stroke-width:1;"/><polygon fill="#181818" points="338.86,742.1259,329.86,738.1259,333.86,742.1259,329.86,746.1259,338.86,742.1259" style="stroke:#181818;stroke-width:1;"/></g><!--link source_scripts_setup_wireguard_sh to tool_grep--><g class="link" data-entity-1="ent0004" data-entity-2="ent0016" data-link-type="dependency" data-source-line="55" id="lnk50"><path d="M227.61,924.9859 C233.62,924.9859 237.3,924.9859 237.3,924.9859 C237.3,924.9859 237.3,846.5359 237.3,846.5359 C237.3,846.5359 312.22,846.5359 358.05,846.5359" fill="none" id="source_scripts_setup_wireguard_sh-to-tool_grep" style="stroke:#181818;stroke-width:1;"/><polygon fill="#181818" points="364.05,846.5359,355.05,842.5359,359.05,846.5359,355.05,850.5359,364.05,846.5359" style="stroke:#181818;stroke-width:1;"/></g><!--link source_scripts_setup_wireguard_sh to tool_icanhazip_com--><g class="link" data-entity-1="ent0004" data-entity-2="ent0017" data-link-type="dependency" data-source-line="56" id="lnk51"><path d="M227.82,932.7259 C262.87,932.7259 295.25,932.7259 326.37,932.7259" fill="none" id="source_scripts_setup_wireguard_sh-to-tool_icanhazip_com" style="stroke:#181818;stroke-width:1;"/><polygon fill="#181818" points="332.37,932.7259,323.37,928.7259,327.37,932.7259,323.37,936.7259,332.37,932.7259" style="stroke:#181818;stroke-width:1;"/></g><!--link source_scripts_setup_wireguard_sh to tool_install--><g class="link" data-entity-1="ent0004" data-entity-2="ent0018" data-link-type="dependency" data-source-line="57" id="lnk52"><path d="M227.82,971.9059 C274.26,971.9059 320.54,971.9059 354.03,971.9059" fill="none" id="source_scripts_setup_wireguard_sh-to-tool_install" style="stroke:#181818;stroke-width:1;"/><polygon fill="#181818" points="360.03,971.9059,351.03,967.9059,355.03,971.9059,351.03,975.9059,360.03,971.9059" style="stroke:#181818;stroke-width:1;"/></g><!--link source_scripts_setup_wireguard_sh to tool_print--><g class="link" data-entity-1="ent0004" data-entity-2="ent0021" data-link-type="dependency" data-source-line="58" id="lnk53"><path d="M202.3,981.6659 C202.3,1018.9059 202.3,1078.1259 202.3,1078.1259 C202.3,1078.1259 303.45,1078.1259 357.87,1078.1259" fill="none" id="source_scripts_setup_wireguard_sh-to-tool_print" style="stroke:#181818;stroke-width:1;"/><polygon fill="#181818" points="363.87,1078.1259,354.87,1074.1259,358.87,1078.1259,354.87,1082.1259,363.87,1078.1259" style="stroke:#181818;stroke-width:1;"/></g><!--link source_scripts_setup_wireguard_sh to tool_qrencode--><g class="link" data-entity-1="ent0004" data-entity-2="ent0022" data-link-type="dependency" data-source-line="59" id="lnk54"><path d="M227.67,974.2259 C288.34,974.2259 354.3,974.2259 354.3,974.2259 C354.3,974.2259 354.3,1080.0559 354.3,1131.1759" fill="none" id="source_scripts_setup_wireguard_sh-to-tool_qrencode" style="stroke:#181818;stroke-width:1;"/><polygon fill="#181818" points="354.3,1137.1759,358.3,1128.1759,354.3,1132.1759,350.3,1128.1759,354.3,1137.1759" style="stroke:#181818;stroke-width:1;"/></g><!--link source_scripts_setup_wireguard_sh to tool_rm--><g class="link" data-entity-1="ent0004" data-entity-2="ent0023" data-link-type="dependency" data-source-line="60" id="lnk55"><path d="M177.3,981.6559 C177.3,1056.2159 177.3,1246.1259 177.3,1246.1259 C177.3,1246.1259 307.39,1246.1259 364.27,1246.1259" fill="none" id="source_scripts_setup_wireguard_sh-to-tool_rm" style="stroke:#181818;stroke-width:1;"/><polygon fill="#181818" points="370.27,1246.1259,361.27,1242.1259,365.27,1246.1259,361.27,1250.1259,370.27,1246.1259" style="stroke:#181818;stroke-width:1;"/></g><!--link source_scripts_setup_wireguard_sh to tool_server_public_key--><g class="link" data-entity-1="ent0004" data-entity-2="ent0025" data-link-type="dependency" data-source-line="61" id="lnk56"><path d="M227.8,976.5459 C277.15,976.5459 326.3,976.5459 326.3,976.5459 C326.3,976.5459 326.3,1218.7759 326.3,1299.2559" fill="none" id="source_scripts_setup_wireguard_sh-to-tool_server_public_key" style="stroke:#181818;stroke-width:1;"/><polygon fill="#181818" points="326.3,1305.2559,330.3,1296.2559,326.3,1300.2559,322.3,1296.2559,326.3,1305.2559" style="stroke:#181818;stroke-width:1;"/></g><!--link source_scripts_setup_wireguard_sh to tool_sysctl--><g class="link" data-entity-1="ent0004" data-entity-2="ent0027" data-link-type="dependency" data-source-line="62" id="lnk57"><path d="M153.3,981.3759 C153.3,1082.9259 153.3,1414.1259 153.3,1414.1259 C153.3,1414.1259 289.22,1414.1259 355.47,1414.1259" fill="none" id="source_scripts_setup_wireguard_sh-to-tool_sysctl" style="stroke:#181818;stroke-width:1;"/><polygon fill="#181818" points="361.47,1414.1259,352.47,1410.1259,356.47,1414.1259,352.47,1418.1259,361.47,1414.1259" style="stroke:#181818;stroke-width:1;"/></g><!--link source_scripts_setup_wireguard_sh to tool_systemctl--><g class="link" data-entity-1="ent0004" data-entity-2="ent0028" data-link-type="dependency" data-source-line="63" id="lnk58"><path d="M128.3,981.4759 C128.3,1094.8859 128.3,1498.1259 128.3,1498.1259 C128.3,1498.1259 266.02,1498.1259 342.37,1498.1259" fill="none" id="source_scripts_setup_wireguard_sh-to-tool_systemctl" style="stroke:#181818;stroke-width:1;"/><polygon fill="#181818" points="348.37,1498.1259,339.37,1494.1259,343.37,1498.1259,339.37,1502.1259,348.37,1498.1259" style="stroke:#181818;stroke-width:1;"/></g><!--link source_scripts_setup_wireguard_sh to tool_value--><g class="link" data-entity-1="ent0004" data-entity-2="ent0030" data-link-type="dependency" data-source-line="64" id="lnk59"><path d="M103.3,981.6659 C103.3,1106.2159 103.3,1582.1259 103.3,1582.1259 C103.3,1582.1259 279.69,1582.1259 355.92,1582.1259" fill="none" id="source_scripts_setup_wireguard_sh-to-tool_value" style="stroke:#181818;stroke-width:1;"/><polygon fill="#181818" points="361.92,1582.1259,352.92,1578.1259,356.92,1582.1259,352.92,1586.1259,361.92,1582.1259" style="stroke:#181818;stroke-width:1;"/></g><!--link source_scripts_setup_wireguard_sh to tool_wg--><g class="link" data-entity-1="ent0004" data-entity-2="ent0031" data-link-type="dependency" data-source-line="65" id="lnk60"><path d="M78.3,981.4459 C78.3,1115.7959 78.3,1666.1259 78.3,1666.1259 C78.3,1666.1259 288.84,1666.1259 363.7,1666.1259" fill="none" id="source_scripts_setup_wireguard_sh-to-tool_wg" style="stroke:#181818;stroke-width:1;"/><polygon fill="#181818" points="369.7,1666.1259,360.7,1662.1259,364.7,1666.1259,360.7,1670.1259,369.7,1666.1259" style="stroke:#181818;stroke-width:1;"/></g><!--link source_scripts_setup_wireguard_sh to tool_wireguard_public_vpn--><g class="link" data-entity-1="ent0004" data-entity-2="ent0032" data-link-type="dependency" data-source-line="66" id="lnk61"><path d="M227.73,978.8659 C272.86,978.8659 316.3,978.8659 316.3,978.8659 C316.3,978.8659 316.3,1587.3259 316.3,1719.3359" fill="none" id="source_scripts_setup_wireguard_sh-to-tool_wireguard_public_vpn" style="stroke:#181818;stroke-width:1;"/><polygon fill="#181818" points="316.3,1725.3359,320.3,1716.3359,316.3,1720.3359,312.3,1716.3359,316.3,1725.3359" style="stroke:#181818;stroke-width:1;"/></g><!--link source_scripts_setup_wireguard_sh to tool_yum--><g class="link" data-entity-1="ent0004" data-entity-2="ent0033" data-link-type="dependency" data-source-line="67" id="lnk62"><path d="M53.3,981.4659 C53.3,1134.5059 53.3,1834.1259 53.3,1834.1259 C53.3,1834.1259 276,1834.1259 359.09,1834.1259" fill="none" id="source_scripts_setup_wireguard_sh-to-tool_yum" style="stroke:#181818;stroke-width:1;"/><polygon fill="#181818" points="365.09,1834.1259,356.09,1830.1259,360.09,1834.1259,356.09,1838.1259,365.09,1834.1259" style="stroke:#181818;stroke-width:1;"/></g><?plantuml-src dPT1RziW5CVl_XIeFJkTqadJBhkioRJ3kaDtcTe9KKni50mCS2pwwVTinpR1MHjwvFr_Vnu6_9xjk1CCsKePbrDkQCCT-gMKuB94twLZfI6EAsapmNOEEOKCBok72cuOxOJCxhdKn90Q9Y65QZlZZWZB0gLWEz88jrNItPEQeHzAAgi93HcgQgqaa-x1ULXHDpsHfGWHM1HpNZC4YwrKDY7eQbLoLpNFDwqo-vrGhRsXVELhyIG_Gd8782jWyKhOAqGiigenbE71X2SJfXo32LrlFcpNsqsOm5B3jRCtff7O4Lgf6cOrM1kruuAjRFKaRr_9TBJZytPigzToMkOQZLlOyR8XfkYJhTSNP8kCOHegL5EWguqijEBIzUvk7ioE4NIztMnlltuQoKTv_sUcf3odFwgV9mnMQe7vtm7YVQoJ_bB1yLMCxbKJBEoeu57vdxD_w5nxk25owHwsP50NCsYNbonCgHs6GCnH4Z0mMEY2mpNEjU47ubY-Ppx0UmqVDGnQx2xaRiPX4EixECwM297JkfZ1COeX6ZjAm_HCTgEOu9J8YhnmlOAtS4QdC8RmmYEjWuG1FGHYJlCWEGmMkc4vJ5_pO5CXXeVOaZwvhVqmPluQ9gags8oDaPWqmSEQnHF2onh8pUA-M6OEpEIwUHQSdXxp8E51EdVAjgbhOlXBiCWfj62zfIxOw65yXdAiZi4X5BDp2PhXEHRJ1oAQO9tzC6RQSWRQSg6E9MZSh8CEjdOkKCVz0ZMUmJV1KS5WqjyevNd-vNpvI3Q6bUDYCzptozdfqcSNTut93CWxNDELUuTtbhEtsyxa6jjBYaVAD1hQJeh1-nJws1DIBD0Yal15YqXnGyT8mSE-aUBhkaWAVz9Aaen3Lqcnz4qXnJ2sXnIFINgAHJz8ClVrFj4n5FuKKr_NKmnjcKIVgV99hsbJPr8vDdO1-C_uPeYk7leQvhC7k64IlePlHnN1MsHyNstiAhiRlvRNdv6hUDUAY75--7XUPL2NK3VxFm00?></g></svg>
