<?plantuml 1.2026.2?><svg xmlns="http://www.w3.org/2000/svg" xmlns:xlink="http://www.w3.org/1999/xlink" contentStyleType="text/css" data-diagram-type="DESCRIPTION" height="2201px" preserveAspectRatio="none" style="width:456px;height:2201px;background:#FFFFFF;" version="1.1" viewBox="0 0 456 2201" width="456px" zoomAndPan="magnify"><title>short-circuit Tooling Integrations</title><defs/><g><g class="title" data-source-line="1"><text fill="#000000" font-family="Monospace" font-size="14" font-weight="bold" lengthAdjust="spacing" textLength="230.9012" x="105.9689" y="24.9659">short-circuit&#160;Tooling&#160;Integrations</text></g><!--entity source_github_workflows_ci_yml--><g class="entity" data-qualified-name="source_github_workflows_ci_yml" data-source-line="7" id="ent0002"><rect fill="#E0F2FE" height="58.1358" rx="2.5" ry="2.5" style="stroke:#181818;stroke-width:0.5;" width="182.6234" x="18.44" y="2015.0559"/><text fill="#000000" font-family="Monospace" font-size="14" lengthAdjust="spacing" textLength="162.6234" x="28.44" y="2040.0219">.github/workflows/ci.yml</text><text fill="#000000" font-family="Monospace" font-size="14" lengthAdjust="spacing" textLength="105.3356" x="28.44" y="2059.0898">4&#160;detected&#160;tools</text></g><!--entity source_scripts_setup_wireguard_sh--><g class="entity" data-qualified-name="source_scripts_setup_wireguard_sh" data-source-line="8" id="ent0003"><rect fill="#E0F2FE" height="58.1358" rx="2.5" ry="2.5" style="stroke:#181818;stroke-width:0.5;" width="198.4433" x="10.53" y="923.0559"/><text fill="#000000" font-family="Monospace" font-size="14" lengthAdjust="spacing" textLength="178.4433" x="20.53" y="948.0219">scripts/setup_wireguard.sh</text><text fill="#000000" font-family="Monospace" font-size="14" lengthAdjust="spacing" textLength="113.3436" x="20.53" y="967.0898">22&#160;detected&#160;tools</text></g><!--entity tool_endpoint--><g class="entity" data-qualified-name="tool_endpoint" data-source-line="9" id="ent0004"><path d="M323.1903,54.1607 C327.3187,48.35 331.6823,46.6859 336.3297,53.6258 C339.8815,47.7834 345.2624,48.3876 348.7384,53.71 C351.8013,48.6085 356.8199,47.171 360.3727,53.1979 C363.545,48.6549 367.9691,48.141 371.2836,53.0334 C375.6923,46.0679 381.997,46.5316 385.0868,54.2714 C389.2641,48.2247 394.0232,49.2859 396.8871,55.5322 C404.8553,57.6056 408.2391,63.3095 401.7447,70.1793 C408.9525,76.9003 407.8286,85.8981 397.1656,88.0365 C394.3911,94.9573 389.6856,94.8274 385.1785,89.7705 C383.288,97.2219 376.583,98.319 371.8231,92.7031 C368.6061,99.3691 364.1993,99.398 359.1762,94.716 C354.9233,98.9357 350.1808,98.481 348.7338,91.9824 C343.2699,97.6668 338.9357,95.7944 336.0199,89.3183 C331.4314,95.621 327.1083,94.23 323.1093,88.6764 C314.0118,85.3084 312.7079,77.6299 320.5867,71.7343 C312.6607,65.5506 314.3818,57.865 323.1903,54.1607" fill="#FEF3C7" style="stroke:#181818;stroke-width:0.5;"/><text fill="#000000" font-family="Monospace" font-size="14" lengthAdjust="spacing" textLength="59.4438" x="329.29" y="75.5519">Endpoint</text></g><!--entity tool_nn--><g class="entity" data-qualified-name="tool_nn" data-source-line="10" id="ent0005"><path d="M339.8352,138.8919 C344.0581,127.1249 353.9805,127.5285 360.7192,136.3386 C367.5692,128.3911 376.283,129.032 380.9744,138.8058 C390.5099,142.765 389.708,148.0786 383.958,154.8758 C390.9287,162.0856 389.8867,168.4844 380.3658,172.2928 C378.4764,178.008 375.1598,178.8875 370.4304,175.3388 C369.3741,180.739 364.7955,182.2021 360.8852,178.2522 C355.6556,183.0851 351.531,181.7832 348.998,175.3955 C344.7345,178.091 341.4291,177.0917 339.8556,172.1678 C331.3564,169.346 328.7293,160.6182 335.7805,154.2582 C329.3506,146.9187 330.2232,141.9984 339.8352,138.8919" fill="#FEF3C7" style="stroke:#181818;stroke-width:0.5;"/><text fill="#000000" font-family="Monospace" font-size="14" lengthAdjust="spacing" textLength="28.5039" x="344.76" y="159.5519">[nN]</text></g><!--entity tool_nn_oo--><g class="entity" data-qualified-name="tool_nn_oo" data-source-line="11" id="ent0006"><path d="M324.3223,223.4328 C326.3948,216.8932 331.1888,216.2674 335.5863,221.1375 C338.9586,214.1674 345.1867,213.4392 349.0515,220.6705 C352.6636,215.751 357.0263,214.5344 360.9744,220.2954 C364.7466,216.0932 368.4446,216.3189 370.9593,221.617 C375.8058,215.1557 379.7612,215.3763 383.6344,222.5234 C386.4415,216.7525 391.2591,217.3272 394.8194,221.6923 C405.2742,224.8461 408.5007,230.9026 400.744,239.9622 C407.0737,247.3368 405.636,253.5506 395.6141,255.5407 C393.7329,261.8152 389.8582,262.8197 384.6144,259.3282 C381.9058,264.8423 375.818,265.7832 372.016,260.6182 C370.015,267.2961 365.6112,269.7008 359.5828,265.0306 C354.5227,269.889 349.5204,267.8271 347.2123,261.88 C342.5193,265.0521 338.5161,264.4863 337.3941,258.1807 C332.4036,264.1984 327.9871,263.335 324.7766,256.4412 C315.4438,254.2607 312.5082,246.6846 319.1295,239.2602 C312.789,231.7596 315.9625,226.1103 324.3223,223.4328" fill="#FEF3C7" style="stroke:#181818;stroke-width:0.5;"/><text fill="#000000" font-family="Monospace" font-size="14" lengthAdjust="spacing" textLength="57.1198" x="330.46" y="243.5519">[nN][oO]</text></g><!--entity tool_yy--><g class="entity" data-qualified-name="tool_yy" data-source-line="12" id="ent0007"><path d="M340.4632,306.2733 C345.3607,296.8253 354.7935,296.0912 360.4412,305.4776 C367.2857,297.7355 373.0008,297.7671 378.1755,307.2016 C388.731,307.8514 390.9817,314.4452 386.1655,322.9125 C390.9434,331.7421 387.5404,336.7066 378.5339,338.9952 C373.3547,349.002 367.6321,349.7047 359.9579,341.5468 C353.2781,349.1819 344.9485,349.9912 340.7521,338.9878 C331.7482,337.6799 329.0261,330.7218 335.269,323.8803 C327.949,316.6491 331.7146,308.764 340.4632,306.2733" fill="#FEF3C7" style="stroke:#181818;stroke-width:0.5;"/><text fill="#000000" font-family="Monospace" font-size="14" lengthAdjust="spacing" textLength="24.2759" x="346.88" y="327.5519">[yY]</text></g><!--entity tool_actions_checkout--><g class="entity" data-qualified-name="tool_actions_checkout" data-source-line="13" id="ent0008"><path d="M297.4921,1901.9517 C301.3439,1895.7926 306.0865,1895.9332 309.816,1902.0742 C313.1217,1895.3113 318.1234,1896.5602 322.162,1901.2867 C326.7823,1894.1393 331.0429,1894.2641 335.6839,1901.267 C339.9587,1894.9836 343.7913,1895.9716 347.8873,1901.4525 C351.2188,1896.7666 356.4324,1896.9202 359.2126,1902.0863 C361.9108,1896.4285 368.1773,1895.9366 371.7545,1901.0641 C375.8341,1895.0268 381.1319,1895.0864 385.505,1900.7183 C390.6796,1895.2827 395.4412,1895.7828 398.2916,1903.0566 C401.2626,1896.9325 406.7429,1897.0166 409.7815,1902.9923 C413.7503,1897.1588 418.1344,1897.9158 422.1444,1902.9454 C431.8257,1905.355 433.1359,1911.5147 428.1382,1919.303 C433.5831,1927.7602 432.118,1932.8635 422.1747,1935.7365 C419.9271,1941.4079 414.5673,1941.8792 411.3914,1936.6553 C407.8044,1943.1656 401.6423,1943.7549 397.0511,1937.8117 C394.3176,1943.7141 390.3471,1945.3295 385.1171,1940.6188 C381.8362,1947.1227 377.3401,1946.9468 373.2601,1941.4054 C370.7317,1948.8445 364.2143,1949.3114 360.206,1942.7891 C355.3027,1949.1869 349.8436,1947.1112 347.3565,1940.4175 C343.4206,1947.1955 337.4989,1947.0401 333.9281,1940.0611 C329.3934,1945.5795 324.7051,1944.1009 322.0315,1938.1335 C318.1543,1943.251 312.7953,1942.8731 310.2514,1936.7378 C305.7905,1942.2009 299.5686,1942.9367 296.3071,1935.4466 C289.2091,1931.3952 287.8077,1923.4122 296.3887,1919.4407 C288.1464,1913.4125 289.0935,1906.9299 297.4921,1901.9517" fill="#FEF3C7" style="stroke:#181818;stroke-width:0.5;"/><text fill="#000000" font-family="Monospace" font-size="14" lengthAdjust="spacing" textLength="111.9156" x="303.06" y="1923.5519">actions/checkout</text></g><!--entity tool_actions_setup_python--><g class="entity" data-qualified-name="tool_actions_setup_python" data-source-line="14" id="ent0009"><path d="M283.1291,1987.1366 C285.3416,1981.0818 289.5552,1981.0201 293.3739,1985.5875 C298.2376,1980.2578 302.5769,1980.9067 305.9697,1987.1837 C307.8657,1982.5943 312.6636,1980.7401 316.1196,1985.4878 C319.4791,1979.1952 323.0866,1979.3018 327.1551,1984.8256 C330.7353,1979.3391 334.473,1980.2373 337.9227,1984.9632 C341.7614,1980.6216 345.3998,1980.95 348.176,1986.1098 C351.3514,1980.3053 356.4079,1978.6525 361.1498,1984.3416 C364.1956,1979.3708 367.134,1979.4293 370.255,1984.2719 C374.5881,1978.5292 378.9161,1979.1699 382.6453,1984.9228 C386.688,1979.9854 390.5571,1980.6493 393.6186,1985.9723 C396.3871,1980.5994 401.1505,1981.2756 404.2599,1985.5981 C407.3103,1979.954 412.1118,1980.6692 414.8425,1985.9089 C419.0674,1980.2667 422.8672,1980.9502 426.9037,1986.119 C430.6954,1980.8486 435.1472,1981.1621 438.3476,1986.7426 C447.4926,1989.4438 449.3241,1997.467 442.804,2004.1733 C449.8389,2012.2689 447.3916,2018.8068 436.8014,2020.3708 C433.3194,2025.9616 429.541,2025.8891 426.3567,2020.0975 C424.3118,2025.9733 419.3728,2025.5968 415.9059,2021.6032 C413.159,2027.4659 408.5312,2027.6173 404.6338,2022.8199 C401.5127,2028.9357 395.7631,2028.6713 392.6938,2022.7684 C390.2705,2028.3342 387.0416,2027.713 383.1433,2024.3454 C379.9892,2029.4785 375.4285,2030.1144 371.9169,2024.7269 C369.5421,2030.1086 363.8819,2030.5826 360.5329,2025.8201 C356.9516,2031.8437 352.4083,2031.517 348.721,2025.9279 C345.1463,2030.5067 339.9535,2031.1955 337.2566,2024.9944 C333.6068,2029.4779 329.3018,2027.9668 327.5553,2023.0336 C323.1032,2027.0643 319.3724,2026.7285 316.2181,2021.4526 C312.0818,2027.5616 308.1678,2026.2576 304.2884,2021.1786 C302.061,2025.6045 297.4323,2025.471 294.7788,2021.6712 C291.0047,2027.3466 285.4249,2026.7329 282.9262,2020.4111 C273.1893,2019.1253 269.6189,2011.9575 274.1911,2003.3469 C269.2285,1994.4309 271.7567,1987.046 283.1291,1987.1366" fill="#FEF3C7" style="stroke:#181818;stroke-width:0.5;"/><text fill="#000000" font-family="Monospace" font-size="14" lengthAdjust="spacing" textLength="140.2795" x="288.88" y="2007.5519">actions/setup-python</text></g><!--entity tool_apt_get--><g class="entity" data-qualified-name="tool_apt_get" data-source-line="15" id="ent0010"><path d="M329.9803,391.0538 C333.4983,384.729 340.4557,384.5333 344.6359,390.2477 C348.3291,382.9274 354.3103,382.1532 359.7876,388.2299 C365.219,381.3251 373.147,381.5694 375.9912,390.8242 C379.6093,384.281 386.8087,382.793 391.3322,389.799 C402.1069,390.8975 406.1252,396.4554 400.121,406.4241 C405.0488,416.0631 400.9456,423.6522 389.8182,423.7369 C387.6307,431.4617 381.3999,432.858 375.8592,427.2467 C373.603,435.5057 368.2874,437.355 361.0366,433.2199 C353.3616,439.0791 347.0058,438.275 343.8936,428.2847 C336.9179,434.879 330.2548,431.4469 328.5016,422.956 C321.5724,418.0279 319.975,413.4197 327.8713,407.8721 C321.1773,401.804 322.1543,395.3012 329.9803,391.0538" fill="#FEF3C7" style="stroke:#181818;stroke-width:0.5;"/><text fill="#000000" font-family="Monospace" font-size="14" lengthAdjust="spacing" textLength="47.5858" x="335.22" y="411.5519">apt-get</text></g><!--entity tool_cat--><g class="entity" data-qualified-name="tool_cat" data-source-line="16" id="ent0011"><path d="M343.1182,474.6 C347.0019,464.4901 353.8692,464.8949 360.6321,471.6013 C368.1159,464.909 372.4746,467.7685 376.0838,475.6963 C384.6992,478.8491 385.1873,484.3413 379.8819,490.9583 C385.8294,497.1154 385.4512,505.0125 376.0011,507.5732 C373.6783,517.3889 366.3967,518.3882 359.0382,513.3076 C351.2232,519.3994 345.9719,516.6744 343.5627,507.7402 C332.8025,506.4906 331.3903,501.0446 336.0137,492.2823 C330.304,484.2116 331.8507,475.8495 343.1182,474.6" fill="#FEF3C7" style="stroke:#181818;stroke-width:0.5;"/><text fill="#000000" font-family="Monospace" font-size="14" lengthAdjust="spacing" textLength="19.6279" x="349.2" y="495.5519">cat</text></g><!--entity tool_client_private_key--><g class="entity" data-qualified-name="tool_client_private_key" data-source-line="17" id="ent0012"><path d="M297.3251,559.2063 C301.2036,554.2656 304.7315,553.073 308.9048,558.8888 C312.5978,552.6146 317.0812,552.075 321.1179,558.5597 C324.9761,552.137 330.5222,551.5182 335.3683,557.4171 C339.2586,550.9848 344.1821,551.8313 347.7693,557.722 C351.0975,550.8135 354.7316,550.232 359.6926,556.2115 C364.1697,549.8678 370.3893,552.4569 372.9244,558.317 C376.9847,552.5615 380.8939,552.5679 385.2929,557.9406 C389.3365,552.7859 394.5394,552.3799 397.5835,558.9852 C401.8406,551.4885 406.1027,552.2406 411.0113,558.3418 C414.2664,553.1695 420.1312,552.0142 423.2517,558.4833 C433.9174,560.7045 436.9256,566.2445 431.3133,575.9699 C435.8799,584.1164 434.3447,590.9043 424.1322,592.7115 C420.0292,600.7105 415.3054,600.5657 409.8896,593.9947 C406.958,600.3152 401.6193,599.0295 398.3907,594.3038 C394.6112,601.3618 390.6483,602.1385 385.371,595.7546 C381.7055,602.1421 377.0007,601.9984 372.3459,596.8739 C369.6939,603.6898 364.3134,604.3751 359.9784,598.516 C355.3712,603.4347 351.3745,603.0009 348.0359,597.1139 C343.2452,602.3274 338.7383,602.5902 334.5198,596.4338 C329.8565,601.6075 324.5892,601.4452 321.3976,594.7998 C316.4561,599.0707 312.5732,599.6995 309.3807,592.9011 C305.2961,599.1389 299.9432,599.7839 296.2357,592.5335 C284.5436,591.1978 281.573,584.5889 287.7586,574.7373 C282.9901,564.5251 286.9108,560.0664 297.3251,559.2063" fill="#FEF3C7" style="stroke:#181818;stroke-width:0.5;"/><text fill="#000000" font-family="Monospace" font-size="14" lengthAdjust="spacing" textLength="112.9935" x="302.52" y="579.5519">client-private-key</text></g><!--entity tool_dnf--><g class="entity" data-qualified-name="tool_dnf" data-source-line="18" id="ent0013"><path d="M341.5252,643.5454 C346.9875,633.3428 353.034,631.1343 361.1161,640.9861 C366.0028,631.9758 374.0011,632.4238 378.2411,641.5953 C389.4145,644.3473 390.8884,650.3422 383.8407,658.9675 C390.2999,665.5217 387.3177,673.1483 378.9501,675.2488 C375.6758,685.1695 366.8803,686.2943 360.18,678.9798 C353.9118,688.3751 345.1776,686.4546 341.1208,676.7707 C330.2234,674.7869 326.381,669.6069 333.1586,659.4827 C327.3662,649.4375 329.9518,644.4741 341.5252,643.5454" fill="#FEF3C7" style="stroke:#181818;stroke-width:0.5;"/><text fill="#000000" font-family="Monospace" font-size="14" lengthAdjust="spacing" textLength="22.0779" x="347.98" y="663.5519">dnf</text></g><!--entity tool_firewall_cmd--><g class="entity" data-qualified-name="tool_firewall_cmd" data-source-line="19" id="ent0014"><path d="M313.4102,727.2934 C316.9502,721.4682 321.4769,721.1675 325.3994,726.8965 C327.995,720.7456 332.7589,720.8028 336.4249,725.8418 C339.716,720.5957 345.281,721.0934 347.9418,726.5217 C350.3446,719.1965 356.5952,718.969 360.7906,724.7665 C364.7352,719.083 370.1266,720.1722 372.3493,726.4329 C376.695,720.2351 380.3387,721.9 384.1952,726.9482 C386.6353,720.6628 391.3016,721.4378 395.0979,725.5224 C398.9621,720.294 404.5748,721.9623 406.7185,727.3973 C416.7365,729.3722 420.4461,733.8061 414.765,743.5847 C421.6883,752.804 417.8031,757.7581 408.2444,760.6968 C404.1756,766.4011 398.5494,766.1864 395.1951,759.9182 C392.1569,765.7308 387.5068,767.0542 383.1335,761.3118 C380.1272,766.4502 376.2996,766.6831 372.6002,762.0597 C368.4303,767.5514 364.3966,768.042 359.8927,762.4424 C356.0871,766.986 352.7343,767.2963 348.9115,762.4624 C345.0021,769.2007 340.2805,768.5117 336.4035,762.4308 C331.2852,768.3354 327.3447,767.2967 323.4416,761.1263 C319.4215,765.907 315.4165,765.2588 312.5777,759.865 C302.3929,756.4466 302.0335,749.5689 308.7362,742.4297 C303.6175,735.5859 304.9913,729.9569 313.4102,727.2934" fill="#FEF3C7" style="stroke:#181818;stroke-width:0.5;"/><text fill="#000000" font-family="Monospace" font-size="14" lengthAdjust="spacing" textLength="81.1157" x="318.46" y="747.5519">firewall-cmd</text></g><!--entity tool_grep--><g class="entity" data-qualified-name="tool_grep" data-source-line="20" id="ent0015"><path d="M337.8992,810.5826 C340.576,806.1742 345.0981,805.0333 348.2597,810.0496 C351.4903,803.0741 355.4401,802.1595 361.0039,807.6678 C364.1421,802.9036 369.3902,804.0727 371.6612,808.6566 C376.0409,804.6923 379.9013,805.3747 382.2398,810.9259 C392.1574,813.6968 392.0525,820.0732 386.5552,826.9861 C393.3746,834.8649 390.5341,840.0644 381.9945,843.7697 C379.8351,849.9212 376.278,851.7402 370.7164,847.4414 C368.9357,852.3233 364.1378,854.3708 360.1785,849.8947 C354.2788,853.4637 350.2893,852.7509 347.9092,845.7926 C343.976,850.3564 338.8325,848.5449 337.2688,843.2383 C327.554,841.1167 324.9677,833.3785 332.318,826.2761 C326.5733,819.349 329.0303,812.3126 337.8992,810.5826" fill="#FEF3C7" style="stroke:#181818;stroke-width:0.5;"/><text fill="#000000" font-family="Monospace" font-size="14" lengthAdjust="spacing" textLength="30.8979" x="343.57" y="831.5519">grep</text></g><!--entity tool_icanhazip_com--><g class="entity" data-qualified-name="tool_icanhazip_com" data-source-line="21" id="ent0016"><path d="M306.3933,895.655 C309.671,889.9884 314.5568,889.2787 318.6028,894.8179 C322.0327,886.6979 329.2863,887.6968 333.6333,893.8523 C337.9343,887.9015 341.7048,887.072 345.9901,893.8676 C350.205,885.4314 354.8452,884.8408 360.9658,892.0427 C364.5582,886.257 370.6628,885.8606 373.6447,892.658 C378.3153,887.3467 382.8584,885.6395 387.062,893.147 C392.3869,885.8133 397.5511,887.224 401.5042,894.5029 C405.9833,888.8486 411.1047,889.7131 414.6129,895.6051 C424.2795,898.0318 424.9594,904.364 419.5767,911.4926 C425.2552,919.0564 425.0517,924.6515 414.755,927.3613 C411.03,933.4454 404.7529,935.3248 400.6233,927.7808 C397.6865,934.4811 391.9232,934.4392 388.0298,928.7534 C384.4699,936.1418 378.3394,936.4494 373.5405,930.056 C370.6649,936.7488 365.0101,937.2024 360.3675,932.0154 C356.2446,938.3554 350.5723,937.9179 346.5347,931.9199 C342.059,938.5625 335.7974,937.3949 332.7379,930.4788 C328.1685,934.9419 324.0465,935.6166 320.6495,929.1787 C315.5012,934.9395 310.5665,935.21 306.6005,927.9073 C298.0824,924.5379 296.2674,919.3079 302.1126,911.9093 C296.521,905.3447 297.7176,898.4623 306.3933,895.655" fill="#FEF3C7" style="stroke:#181818;stroke-width:0.5;"/><text fill="#000000" font-family="Monospace" font-size="14" lengthAdjust="spacing" textLength="94.1776" x="311.93" y="915.5519">icanhazip.com</text></g><!--entity tool_install--><g class="entity" data-qualified-name="tool_install" data-source-line="22" id="ent0017"><path d="M333.4363,977.8166 C337.5849,972.6082 342.5256,971.405 346.1868,978.3288 C350.4722,969.8537 355.6242,971.1889 361.1426,977.0418 C364.6518,972.403 369.4871,971.8352 372.4598,977.624 C377.8896,970.6536 382.4247,970.8438 387.1371,978.3512 C397.2988,978.2421 401.7449,986.3147 395.7752,994.719 C400.3927,1003.5994 396.0756,1009.6713 386.7878,1010.7618 C384.2324,1018.7509 378.4818,1019.6491 373.1801,1013.3835 C369.3611,1021.4015 364.4625,1021.4121 359.0379,1014.9519 C354.6333,1020.8093 350.1269,1020.1928 347.0159,1013.6933 C343.0878,1018.6324 336.7563,1017.8961 334.0319,1012.2208 C323.0609,1010.0718 322.2295,1004.3343 326.9176,995.5163 C319.5976,986.0054 321.7158,980.3149 333.4363,977.8166" fill="#FEF3C7" style="stroke:#181818;stroke-width:0.5;"/><text fill="#000000" font-family="Monospace" font-size="14" lengthAdjust="spacing" textLength="39.1019" x="339.46" y="999.5519">install</text></g><!--entity tool_pip--><g class="entity" data-qualified-name="tool_pip" data-source-line="23" id="ent0018"><path d="M342.8912,2069.6547 C347.2355,2062.0268 354.7007,2060.5641 360.1551,2068.4166 C367.5631,2060.3027 373.6718,2062.2502 377.9605,2071.5974 C387.3319,2072.8495 391.3919,2077.7421 386.557,2086.9492 C392.6478,2096.6759 386.9744,2103.1001 377.0861,2103.8976 C374.1761,2113.8732 368.4852,2116.2406 360.1033,2109.4354 C351.7873,2116.5477 343.9726,2112.6446 341.9846,2102.7097 C334.172,2098.4311 331.74,2093.8088 339.2487,2086.8819 C332.1808,2079.6639 333.0657,2073.3008 342.8912,2069.6547" fill="#FEF3C7" style="stroke:#181818;stroke-width:0.5;"/><text fill="#000000" font-family="Monospace" font-size="14" lengthAdjust="spacing" textLength="20.8319" x="348.6" y="2091.5519">pip</text></g><!--entity tool_pre_commit--><g class="entity" data-qualified-name="tool_pre_commit" data-source-line="24" id="ent0019"><path d="M315.1772,2154.0388 C317.9631,2148.9424 322.539,2149.3041 325.2829,2154.0818 C329.3771,2147.8345 334.7435,2149.264 338.2136,2154.7686 C341.547,2149.2588 344.8173,2148.8309 348.5743,2154.3715 C351.4795,2147.444 356.0497,2147.408 360.7978,2152.4969 C364.6256,2147.2347 369.0372,2149.3399 371.3308,2154.1079 C374.4778,2148.9573 378.5237,2148.7425 382.059,2153.6955 C385.9136,2147.8307 390.836,2148.956 393.9161,2154.5003 C396.9973,2148.7724 401.6581,2150.0767 404.6463,2154.5977 C412.8748,2158.409 413.5561,2165.4227 406.3936,2170.8852 C414.414,2175.8487 413.895,2181.5303 406.5624,2186.6581 C403.366,2192.0806 399.0613,2192.8231 395.1197,2187.4478 C392.4479,2194.1361 387.3686,2194.3925 382.841,2189.3982 C378.8597,2194.8045 375.528,2194.0656 371.7946,2189.1332 C369.375,2194.8441 364.0888,2194.9858 361.0736,2189.7147 C357.6517,2194.4701 352.5344,2194.8892 349.4058,2189.3812 C345.3678,2193.1785 340.6395,2193.4632 338.4936,2187.307 C335.4816,2194.349 329.3241,2193.5834 325.2727,2188.4343 C321.7168,2192.931 316.0687,2192.5679 313.7047,2187.0567 C304.8979,2185.9077 301.9425,2177.6623 306.8187,2170.7391 C302.1021,2161.3362 303.5216,2155.2474 315.1772,2154.0388" fill="#FEF3C7" style="stroke:#181818;stroke-width:0.5;"/><text fill="#000000" font-family="Monospace" font-size="14" lengthAdjust="spacing" textLength="76.8317" x="320.6" y="2175.5519">pre-commit</text></g><!--entity tool_print--><g class="entity" data-qualified-name="tool_print" data-source-line="25" id="ent0020"><path d="M337.1542,1062.2559 C340.1097,1056.717 344.3519,1056.1882 347.8578,1061.7239 C350.1604,1056.3402 355.2058,1054.0771 359.6017,1059.4354 C364.0618,1055.0762 368.691,1055.1099 371.3655,1061.4067 C375.577,1055.747 381.3435,1057.3056 383.9862,1063.1307 C393.2746,1067.8087 393.5673,1073.0288 386.1959,1079.9018 C392.5649,1085.7468 389.8835,1092.7814 382.4631,1095.2791 C380.819,1100.2921 376.8414,1102.5485 372.363,1098.4059 C369.032,1105.3468 364.2613,1106.028 359.7725,1099.4871 C355.3806,1103.5124 351.7323,1104.1021 349.0001,1097.7622 C344.7835,1102.929 341.0128,1102.4695 338.2524,1096.3727 C328.7951,1094.2005 326.4053,1086.365 331.8541,1078.7735 C325.111,1071.7242 328.5412,1064.3779 337.1542,1062.2559" fill="#FEF3C7" style="stroke:#181818;stroke-width:0.5;"/><text fill="#000000" font-family="Monospace" font-size="14" lengthAdjust="spacing" textLength="31.7099" x="343.16" y="1083.5519">print</text></g><!--entity tool_qrencode--><g class="entity" data-qualified-name="tool_qrencode" data-source-line="26" id="ent0021"><path d="M321.2273,1147.106 C325.3926,1141.5998 329.2927,1140.4713 333.5507,1147.0111 C337.9762,1141.56 341.9601,1139.8875 346.732,1146.6368 C349.5166,1140.0859 356.2286,1138.9331 360.4776,1145.0475 C363.9207,1138.7659 368.1031,1139.6445 371.8308,1144.764 C375.8391,1138.7622 382.811,1138.564 385.6759,1145.9468 C390.0961,1139.2003 394.8439,1139.8568 399.4368,1145.7589 C409.5046,1146.6092 413.4451,1154.4434 408.8722,1163.2098 C415.1752,1173.5626 409.2981,1181.3357 397.968,1180.6872 C394.9875,1186.3753 389.0815,1186.8561 385.5489,1181.2967 C383.2916,1189.3991 379.0522,1190.3998 372.8231,1185.0556 C370.6261,1191.2369 364.8558,1192.4213 360.7153,1187.1018 C355.8094,1192.5244 350.0747,1193.2196 346.7883,1185.3987 C341.8278,1189.291 336.826,1188.9819 334.6938,1182.1954 C329.3131,1189.0432 324.7914,1186.7272 320.8688,1180.6372 C310.4231,1178.6847 307.9531,1171.3743 312.6922,1162.5553 C308.0131,1153.908 311.2553,1147.659 321.2273,1147.106" fill="#FEF3C7" style="stroke:#181818;stroke-width:0.5;"/><text fill="#000000" font-family="Monospace" font-size="14" lengthAdjust="spacing" textLength="62.6358" x="327.7" y="1167.5519">qrencode</text></g><!--entity tool_rm--><g class="entity" data-qualified-name="tool_rm" data-source-line="27" id="ent0022"><path d="M344.7692,1231.4757 C348.0326,1222.8172 354.1768,1221.815 360.9015,1227.6131 C367.3068,1220.085 374.1947,1222.9555 377.0716,1231.2248 C386.6175,1234.012 386.1032,1240.4751 380.6265,1246.7108 C387.8419,1253.2322 385.7141,1259.7566 377.6112,1263.5321 C377.2066,1276.4253 368.7444,1278.2675 359.145,1272.7593 C351.6468,1276.8399 343.9456,1274.253 343.9336,1264.5173 C334.4182,1262.1836 331.4274,1255.4551 338.7403,1247.8713 C332.041,1240.3213 336.4891,1233.5176 344.7692,1231.4757" fill="#FEF3C7" style="stroke:#181818;stroke-width:0.5;"/><text fill="#000000" font-family="Monospace" font-size="14" lengthAdjust="spacing" textLength="18.8719" x="349.58" y="1251.5519">rm</text></g><!--entity tool_server_public_key--><g class="entity" data-qualified-name="tool_server_public_key" data-source-line="28" id="ent0023"><path d="M297.5651,1315.2063 C301.4271,1310.2855 304.9403,1309.0974 309.0972,1314.8888 C312.7751,1308.6387 317.241,1308.1006 321.2627,1314.5597 C325.1064,1308.1573 330.6339,1307.5391 335.4655,1313.4171 C339.3415,1307.0098 344.246,1307.8535 347.8189,1313.722 C351.1306,1306.839 354.7501,1306.258 359.6946,1312.2115 C364.1596,1305.8926 370.3558,1308.476 372.8788,1314.317 C376.9228,1308.5831 380.817,1308.589 385.1997,1313.9406 C389.2294,1308.8071 394.4125,1308.4043 397.4427,1314.9852 C401.6834,1307.5143 405.9306,1308.2631 410.8229,1314.3418 C414.0656,1309.1898 419.9077,1308.0392 423.0157,1314.4833 C433.6814,1316.7045 436.6896,1322.2445 431.0773,1331.9699 C435.6439,1340.1164 434.1087,1346.9043 423.8962,1348.7115 C419.8092,1356.6852 415.101,1356.5423 409.7012,1349.9947 C406.7824,1356.2894 401.4657,1355.0096 398.2499,1350.3038 C394.4869,1357.3379 390.5386,1358.1133 385.2778,1351.7546 C381.6276,1358.12 376.9398,1357.9784 372.3003,1352.8739 C369.6618,1359.6654 364.3019,1360.3508 359.9804,1354.516 C355.389,1359.4132 351.4083,1358.9793 348.0855,1353.1139 C343.3107,1358.3083 338.8196,1358.5693 334.617,1352.4338 C329.968,1357.5869 324.7196,1357.4229 321.5424,1350.7998 C316.6174,1355.0512 312.7491,1355.6752 309.5731,1348.9011 C305.5027,1355.1159 300.169,1355.758 296.4757,1348.5335 C284.7836,1347.1978 281.813,1340.5889 287.9986,1330.7373 C283.2301,1320.5251 287.1508,1316.0664 297.5651,1315.2063" fill="#FEF3C7" style="stroke:#181818;stroke-width:0.5;"/><text fill="#000000" font-family="Monospace" font-size="14" lengthAdjust="spacing" textLength="112.5175" x="302.76" y="1335.5519">server-public-key</text></g><!--entity tool_sysctl--><g class="entity" data-qualified-name="tool_sysctl" data-source-line="29" id="ent0024"><path d="M335.7343,1399.3979 C338.3071,1393.2338 342.1248,1393.1075 346.7017,1397.2694 C350.7285,1390.3474 354.7544,1391.3773 359.6291,1396.3477 C363.662,1391.5352 368.5865,1391.7765 372.0726,1397.0239 C376.3681,1391.7905 381.616,1392.8362 384.4876,1398.6274 C394.1461,1398.4634 400.1861,1405.3577 395.2503,1414.8664 C401.9026,1424.9369 396.7584,1433.5807 384.7206,1432.4742 C380.3506,1437.5714 376.4679,1439.2461 372.119,1432.4519 C368.388,1437.7399 364.4293,1439.1162 360.2475,1432.9179 C356.6886,1438.1596 350.3309,1438.2911 347.2166,1432.3976 C342.9737,1438.8175 337.6906,1437.9729 334.067,1431.7533 C324.1279,1429.3524 322.0291,1422.0874 328.1107,1414.2383 C322.8052,1405.7822 326.8382,1400.5586 335.7343,1399.3979" fill="#FEF3C7" style="stroke:#181818;stroke-width:0.5;"/><text fill="#000000" font-family="Monospace" font-size="14" lengthAdjust="spacing" textLength="35.9379" x="341.05" y="1419.5519">sysctl</text></g><!--entity tool_systemctl--><g class="entity" data-qualified-name="tool_systemctl" data-source-line="30" id="ent0025"><path d="M321.1843,1481.8514 C324.6248,1475.9326 331.1493,1475.2508 334.25,1482.1964 C337.9916,1475.4857 343.0285,1475.4089 347.5623,1481.3635 C351.5941,1475.1164 356.1324,1475.609 360.5776,1480.8971 C364.1215,1474.8629 367.7875,1475.4457 371.7313,1480.4946 C376.6921,1473.8353 381.1637,1474.7962 384.9766,1481.6221 C388.564,1476.2617 394.8025,1475.3541 397.8565,1482.1856 C406.5528,1484.9182 409.5491,1493.1257 403.0698,1500.2403 C408.4052,1506.0449 406.622,1512.8269 399.0404,1515.1379 C396.471,1523.6765 390.9383,1524.3477 384.631,1519.023 C381.9689,1524.6231 377.8298,1525.3708 373.1765,1521.4082 C370.3141,1528.0311 364.9962,1530.0237 360.0494,1523.4876 C354.608,1529.0577 350.1752,1527.7294 347.6795,1520.6149 C343.2827,1525.9085 337.5629,1526.2834 334.6461,1519.0724 C329.7275,1523.1416 325.308,1523.8712 322.7484,1516.598 C311.9843,1513.4798 311.8423,1507.6123 317.7176,1499.5762 C310.9374,1492.318 311.2247,1485.8356 321.1843,1481.8514" fill="#FEF3C7" style="stroke:#181818;stroke-width:0.5;"/><text fill="#000000" font-family="Monospace" font-size="14" lengthAdjust="spacing" textLength="61.9778" x="328.03" y="1503.5519">systemctl</text></g><!--entity tool_value--><g class="entity" data-qualified-name="tool_value" data-source-line="31" id="ent0026"><path d="M336.1343,1567.3979 C338.6399,1561.3349 342.3891,1561.1976 346.8987,1565.2694 C350.8548,1558.4511 354.8191,1559.4604 359.6231,1564.3477 C363.5946,1559.6171 368.4388,1559.8588 371.8636,1565.0239 C376.1009,1559.8836 381.2622,1560.9234 384.0756,1566.6274 C393.7341,1566.4634 399.7741,1573.3577 394.8383,1582.8664 C401.4906,1592.9369 396.3463,1601.5807 384.3086,1600.4742 C380.0088,1605.4891 376.1887,1607.1367 371.91,1600.4519 C368.2462,1605.6521 364.3561,1607.0076 360.2415,1600.9179 C356.7347,1606.0759 350.4758,1606.2014 347.4136,1600.3976 C343.2312,1606.7154 338.0301,1605.8798 334.467,1599.7533 C324.5279,1597.3524 322.4291,1590.0874 328.5107,1582.2383 C323.2052,1573.7822 327.2382,1568.5586 336.1343,1567.3979" fill="#FEF3C7" style="stroke:#181818;stroke-width:0.5;"/><text fill="#000000" font-family="Monospace" font-size="14" lengthAdjust="spacing" textLength="35.1259" x="341.45" y="1587.5519">value</text></g><!--entity tool_wg--><g class="entity" data-qualified-name="tool_wg" data-source-line="32" id="ent0027"><path d="M343.1282,1650.6 C347.0097,1640.4937 353.8744,1640.898 360.6351,1647.6013 C368.1165,1640.9126 372.473,1643.7715 376.0798,1651.6963 C384.6952,1654.8491 385.1833,1660.3413 379.8778,1666.9583 C385.8254,1673.1154 385.4472,1681.0125 375.9971,1683.5732 C373.6764,1693.3856 366.3976,1694.3854 359.0412,1689.3076 C351.2285,1695.3958 345.9797,1692.6711 343.5727,1683.7402 C332.8125,1682.4906 331.4003,1677.0446 336.0237,1668.2823 C330.314,1660.2116 331.8607,1651.8495 343.1282,1650.6" fill="#FEF3C7" style="stroke:#181818;stroke-width:0.5;"/><text fill="#000000" font-family="Monospace" font-size="14" lengthAdjust="spacing" textLength="19.6139" x="349.21" y="1671.5519">wg</text></g><!--entity tool_wireguard_public_vpn--><g class="entity" data-qualified-name="tool_wireguard_public_vpn" data-source-line="33" id="ent0028"><path d="M281.6401,1735.7727 C285.6405,1729.5698 290.2722,1729.3794 294.4928,1735.5438 C296.5678,1729.0459 301.7036,1729.4288 305.6626,1733.5648 C308.9573,1729.1261 312.4607,1728.5349 316.2025,1733.0379 C320.1037,1729.0605 324.1824,1728.4467 327.0205,1734.2176 C330.6572,1728.8796 334.9045,1728.2546 338.5698,1734.1883 C340.6501,1728.9113 345.7234,1727.8088 349.3286,1732.5509 C352.8397,1728.1988 357.216,1726.9339 360.2238,1733.0736 C363.0931,1728.1234 367.7996,1727.6781 371.1924,1732.485 C374.7183,1726.4328 379.2162,1726.8126 382.5445,1732.6733 C386.2048,1727.9217 391.768,1729.3521 393.8698,1734.463 C396.6697,1729.0052 400.4772,1730.0442 403.648,1734.0809 C407.565,1729.0399 411.4827,1729.5043 415.2958,1734.2051 C418.9655,1727.6629 422.8733,1727.924 427.3512,1733.3938 C430.6419,1728.459 433.8583,1729.493 436.65,1733.891 C445.2472,1738.4752 446.5876,1744.5468 440.1938,1752.0556 C446.5556,1757.687 445.6554,1763.2429 438.0224,1766.8154 C435.262,1771.8025 430.724,1771.6272 427.3425,1767.5469 C423.8072,1773.3239 420.3297,1773.2625 415.9955,1768.3989 C413.1432,1774.6996 409.5206,1774.7851 404.6108,1770.6416 C401.4189,1775.8179 396.0705,1775.6259 393.7721,1769.7641 C391.4057,1775.943 385.6054,1775.2292 382.3567,1770.7051 C380.1867,1776.5274 376.1772,1777.0956 372.2256,1772.4251 C368.8487,1778.2158 363.8899,1778.662 359.4662,1773.663 C355.5836,1777.7354 351.4018,1778.0151 348.5733,1772.4693 C344.7829,1776.4728 341.4643,1776.5697 338.7153,1771.3556 C334.6227,1777.7157 330.504,1776.4078 326.435,1771.3302 C322.9747,1774.9512 318.2339,1773.7677 316.5578,1769.1826 C313.1189,1776.0551 308.5455,1776.4166 304.1028,1770.133 C300.4563,1775.1155 295.6389,1774.3811 292.8077,1769.2247 C288.9806,1773.484 284.7645,1773.2621 281.887,1768.1214 C273.353,1764.9073 271.0499,1757.855 277.7984,1750.9929 C270.9428,1745.0549 272.2911,1737.6206 281.6401,1735.7727" fill="#FEF3C7" style="stroke:#181818;stroke-width:0.5;"/><text fill="#000000" font-family="Monospace" font-size="14" lengthAdjust="spacing" textLength="141.0074" x="288.51" y="1755.5519">wireguard-public-vpn</text></g><!--entity tool_yum--><g class="entity" data-qualified-name="tool_yum" data-source-line="34" id="ent0029"><path d="M339.6452,1818.8919 C343.9186,1807.0246 353.9291,1807.4426 360.7182,1816.3386 C367.6223,1808.3104 376.4169,1808.9474 381.1624,1818.8058 C390.6979,1822.765 389.896,1828.0786 384.146,1834.8758 C391.1167,1842.0856 390.0747,1848.4844 380.5538,1852.2928 C378.6328,1858.0527 375.285,1858.931 370.5239,1855.3388 C369.4431,1860.785 364.819,1862.2487 360.8842,1858.2522 C355.6241,1863.1309 351.4661,1861.8266 348.9025,1855.3955 C344.6085,1858.1296 341.2695,1857.1318 339.6656,1852.1678 C331.1664,1849.346 328.5393,1840.6182 335.5905,1834.2582 C329.1606,1826.9187 330.0332,1821.9984 339.6452,1818.8919" fill="#FEF3C7" style="stroke:#181818;stroke-width:0.5;"/><text fill="#000000" font-family="Monospace" font-size="14" lengthAdjust="spacing" textLength="28.8819" x="344.57" y="1839.5519">yum</text></g><g class="entity" data-qualified-name="toolingGraphSummary" data-source-line="62" id="ent0056"><path d="M6,842.4159 L6,887.828 L213.5112,887.828 L213.5112,852.4159 L203.5112,842.4159 L6,842.4159" fill="#FEFFDD" style="stroke:#181818;stroke-width:0.5;"/><path d="M203.5112,842.4159 L203.5112,852.4159 L213.5112,852.4159 L203.5112,842.4159" fill="#FEFFDD" style="stroke:#181818;stroke-width:1;"/><text fill="#000000" font-family="Monospace" font-size="13" lengthAdjust="spacing" textLength="186.5112" x="12" y="861.3129">Scanned&#160;2&#160;tooling&#160;entrypoints.</text><text fill="#000000" font-family="Monospace" font-size="13" lengthAdjust="spacing" textLength="179.2182" x="12" y="879.019">Detected&#160;26&#160;third-party&#160;tools.</text></g><!--link source_github_workflows_ci_yml to tool_actions_checkout--><g class="link" data-entity-1="ent0002" data-entity-2="ent0008" data-link-type="dependency" data-source-line="35" id="lnk30"><path d="M170.52,2014.5759 C170.52,1977.3359 170.52,1918.1259 170.52,1918.1259 C170.52,1918.1259 228.37,1918.1259 281.75,1918.1259" fill="none" id="source_github_workflows_ci_yml-to-tool_actions_checkout" style="stroke:#181818;stroke-width:1;"/><polygon fill="#181818" points="287.75,1918.1259,278.75,1914.1259,282.75,1918.1259,278.75,1922.1259,287.75,1918.1259" style="stroke:#181818;stroke-width:1;"/></g><!--link source_github_workflows_ci_yml to tool_actions_setup_python--><g class="link" data-entity-1="ent0002" data-entity-2="ent0009" data-link-type="dependency" data-source-line="36" id="lnk31"><path d="M201.51,2020.8559 C225.11,2020.8559 244.4,2020.8559 267.66,2020.8559" fill="none" id="source_github_workflows_ci_yml-to-tool_actions_setup_python" style="stroke:#181818;stroke-width:1;"/><polygon fill="#181818" points="273.66,2020.8559,264.66,2016.8559,268.66,2020.8559,264.66,2024.8559,273.66,2020.8559" style="stroke:#181818;stroke-width:1;"/></g><!--link source_github_workflows_ci_yml to tool_pip--><g class="link" data-entity-1="ent0002" data-entity-2="ent0018" data-link-type="dependency" data-source-line="37" id="lnk32"><path d="M201.51,2065.4559 C248.57,2065.4559 296.36,2065.4559 327.34,2065.4559" fill="none" id="source_github_workflows_ci_yml-to-tool_pip" style="stroke:#181818;stroke-width:1;"/><polygon fill="#181818" points="333.34,2065.4559,324.34,2061.4559,328.34,2065.4559,324.34,2069.4559,333.34,2065.4559" style="stroke:#181818;stroke-width:1;"/></g><!--link source_github_workflows_ci_yml to tool_pre_commit--><g class="link" data-entity-1="ent0002" data-entity-2="ent0019" data-link-type="dependency" data-source-line="38" id="lnk33"><path d="M201.46,2069.3259 C257.9,2069.3259 319.52,2069.3259 319.52,2069.3259 C319.52,2069.3259 319.52,2109.3559 319.52,2139.2059" fill="none" id="source_github_workflows_ci_yml-to-tool_pre_commit" style="stroke:#181818;stroke-width:1;"/><polygon fill="#181818" points="319.52,2145.2059,323.52,2136.2059,319.52,2140.2059,315.52,2136.2059,319.52,2145.2059" style="stroke:#181818;stroke-width:1;"/></g><!--link source_scripts_setup_wireguard_sh to tool_endpoint--><g class="link" data-entity-1="ent0003" data-entity-2="ent0004" data-link-type="dependency" data-source-line="39" id="lnk34"><path d="M209.39,939.6459 C215.66,939.6459 219.52,939.6459 219.52,939.6459 C219.52,939.6459 219.52,70.1259 219.52,70.1259 C219.52,70.1259 267.33,70.1259 308.11,70.1259" fill="none" id="source_scripts_setup_wireguard_sh-to-tool_endpoint" style="stroke:#181818;stroke-width:1;"/><polygon fill="#181818" points="314.11,70.1259,305.11,66.1259,309.11,70.1259,305.11,74.1259,314.11,70.1259" style="stroke:#181818;stroke-width:1;"/></g><!--link source_scripts_setup_wireguard_sh to tool_nn--><g class="link" data-entity-1="ent0003" data-entity-2="ent0005" data-link-type="dependency" data-source-line="40" id="lnk35"><path d="M209.42,944.6359 C219.16,944.6359 225.52,944.6359 225.52,944.6359 C225.52,944.6359 225.52,154.1259 225.52,154.1259 C225.52,154.1259 284.06,154.1259 323.39,154.1259" fill="none" id="source_scripts_setup_wireguard_sh-to-tool_nn" style="stroke:#181818;stroke-width:1;"/><polygon fill="#181818" points="329.39,154.1259,320.39,150.1259,324.39,154.1259,320.39,158.1259,329.39,154.1259" style="stroke:#181818;stroke-width:1;"/></g><!--link source_scripts_setup_wireguard_sh to tool_nn_oo--><g class="link" data-entity-1="ent0003" data-entity-2="ent0006" data-link-type="dependency" data-source-line="41" id="lnk36"><path d="M209.47,949.6259 C222.54,949.6259 231.52,949.6259 231.52,949.6259 C231.52,949.6259 231.52,238.1259 231.52,238.1259 C231.52,238.1259 272.26,238.1259 309.14,238.1259" fill="none" id="source_scripts_setup_wireguard_sh-to-tool_nn_oo" style="stroke:#181818;stroke-width:1;"/><polygon fill="#181818" points="315.14,238.1259,306.14,234.1259,310.14,238.1259,306.14,242.1259,315.14,238.1259" style="stroke:#181818;stroke-width:1;"/></g><!--link source_scripts_setup_wireguard_sh to tool_yy--><g class="link" data-entity-1="ent0003" data-entity-2="ent0007" data-link-type="dependency" data-source-line="42" id="lnk37"><path d="M209.16,954.6159 C225.66,954.6159 237.52,954.6159 237.52,954.6159 C237.52,954.6159 237.52,322.1259 237.52,322.1259 C237.52,322.1259 289.6,322.1259 325.45,322.1259" fill="none" id="source_scripts_setup_wireguard_sh-to-tool_yy" style="stroke:#181818;stroke-width:1;"/><polygon fill="#181818" points="331.45,322.1259,322.45,318.1259,326.45,322.1259,322.45,326.1259,331.45,322.1259" style="stroke:#181818;stroke-width:1;"/></g><!--link source_scripts_setup_wireguard_sh to tool_apt_get--><g class="link" data-entity-1="ent0003" data-entity-2="ent0010" data-link-type="dependency" data-source-line="43" id="lnk38"><path d="M209.42,959.6059 C228.94,959.6059 243.52,959.6059 243.52,959.6059 C243.52,959.6059 243.52,406.1259 243.52,406.1259 C243.52,406.1259 280.41,406.1259 313.91,406.1259" fill="none" id="source_scripts_setup_wireguard_sh-to-tool_apt_get" style="stroke:#181818;stroke-width:1;"/><polygon fill="#181818" points="319.91,406.1259,310.91,402.1259,314.91,406.1259,310.91,410.1259,319.91,406.1259" style="stroke:#181818;stroke-width:1;"/></g><!--link source_scripts_setup_wireguard_sh to tool_cat--><g class="link" data-entity-1="ent0003" data-entity-2="ent0011" data-link-type="dependency" data-source-line="44" id="lnk39"><path d="M209.47,964.5959 C232.05,964.5959 249.52,964.5959 249.52,964.5959 C249.52,964.5959 249.52,490.1259 249.52,490.1259 C249.52,490.1259 295.57,490.1259 327.89,490.1259" fill="none" id="source_scripts_setup_wireguard_sh-to-tool_cat" style="stroke:#181818;stroke-width:1;"/><polygon fill="#181818" points="333.89,490.1259,324.89,486.1259,328.89,490.1259,324.89,494.1259,333.89,490.1259" style="stroke:#181818;stroke-width:1;"/></g><!--link source_scripts_setup_wireguard_sh to tool_client_private_key--><g class="link" data-entity-1="ent0003" data-entity-2="ent0012" data-link-type="dependency" data-source-line="45" id="lnk40"><path d="M209.44,930.7859 C252.63,930.7859 293.52,930.7859 293.52,930.7859 C293.52,930.7859 293.52,685.8059 293.52,604.9159" fill="none" id="source_scripts_setup_wireguard_sh-to-tool_client_private_key" style="stroke:#181818;stroke-width:1;"/><polygon fill="#181818" points="293.52,598.9159,289.52,607.9159,293.52,603.9159,297.52,607.9159,293.52,598.9159" style="stroke:#181818;stroke-width:1;"/></g><!--link source_scripts_setup_wireguard_sh to tool_dnf--><g class="link" data-entity-1="ent0003" data-entity-2="ent0013" data-link-type="dependency" data-source-line="46" id="lnk41"><path d="M209.4,924.9859 C235.02,924.9859 255.52,924.9859 255.52,924.9859 C255.52,924.9859 255.52,658.1259 255.52,658.1259 C255.52,658.1259 295.97,658.1259 326.63,658.1259" fill="none" id="source_scripts_setup_wireguard_sh-to-tool_dnf" style="stroke:#181818;stroke-width:1;"/><polygon fill="#181818" points="332.63,658.1259,323.63,654.1259,327.63,658.1259,323.63,662.1259,332.63,658.1259" style="stroke:#181818;stroke-width:1;"/></g><!--link source_scripts_setup_wireguard_sh to tool_firewall_cmd--><g class="link" data-entity-1="ent0003" data-entity-2="ent0014" data-link-type="dependency" data-source-line="47" id="lnk42"><path d="M209.29,926.9259 C237.9,926.9259 261.52,926.9259 261.52,926.9259 C261.52,926.9259 261.52,742.1259 261.52,742.1259 C261.52,742.1259 275.36,742.1259 297.15,742.1259" fill="none" id="source_scripts_setup_wireguard_sh-to-tool_firewall_cmd" style="stroke:#181818;stroke-width:1;"/><polygon fill="#181818" points="303.15,742.1259,294.15,738.1259,298.15,742.1259,294.15,746.1259,303.15,742.1259" style="stroke:#181818;stroke-width:1;"/></g><!--link source_scripts_setup_wireguard_sh to tool_grep--><g class="link" data-entity-1="ent0003" data-entity-2="ent0015" data-link-type="dependency" data-source-line="48" id="lnk43"><path d="M209.22,928.8559 C240.73,928.8559 267.52,928.8559 267.52,928.8559 C267.52,928.8559 267.52,846.5359 267.52,846.5359 C267.52,846.5359 295.71,846.5359 322.29,846.5359" fill="none" id="source_scripts_setup_wireguard_sh-to-tool_grep" style="stroke:#181818;stroke-width:1;"/><polygon fill="#181818" points="328.29,846.5359,319.29,842.5359,323.29,846.5359,319.29,850.5359,328.29,846.5359" style="stroke:#181818;stroke-width:1;"/></g><!--link source_scripts_setup_wireguard_sh to tool_icanhazip_com--><g class="link" data-entity-1="ent0003" data-entity-2="ent0016" data-link-type="dependency" data-source-line="49" id="lnk44"><path d="M209.34,932.7259 C238.77,932.7259 264.14,932.7259 290.52,932.7259" fill="none" id="source_scripts_setup_wireguard_sh-to-tool_icanhazip_com" style="stroke:#181818;stroke-width:1;"/><polygon fill="#181818" points="296.52,932.7259,287.52,928.7259,291.52,932.7259,287.52,936.7259,296.52,932.7259" style="stroke:#181818;stroke-width:1;"/></g><!--link source_scripts_setup_wireguard_sh to tool_install--><g class="link" data-entity-1="ent0003" data-entity-2="ent0017" data-link-type="dependency" data-source-line="50" id="lnk45"><path d="M209.34,971.9059 C250.02,971.9059 288.42,971.9059 318.21,971.9059" fill="none" id="source_scripts_setup_wireguard_sh-to-tool_install" style="stroke:#181818;stroke-width:1;"/><polygon fill="#181818" points="324.21,971.9059,315.21,967.9059,319.21,971.9059,315.21,975.9059,324.21,971.9059" style="stroke:#181818;stroke-width:1;"/></g><!--link source_scripts_setup_wireguard_sh to tool_print--><g class="link" data-entity-1="ent0003" data-entity-2="ent0020" data-link-type="dependency" data-source-line="51" id="lnk46"><path d="M206.52,981.6659 C206.52,1018.9059 206.52,1078.1259 206.52,1078.1259 C206.52,1078.1259 277.17,1078.1259 321.79,1078.1259" fill="none" id="source_scripts_setup_wireguard_sh-to-tool_print" style="stroke:#181818;stroke-width:1;"/><polygon fill="#181818" points="327.79,1078.1259,318.79,1074.1259,322.79,1078.1259,318.79,1082.1259,327.79,1078.1259" style="stroke:#181818;stroke-width:1;"/></g><!--link source_scripts_setup_wireguard_sh to tool_qrencode--><g class="link" data-entity-1="ent0003" data-entity-2="ent0021" data-link-type="dependency" data-source-line="52" id="lnk47"><path d="M209.25,974.2259 C263.01,974.2259 318.52,974.2259 318.52,974.2259 C318.52,974.2259 318.52,1080.0559 318.52,1131.1759" fill="none" id="source_scripts_setup_wireguard_sh-to-tool_qrencode" style="stroke:#181818;stroke-width:1;"/><polygon fill="#181818" points="318.52,1137.1759,322.52,1128.1759,318.52,1132.1759,314.52,1128.1759,318.52,1137.1759" style="stroke:#181818;stroke-width:1;"/></g><!--link source_scripts_setup_wireguard_sh to tool_rm--><g class="link" data-entity-1="ent0003" data-entity-2="ent0022" data-link-type="dependency" data-source-line="53" id="lnk48"><path d="M205.52,981.6559 C205.52,1056.2159 205.52,1246.1259 205.52,1246.1259 C205.52,1246.1259 284.96,1246.1259 328.35,1246.1259" fill="none" id="source_scripts_setup_wireguard_sh-to-tool_rm" style="stroke:#181818;stroke-width:1;"/><polygon fill="#181818" points="334.35,1246.1259,325.35,1242.1259,329.35,1246.1259,325.35,1250.1259,334.35,1246.1259" style="stroke:#181818;stroke-width:1;"/></g><!--link source_scripts_setup_wireguard_sh to tool_server_public_key--><g class="link" data-entity-1="ent0003" data-entity-2="ent0023" data-link-type="dependency" data-source-line="54" id="lnk49"><path d="M209.39,976.5459 C251.3,976.5459 290.52,976.5459 290.52,976.5459 C290.52,976.5459 290.52,1218.7759 290.52,1299.2559" fill="none" id="source_scripts_setup_wireguard_sh-to-tool_server_public_key" style="stroke:#181818;stroke-width:1;"/><polygon fill="#181818" points="290.52,1305.2559,294.52,1296.2559,290.52,1300.2559,286.52,1296.2559,290.52,1305.2559" style="stroke:#181818;stroke-width:1;"/></g><!--link source_scripts_setup_wireguard_sh to tool_sysctl--><g class="link" data-entity-1="ent0003" data-entity-2="ent0024" data-link-type="dependency" data-source-line="55" id="lnk50"><path d="M203.52,981.3759 C203.52,1082.9259 203.52,1414.1259 203.52,1414.1259 C203.52,1414.1259 273.97,1414.1259 319.66,1414.1259" fill="none" id="source_scripts_setup_wireguard_sh-to-tool_sysctl" style="stroke:#181818;stroke-width:1;"/><polygon fill="#181818" points="325.66,1414.1259,316.66,1410.1259,320.66,1414.1259,316.66,1418.1259,325.66,1414.1259" style="stroke:#181818;stroke-width:1;"/></g><!--link source_scripts_setup_wireguard_sh to tool_systemctl--><g class="link" data-entity-1="ent0003" data-entity-2="ent0025" data-link-type="dependency" data-source-line="56" id="lnk51"><path d="M140.52,981.4759 C140.52,1094.8859 140.52,1498.1259 140.52,1498.1259 C140.52,1498.1259 242.54,1498.1259 306.68,1498.1259" fill="none" id="source_scripts_setup_wireguard_sh-to-tool_systemctl" style="stroke:#181818;stroke-width:1;"/><polygon fill="#181818" points="312.68,1498.1259,303.68,1494.1259,307.68,1498.1259,303.68,1502.1259,312.68,1498.1259" style="stroke:#181818;stroke-width:1;"/></g><!--link source_scripts_setup_wireguard_sh to tool_value--><g class="link" data-entity-1="ent0003" data-entity-2="ent0026" data-link-type="dependency" data-source-line="57" id="lnk52"><path d="M109.52,981.6659 C109.52,1106.2159 109.52,1582.1259 109.52,1582.1259 C109.52,1582.1259 252.39,1582.1259 320.14,1582.1259" fill="none" id="source_scripts_setup_wireguard_sh-to-tool_value" style="stroke:#181818;stroke-width:1;"/><polygon fill="#181818" points="326.14,1582.1259,317.14,1578.1259,321.14,1582.1259,317.14,1586.1259,326.14,1582.1259" style="stroke:#181818;stroke-width:1;"/></g><!--link source_scripts_setup_wireguard_sh to tool_wg--><g class="link" data-entity-1="ent0003" data-entity-2="ent0027" data-link-type="dependency" data-source-line="58" id="lnk53"><path d="M79.52,981.4459 C79.52,1115.7959 79.52,1666.1259 79.52,1666.1259 C79.52,1666.1259 258.92,1666.1259 327.72,1666.1259" fill="none" id="source_scripts_setup_wireguard_sh-to-tool_wg" style="stroke:#181818;stroke-width:1;"/><polygon fill="#181818" points="333.72,1666.1259,324.72,1662.1259,328.72,1666.1259,324.72,1670.1259,333.72,1666.1259" style="stroke:#181818;stroke-width:1;"/></g><!--link source_scripts_setup_wireguard_sh to tool_wireguard_public_vpn--><g class="link" data-entity-1="ent0003" data-entity-2="ent0028" data-link-type="dependency" data-source-line="59" id="lnk54"><path d="M209.09,978.8659 C246.66,978.8659 280.52,978.8659 280.52,978.8659 C280.52,978.8659 280.52,1587.3259 280.52,1719.3359" fill="none" id="source_scripts_setup_wireguard_sh-to-tool_wireguard_public_vpn" style="stroke:#181818;stroke-width:1;"/><polygon fill="#181818" points="280.52,1725.3359,284.52,1716.3359,280.52,1720.3359,276.52,1716.3359,280.52,1725.3359" style="stroke:#181818;stroke-width:1;"/></g><!--link source_scripts_setup_wireguard_sh to tool_yum--><g class="link" data-entity-1="ent0003" data-entity-2="ent0029" data-link-type="dependency" data-source-line="60" id="lnk55"><path d="M48.52,981.4659 C48.52,1134.5059 48.52,1834.1259 48.52,1834.1259 C48.52,1834.1259 245.53,1834.1259 323.24,1834.1259" fill="none" id="source_scripts_setup_wireguard_sh-to-tool_yum" style="stroke:#181818;stroke-width:1;"/><polygon fill="#181818" points="329.24,1834.1259,320.24,1830.1259,324.24,1834.1259,320.24,1838.1259,329.24,1834.1259" style="stroke:#181818;stroke-width:1;"/></g><?plantuml-src bPRDRjGm58NtUGghNMUA1WGxDZ23M50MPODQPBcE9x76iOrzCv5vUcwIIU991belVSzt_EyZWmGbYA-CWvnBnni9v8SnIkgIVDKWIiT06kqp9Gv0m10domf88PtWdP3vezIMELPZ9wmmRMSyCEL5f1JYm1e5UwFXdjM2V3FQUCjup71JMwE5XWS8EAEkUwPB5ICuAG712eAJhKms8UHcKqgeckUxrhZZGPdMtt6v2RLwqkzmS41G53Xve_mDOPvuqpWkw62YauboIT54RdTlzjlzBXx0SoSj-3ileB6qnTMN3NF5nbTFUhlzpnXd8rqOgQ-cORWoJK5kThgmHchetLq_L9mhv7Q_sx_zz64a7_NzhvdI-fh-QBvVCDIO5HP-HaW8Ivtr1unRMGb-D4qqiRD2H-LVpdxHkGruMdhj7hPaK5SzMCXB4GzfWM9XoN4MCTXOwKhYbSgjaoS68Z-A4E6zHiyQHMtfBlHXnh6nr0zud2rJAkTrCODZbM9rwIYTi3FPjPQ4v4nNx8-q6tmHCpgLAPPN7kq11upeeR3ah8m6nyPAToB7xciPRIhMw51RqnUtjMykcTzEQ6uACMDZPKcwQB5kjK8lt4cut3RFIlBBOnmaEaZNJj47po7QdA5zXG9HBy6Xj6HFJ3NHalhcacdB6MZBbJe6mRYaaurUo1mJvrMXkkmXDD66OMFINmYtFFzu_H4d6-Ft-septhhNizFLorvEqyarfcQAH-iq6jCqnH122dsEkXGB9byIlag-53S6OGeUns6Ahml75FuY8PECGrYcMFgiIp6CgPVYSKchMCLWahcFn4J7a8qffZueKmnjcKHVYSsaPzhKcJOWnbZ5h-mNnsprqDGrSo5xm1kcyPEt7LM2hyY5Fcty9liyVWAtxmbKiijsvY0CVy9DXhb4kjx_0W00?></g></svg>
